<svg width="300" height="300" viewBox="0 0 300 300" fill="none" xmlns="http://www.w3.org/2000/svg">
<path d="M137.091 59.0039C-8.01416 58.2145 3.5365 176.432 27.45 235.639C40.9859 261.789 70.765 263.516 111.373 188.52C151.98 113.524 154.688 246 234.55 165.577C314.412 85.1539 318.472 59.9907 137.091 59.0039Z" fill="#383838"/>
<mask id="mask0_796_4147" style="mask-type:alpha" maskUnits="userSpaceOnUse" x="0" y="0" width="300" height="300">
<path d="M150 300C232.843 300 300 232.843 300 150C300 67.1573 232.843 0 150 0C67.1573 0 0 67.1573 0 150C0 232.843 67.1573 300 150 300Z" fill="white"/>
</mask>
<g mask="url(#mask0_796_4147)">
<path d="M77.4165 224.731C77.4165 224.731 75.2007 223.523 71.6421 225.067C68.0834 226.611 62.5776 230.103 57.5418 231.781C52.506 233.46 23.9697 245.344 23.9697 245.344C23.9697 245.344 51.7674 265.488 56.6018 269.986C61.4361 274.485 66.8748 287.377 66.8748 287.377L78.625 286.034L77.685 238.831L77.4165 224.731Z" fill="#777548"/>
</g>
<mask id="mask1_796_4147" style="mask-type:alpha" maskUnits="userSpaceOnUse" x="0" y="0" width="300" height="300">
<path d="M150 300C232.843 300 300 232.843 300 150C300 67.1573 232.843 0 150 0C67.1573 0 0 67.1573 0 150C0 232.843 67.1573 300 150 300Z" fill="white"/>
</mask>
<g mask="url(#mask1_796_4147)">
<path d="M266.629 263.742C266.629 263.742 260.922 248.635 261.929 239.369C262.936 230.103 276.365 237.69 276.365 237.69L281.871 247.896L266.629 263.742Z" fill="#777548"/>
</g>
<mask id="mask2_796_4147" style="mask-type:alpha" maskUnits="userSpaceOnUse" x="0" y="0" width="300" height="300">
<path d="M150 300C232.843 300 300 232.843 300 150C300 67.1573 232.843 0 150 0C67.1573 0 0 67.1573 0 150C0 232.843 67.1573 300 150 300Z" fill="white"/>
</mask>
<g mask="url(#mask2_796_4147)">
<path d="M123.209 198.142L122.202 208.818L132.408 233.796L140.062 236.817L159.333 222.314L173.366 205.931V197.471L123.209 198.142Z" fill="url(#paint0_linear_796_4147)"/>
</g>
<mask id="mask3_796_4147" style="mask-type:alpha" maskUnits="userSpaceOnUse" x="0" y="0" width="300" height="300">
<path d="M150 300C232.843 300 300 232.843 300 150C300 67.1573 232.843 0 150 0C67.1573 0 0 67.1573 0 150C0 232.843 67.1573 300 150 300Z" fill="white"/>
</mask>
<g mask="url(#mask3_796_4147)">
<path d="M139.995 318.532V327.663C139.995 327.663 139.66 328.2 138.518 331.222C137.377 334.243 137.041 367.748 137.041 367.748L135.363 468.465C135.363 468.465 135.564 488.876 135.363 498.545C135.161 508.214 132.475 510.228 131.468 522.717C130.461 535.206 131.468 543.196 132.878 547.695C134.288 552.193 135.564 564.011 135.564 564.011C135.564 564.011 147.247 564.414 163.966 566.226C180.685 568.039 216.741 563.138 229.23 560.318C241.719 557.498 247.628 553.872 253.268 552.999C258.908 552.126 263.071 552.865 264.212 548.097C265.354 543.33 260.855 488.003 260.855 488.003C260.855 488.003 252.999 421.464 252.798 403.133C252.596 384.803 254.678 366.473 258.236 355.192C261.795 343.979 265.152 331.826 265.152 331.826C265.152 331.826 268.711 225.134 265.152 222.314C261.594 219.494 245.68 215.197 237.623 212.377C229.566 209.557 210.295 204.118 205.797 201.5C201.298 198.881 190.085 192.301 190.085 192.301L171.553 220.77L142.144 295.636L139.995 318.532Z" fill="#A39872"/>
</g>
<mask id="mask4_796_4147" style="mask-type:alpha" maskUnits="userSpaceOnUse" x="0" y="0" width="300" height="300">
<path d="M150 300C232.843 300 300 232.843 300 150C300 67.1573 232.843 0 150 0C67.1573 0 0 67.1573 0 150C0 232.843 67.1573 300 150 300Z" fill="white"/>
</mask>
<g mask="url(#mask4_796_4147)">
<path d="M129.588 562.332C129.588 562.332 90.6445 561.996 80.1029 559.176C74.1942 557.095 73.3885 559.848 75.2014 548.635C77.0143 537.422 77.8871 534.199 75.7385 532.319C73.6571 530.506 75.2685 519.696 74.3285 504.924C73.3885 490.152 74.9328 493.107 73.2542 481.893C71.5756 470.68 71.5756 441.271 73.2542 433.415C74.9328 425.559 76.8128 430.058 73.4556 420.121C70.0984 410.183 68.4198 392.256 70.4341 381.379C72.4485 370.501 69.897 344.114 68.2184 337.198C66.5398 330.282 67.0769 297.113 67.0769 283.818C67.0769 270.524 68.5541 231.379 78.6929 223.523C87.0859 219.427 109.781 212.377 117.905 207.274C122.269 208.55 129.588 227.283 129.588 227.283L129.252 317.927C129.252 317.927 130.528 327.529 130.528 333.706C130.528 339.884 127.91 377.484 127.977 386.213C128.044 394.942 128.111 481.893 128.178 489.078C128.245 496.262 128.581 505.058 126.432 511.437C124.284 517.816 123.008 536.884 124.418 542.189C125.828 547.56 130.125 547.896 129.588 562.332Z" fill="#A39872"/>
</g>
<mask id="mask5_796_4147" style="mask-type:alpha" maskUnits="userSpaceOnUse" x="0" y="0" width="300" height="300">
<path d="M150 300C232.843 300 300 232.843 300 150C300 67.1573 232.843 0 150 0C67.1573 0 0 67.1573 0 150C0 232.843 67.1573 300 150 300Z" fill="white"/>
</mask>
<g mask="url(#mask5_796_4147)">
<path d="M122.874 195.725L121.531 214.257L133.349 240.376H152.015L178.805 218.017L187.803 192.368L122.874 195.725Z" stroke="url(#paint1_linear_796_4147)" stroke-miterlimit="10"/>
</g>
<mask id="mask6_796_4147" style="mask-type:alpha" maskUnits="userSpaceOnUse" x="0" y="0" width="300" height="300">
<path d="M150 300C232.843 300 300 232.843 300 150C300 67.1573 232.843 0 150 0C67.1573 0 0 67.1573 0 150C0 232.843 67.1573 300 150 300Z" fill="white"/>
</mask>
<g mask="url(#mask6_796_4147)">
<path d="M120.188 231.11C120.188 231.11 117.234 252.999 118.577 265.958C119.919 278.85 124.015 304.901 126.835 312.556C129.655 320.21 133.013 324.172 136.773 322.09C140.533 320.009 155.506 294.964 161.079 286.168C166.719 277.372 177.193 264.078 180.349 256.625C183.505 249.105 186.728 225.94 186.728 225.94L157.923 219.158L146.039 226.276L137.713 233.326L128.648 229.834L119.852 227.283L120.188 231.11Z" fill="#777548"/>
</g>
<mask id="mask7_796_4147" style="mask-type:alpha" maskUnits="userSpaceOnUse" x="0" y="0" width="300" height="300">
<path d="M150 300C232.843 300 300 232.843 300 150C300 67.1573 232.843 0 150 0C67.1573 0 0 67.1573 0 150C0 232.843 67.1573 300 150 300Z" fill="white"/>
</mask>
<g mask="url(#mask7_796_4147)">
<path d="M145.367 227.753L138.921 232.117L137.578 233.259L137.108 233.057H136.773L131.065 234.534V320.68C132.811 322.627 134.691 323.232 136.638 322.09C138.183 321.284 141.54 316.652 145.367 310.877V227.753Z" fill="#686540"/>
</g>
<mask id="mask8_796_4147" style="mask-type:alpha" maskUnits="userSpaceOnUse" x="0" y="0" width="300" height="300">
<path d="M150 300C232.843 300 300 232.843 300 150C300 67.1573 232.843 0 150 0C67.1573 0 0 67.1573 0 150C0 232.843 67.1573 300 150 300Z" fill="white"/>
</mask>
<g mask="url(#mask8_796_4147)">
<path d="M137.646 242.793C139.574 242.793 141.137 241.23 141.137 239.302C141.137 237.374 139.574 235.81 137.646 235.81C135.717 235.81 134.154 237.374 134.154 239.302C134.154 241.23 135.717 242.793 137.646 242.793Z" fill="#DBC483"/>
<path d="M137.646 242.256C139.277 242.256 140.6 240.933 140.6 239.302C140.6 237.67 139.277 236.347 137.646 236.347C136.014 236.347 134.691 237.67 134.691 239.302C134.691 240.933 136.014 242.256 137.646 242.256Z" fill="#C9B177"/>
<path d="M136.437 238.832C136.771 238.832 137.042 238.561 137.042 238.227C137.042 237.894 136.771 237.623 136.437 237.623C136.104 237.623 135.833 237.894 135.833 238.227C135.833 238.561 136.104 238.832 136.437 238.832Z" fill="#8C7D5D"/>
<path d="M138.787 238.832C139.121 238.832 139.391 238.561 139.391 238.227C139.391 237.894 139.121 237.623 138.787 237.623C138.453 237.623 138.183 237.894 138.183 238.227C138.183 238.561 138.453 238.832 138.787 238.832Z" fill="#8C7D5D"/>
<path d="M136.437 241.047C136.771 241.047 137.042 240.777 137.042 240.443C137.042 240.109 136.771 239.839 136.437 239.839C136.104 239.839 135.833 240.109 135.833 240.443C135.833 240.777 136.104 241.047 136.437 241.047Z" fill="#8C7D5D"/>
<path d="M138.854 241.047C139.188 241.047 139.459 240.777 139.459 240.443C139.459 240.109 139.188 239.839 138.854 239.839C138.521 239.839 138.25 240.109 138.25 240.443C138.25 240.777 138.521 241.047 138.854 241.047Z" fill="#8C7D5D"/>
</g>
<mask id="mask9_796_4147" style="mask-type:alpha" maskUnits="userSpaceOnUse" x="0" y="0" width="300" height="300">
<path d="M150 300C232.843 300 300 232.843 300 150C300 67.1573 232.843 0 150 0C67.1573 0 0 67.1573 0 150C0 232.843 67.1573 300 150 300Z" fill="white"/>
</mask>
<g mask="url(#mask9_796_4147)">
<path d="M137.646 278.648C139.574 278.648 141.137 277.085 141.137 275.157C141.137 273.228 139.574 271.665 137.646 271.665C135.717 271.665 134.154 273.228 134.154 275.157C134.154 277.085 135.717 278.648 137.646 278.648Z" fill="#DBC483"/>
<path d="M137.646 278.111C139.277 278.111 140.6 276.788 140.6 275.157C140.6 273.525 139.277 272.202 137.646 272.202C136.014 272.202 134.691 273.525 134.691 275.157C134.691 276.788 136.014 278.111 137.646 278.111Z" fill="#C9B177"/>
<path d="M136.437 274.687C136.771 274.687 137.042 274.416 137.042 274.082C137.042 273.749 136.771 273.478 136.437 273.478C136.104 273.478 135.833 273.749 135.833 274.082C135.833 274.416 136.104 274.687 136.437 274.687Z" fill="#8C7D5D"/>
<path d="M138.787 274.687C139.121 274.687 139.391 274.416 139.391 274.082C139.391 273.749 139.121 273.478 138.787 273.478C138.453 273.478 138.183 273.749 138.183 274.082C138.183 274.416 138.453 274.687 138.787 274.687Z" fill="#8C7D5D"/>
<path d="M136.437 276.835C136.771 276.835 137.042 276.565 137.042 276.231C137.042 275.897 136.771 275.627 136.437 275.627C136.104 275.627 135.833 275.897 135.833 276.231C135.833 276.565 136.104 276.835 136.437 276.835Z" fill="#8C7D5D"/>
<path d="M138.854 276.835C139.188 276.835 139.459 276.565 139.459 276.231C139.459 275.897 139.188 275.627 138.854 275.627C138.521 275.627 138.25 275.897 138.25 276.231C138.25 276.565 138.521 276.835 138.854 276.835Z" fill="#8C7D5D"/>
</g>
<mask id="mask10_796_4147" style="mask-type:alpha" maskUnits="userSpaceOnUse" x="0" y="0" width="300" height="300">
<path d="M150 300C232.843 300 300 232.843 300 150C300 67.1573 232.843 0 150 0C67.1573 0 0 67.1573 0 150C0 232.843 67.1573 300 150 300Z" fill="white"/>
</mask>
<g mask="url(#mask10_796_4147)">
<path d="M102.731 247.091C102.731 247.091 110.117 227.149 113.205 219.561C116.294 211.974 117.771 208.751 118.442 204.991C119.114 201.231 120.255 196.732 120.255 196.732L124.754 198.008C124.754 198.008 123.747 207.005 126.97 213.72C130.193 220.434 133.818 229.566 135.564 231.11C137.243 232.655 138.787 232.789 136.437 234.333C134.02 235.877 130.663 235.005 127.708 232.252C124.754 229.432 121.33 229.566 120.188 231.11C119.047 232.655 118.04 233.796 117.637 236.885C117.234 239.973 108.237 247.158 106.826 249.373C105.416 251.589 99.7764 255.081 102.731 247.091Z" fill="#848157"/>
</g>
<mask id="mask11_796_4147" style="mask-type:alpha" maskUnits="userSpaceOnUse" x="0" y="0" width="300" height="300">
<path d="M150 300C232.843 300 300 232.843 300 150C300 67.1573 232.843 0 150 0C67.1573 0 0 67.1573 0 150C0 232.843 67.1573 300 150 300Z" fill="white"/>
</mask>
<g mask="url(#mask11_796_4147)">
<path d="M143.084 229.7C144.695 229.028 148.59 226.813 154.633 226.477C160.676 226.141 163.026 226.007 163.026 226.007C163.026 226.007 157.117 218.89 155.707 219.158C154.297 219.36 149.53 222.986 147.448 224.463C145.367 225.806 143.084 229.7 143.084 229.7Z" fill="#545230"/>
</g>
<mask id="mask12_796_4147" style="mask-type:alpha" maskUnits="userSpaceOnUse" x="0" y="0" width="300" height="300">
<path d="M150 300C232.843 300 300 232.843 300 150C300 67.1573 232.843 0 150 0C67.1573 0 0 67.1573 0 150C0 232.843 67.1573 300 150 300Z" fill="white"/>
</mask>
<g mask="url(#mask12_796_4147)">
<path d="M137.579 232.856C137.579 232.856 147.449 221.173 150.874 218.89C154.231 216.674 164.907 205.26 169.405 201.835C173.904 198.411 180.686 194.315 180.686 194.315L190.019 192.301C190.019 192.301 189.28 208.751 188.81 217.01C188.407 225.269 186.594 233.192 183.976 237.22C181.357 241.249 178.604 246.486 175.65 243.397C172.695 240.309 164.504 230.64 162.355 228.29C160.274 226.007 157.319 219.83 154.634 220.501C151.948 221.173 144.226 229.7 142.078 231.379C139.929 233.057 137.982 235.877 137.579 232.856Z" fill="#848157"/>
</g>
<mask id="mask13_796_4147" style="mask-type:alpha" maskUnits="userSpaceOnUse" x="0" y="0" width="300" height="300">
<path d="M150 300C232.843 300 300 232.843 300 150C300 67.1573 232.843 0 150 0C67.1573 0 0 67.1573 0 150C0 232.843 67.1573 300 150 300Z" fill="white"/>
</mask>
<g mask="url(#mask13_796_4147)">
<path d="M200.291 84.7358L199.15 66.3383C199.15 66.3383 199.62 64.8611 195.658 62.0411C191.697 59.221 176.656 48.2765 164.637 45.5236C152.619 42.7707 141.473 43.6436 131.267 47.6051C121.061 51.5666 119.584 56.3338 118.509 60.161C117.435 63.9883 113.742 71.777 113.742 71.777L200.291 84.7358Z" fill="url(#paint2_linear_796_4147)"/>
<path d="M212.309 85.4074L210.832 61.9741C210.832 61.9741 211.436 60.0941 206.401 56.4683C201.365 52.9096 182.229 38.9436 166.92 35.4522C151.611 31.9607 137.444 33.035 124.418 38.0708C111.392 43.1066 109.579 49.1496 108.169 54.0511C106.759 58.9526 102.059 68.8899 102.059 68.8899L212.309 85.4074Z" fill="#7C5535"/>
<path fill-rule="evenodd" clip-rule="evenodd" d="M195.657 79.7672C195.657 79.7672 190.823 81.983 185.586 75.47C180.348 68.957 174.305 54.991 174.44 50.4924C174.574 45.9937 174.171 44.6508 178.737 46.9337C183.236 49.2166 189.614 53.5139 192.971 54.1853C196.262 54.8568 199.887 60.2283 200.357 63.0483C200.827 65.8684 200.29 63.3841 196.329 61.1012C192.367 58.8183 186.794 59.3554 188.406 66.8084C190.017 74.2614 198.276 79.4315 195.657 79.7672Z" fill="#603E26"/>
<path fill-rule="evenodd" clip-rule="evenodd" d="M117.569 76.343C117.569 76.343 122.74 80.1702 130.528 73.8586C138.317 67.5471 149.06 52.5739 150.067 47.2695C151.074 41.9652 151.813 40.488 145.904 42.0323C139.996 43.5766 131.334 47.001 127.305 47.001C123.21 46.9338 117.637 52.3725 116.294 55.5954C114.951 58.7512 116.294 55.9983 121.531 54.3197C126.701 52.6411 133.214 54.7225 129.387 63.0484C125.56 71.3743 114.548 75.2687 117.569 76.343Z" fill="#603E26"/>
<path d="M239.839 97.2246C224.261 88.3616 212.444 82.9229 186.459 78.4243C169.338 75.4699 141.943 71.7098 120.188 69.5612C120.188 69.5612 107.766 65.6669 95.6804 56.1995C83.6616 46.7322 66.4727 47.8065 57.1397 50.0223C51.231 51.4323 51.7681 66.0026 52.9096 76.4099C53.7153 83.7958 56.8039 90.7788 61.6383 96.3517C65.8684 101.253 71.8442 107.229 79.0287 112.131C98.4333 125.358 115.488 130.461 115.488 130.461C115.488 130.461 141.674 134.221 184.445 137.31C227.149 140.398 248.702 126.365 254.141 121.665C259.512 116.965 255.416 106.088 239.839 97.2246Z" fill="#8C6239"/>
<path d="M217.949 101.119C217.949 101.119 130.527 79.5658 100.313 89.436C89.6367 94.8746 89.0995 107.095 99.8426 110.855C110.518 114.615 217.949 101.119 217.949 101.119Z" fill="#603E26"/>
<path d="M216.942 135.161C214.525 138.384 211.974 140.264 209.489 141.204C208.079 135.9 207.341 130.461 207.274 124.955C207.274 124.619 207.274 124.351 207.274 124.015C207.139 119.449 206.401 114.951 205.125 110.586C207.072 109.781 209.624 109.445 212.712 110.586C220.77 113.541 223.254 126.768 216.942 135.161Z" fill="#A16552"/>
<path d="M216.942 135.161C214.525 138.384 211.974 140.264 209.489 141.204C208.079 135.9 207.341 130.461 207.274 124.955C207.274 124.619 207.274 124.351 207.274 124.015C207.139 119.449 206.401 114.951 205.125 110.586C207.072 109.781 209.624 109.445 212.712 110.586C220.77 113.541 223.254 126.768 216.942 135.161Z" fill="url(#paint3_linear_796_4147)"/>
<path d="M96.0831 113.272C95.0088 117.637 94.4717 122.203 94.606 126.701C94.606 127.037 94.606 127.306 94.606 127.641C94.8074 133.147 94.2702 138.586 93.1959 143.957C90.6445 143.152 88.0258 141.339 85.4744 138.317C78.7599 130.193 80.64 116.898 88.563 113.541C91.5173 112.332 94.0688 112.534 96.0831 113.272Z" fill="#A16552"/>
<path d="M96.0831 113.272C95.0088 117.637 94.4717 122.203 94.606 126.701C94.606 127.037 94.606 127.306 94.606 127.641C94.8074 133.147 94.2702 138.586 93.1959 143.957C90.6445 143.152 88.0258 141.339 85.4744 138.317C78.7599 130.193 80.64 116.898 88.563 113.541C91.5173 112.332 94.0688 112.534 96.0831 113.272Z" fill="url(#paint4_linear_796_4147)"/>
<path d="M191.965 141.809C189.682 145.569 189.212 150.202 190.689 154.364C191.83 157.52 192.905 161.012 192.972 163.697C193.442 183.102 175.38 199.284 152.685 199.821C129.991 200.358 111.19 185.049 110.72 165.645C110.653 162.959 111.526 159.4 112.533 156.244C113.809 152.014 113.138 147.449 110.653 143.756C108.236 140.197 106.893 136.034 106.826 131.737C106.49 118.845 117.233 108.102 130.796 107.766C135.161 107.632 139.525 108.639 143.352 110.721C147.918 113.138 153.357 113.004 157.788 110.385C161.548 108.169 165.846 106.894 170.21 106.826C183.773 106.491 194.986 116.697 195.322 129.588C195.389 132.811 194.785 136.034 193.509 138.988C193.039 139.928 192.502 140.868 191.965 141.809Z" fill="#A16552"/>
<path d="M191.965 141.809C189.682 145.569 189.212 150.202 190.689 154.364C191.83 157.52 192.905 161.012 192.972 163.697C193.442 183.102 175.38 199.284 152.685 199.821C129.991 200.358 111.19 185.049 110.72 165.645C110.653 162.959 111.526 159.4 112.533 156.244C113.809 152.014 113.138 147.449 110.653 143.756C108.236 140.197 106.893 136.034 106.826 131.737C106.49 118.845 117.233 108.102 130.796 107.766C135.161 107.632 139.525 108.639 143.352 110.721C147.918 113.138 153.357 113.004 157.788 110.385C161.548 108.169 165.846 106.894 170.21 106.826C183.773 106.491 194.986 116.697 195.322 129.588C195.389 132.811 194.785 136.034 193.509 138.988C193.039 139.928 192.502 140.868 191.965 141.809Z" fill="url(#paint5_linear_796_4147)"/>
<path d="M130.998 169.539C129.722 169.539 128.648 170.613 128.715 171.956C128.715 172.091 128.715 172.158 128.715 172.292C130.461 182.699 140.532 190.488 152.417 190.22C164.368 189.951 174.037 181.625 175.246 171.218C175.38 169.942 174.44 168.733 173.164 168.599C173.03 168.599 172.963 168.599 172.829 168.599L130.998 169.539Z" fill="url(#paint6_radial_796_4147)"/>
<path d="M138.787 186.593C147.18 191.562 157.655 191.294 165.846 185.922C164.033 180.08 158.595 181.558 152.216 181.692C145.837 181.826 140.399 180.685 138.787 186.593Z" fill="url(#paint7_radial_796_4147)"/>
<path d="M215.331 106.222C210.429 104.476 206.602 105.551 203.916 107.162C203.178 105.215 202.372 103.335 201.499 101.455C200.828 100.112 200.156 98.7691 199.35 97.4262C191.562 83.9974 178.804 72.9858 164.301 68.5542L163.831 60.8327L154.632 66.6071L153.491 66.5399C152.819 66.4728 152.148 66.4728 151.409 66.4728L149.932 60.6312L149.462 58.9526C148.992 58.9526 148.522 58.9526 148.119 59.0198C139.458 59.9598 135.362 67.8828 134.691 69.2257C120.456 74.3286 108.169 85.9446 101.051 99.7763C100.38 101.119 99.7085 102.462 99.1042 103.872C98.2985 105.752 97.5599 107.699 96.9556 109.646L96.6199 109.445C93.867 108.035 90.1069 107.296 85.5411 109.244C75.4023 113.474 73.0523 130.394 81.5796 140.667C85.0711 144.83 88.6969 147.113 92.1212 148.053C92.0541 148.254 92.0541 148.456 91.9869 148.657C91.4498 151.477 91.1812 154.364 91.2483 157.319C91.7183 177.395 106.96 194.315 128.312 201.365C133.348 203.044 138.518 204.118 143.755 204.588C146.508 204.857 149.261 204.924 152.014 204.924H152.685C185.989 204.118 212.376 181.558 211.772 154.432C211.705 151.544 211.302 148.657 210.631 145.837C210.563 145.636 210.563 145.434 210.496 145.233C213.921 144.091 217.412 141.674 220.702 137.31C228.827 126.701 225.604 109.915 215.331 106.222ZM96.0827 113.272C95.0084 117.637 94.4712 122.202 94.6055 126.701C94.6055 127.037 94.6055 127.305 94.6055 127.641C94.807 133.147 94.2698 138.586 93.1955 143.957C90.644 143.151 88.0254 141.338 85.4739 138.317C78.7595 130.193 80.6396 116.898 88.5626 113.541C91.5169 112.332 94.0684 112.534 96.0827 113.272ZM193.442 138.988C193.039 139.928 192.569 140.936 191.965 141.808C189.682 145.569 189.212 150.202 190.689 154.364C191.83 157.52 192.905 161.012 192.972 163.697C193.442 183.102 175.38 199.284 152.685 199.821C129.99 200.358 111.19 185.049 110.72 165.645C110.653 162.959 111.526 159.4 112.533 156.244C113.809 152.014 113.137 147.449 110.653 143.756C108.236 140.197 106.893 136.034 106.826 131.737C106.49 118.845 117.233 108.102 130.796 107.766C135.161 107.632 139.525 108.639 143.352 110.721C147.918 113.138 153.357 113.004 157.788 110.385C161.548 108.169 165.845 106.894 170.21 106.826C183.773 106.491 194.986 116.697 195.322 129.588C195.322 132.811 194.717 136.034 193.442 138.988ZM216.942 135.161C214.525 138.384 211.973 140.264 209.489 141.204C208.079 135.9 207.341 130.461 207.273 124.955C207.273 124.62 207.273 124.351 207.273 124.015C207.139 119.45 206.401 114.951 205.125 110.586C207.072 109.781 209.623 109.445 212.712 110.586C220.769 113.541 223.254 126.768 216.942 135.161Z" fill="url(#paint8_linear_796_4147)"/>
<path d="M141.271 151.746L141.338 151.611C141.741 150.604 142.882 150.201 143.822 150.604L148.523 152.619C149.53 153.022 149.933 154.163 149.53 155.103L149.463 155.237C149.06 156.244 147.918 156.647 146.978 156.244L142.278 154.23C141.271 153.894 140.801 152.753 141.271 151.746Z" fill="url(#paint9_linear_796_4147)"/>
<path d="M153.693 155.237L153.626 155.103C153.156 154.163 153.558 153.022 154.499 152.552L159.131 150.336C160.071 149.866 161.213 150.269 161.683 151.209L161.75 151.343C162.22 152.283 161.817 153.424 160.877 153.894L156.244 156.11C155.304 156.58 154.163 156.177 153.693 155.237Z" fill="url(#paint10_linear_796_4147)"/>
<path d="M130.125 140.466C126.23 140.533 123.007 137.645 122.94 133.953L122.873 131.737C122.806 128.044 125.895 124.955 129.789 124.888C133.683 124.821 136.906 127.708 136.973 131.401L137.041 133.617C137.041 137.31 133.952 140.398 130.125 140.466Z" fill="url(#paint11_linear_796_4147)"/>
<path d="M129.722 124.888L129.923 132.677C130.057 134.624 131.736 136.101 133.683 135.967C135.496 135.833 136.906 134.355 136.973 132.543V131.468C136.839 127.708 133.616 124.821 129.722 124.888Z" fill="url(#paint12_radial_796_4147)"/>
<path d="M130.915 130.928C132.213 130.897 133.241 129.88 133.212 128.657C133.182 127.433 132.107 126.467 130.809 126.498C129.512 126.529 128.484 127.546 128.513 128.769C128.542 129.992 129.618 130.959 130.915 130.928Z" fill="white"/>
<path d="M132.341 78.6259C134.153 75.873 136.033 73.3215 137.846 71.1057C138.921 69.7628 139.928 68.5543 140.935 67.4799C144.964 63.0484 148.321 60.497 149.932 60.6312L149.462 58.9526C148.992 58.9526 148.522 59.0198 148.119 59.0198C139.458 59.9598 135.362 67.8828 134.691 69.2257C120.456 74.3286 108.169 85.9446 101.051 99.7763C100.38 101.119 99.7085 102.529 99.1042 103.872C98.2985 105.752 97.5599 107.699 96.9556 109.646L96.6199 109.445C93.8669 108.035 90.1069 107.296 85.5411 109.244C75.4023 113.474 73.0523 130.394 81.5796 140.667C85.0711 144.83 88.6969 147.113 92.1212 148.053C92.0541 148.254 92.0541 148.456 91.9869 148.657C91.4498 151.477 91.1812 154.364 91.2483 157.319C91.7183 177.395 106.96 194.315 128.312 201.365C133.348 203.044 138.518 204.118 143.755 204.588C143.755 204.588 129.99 197.538 121.597 183.639C113.943 171.016 113.07 150.269 115.286 129.588C116.427 121.128 117.233 115.287 117.233 115.287C118.576 107.028 125.895 87.6903 132.341 78.6259Z" fill="url(#paint13_linear_796_4147)"/>
<path d="M171.889 139.257C167.995 139.324 164.772 136.437 164.705 132.744L164.638 130.528C164.571 126.835 167.659 123.747 171.554 123.679C175.448 123.612 178.671 126.499 178.738 130.192L178.805 132.408C178.872 136.101 175.784 139.19 171.889 139.257Z" fill="url(#paint14_linear_796_4147)"/>
<path d="M171.553 123.679L171.754 131.468C171.888 133.415 173.567 134.892 175.514 134.758C177.327 134.624 178.737 133.147 178.804 131.334V130.259C178.67 126.499 175.38 123.612 171.553 123.679Z" fill="url(#paint15_radial_796_4147)"/>
<path d="M123.008 159.266C122.672 159.467 122.27 159.669 121.934 159.87C120.927 160.407 119.987 161.012 118.98 161.549C118.308 161.884 117.704 162.354 117.099 162.757C116.697 163.026 116.227 163.294 115.824 163.63C115.018 164.167 114.212 164.705 113.474 165.242C113.138 165.51 112.802 165.779 112.467 166.047C112.399 166.115 112.265 166.182 112.198 166.249C111.594 166.585 111.124 167.055 110.587 167.457C110.116 167.793 109.646 168.129 109.244 168.465C108.706 168.867 108.169 169.337 107.632 169.807C107.364 170.009 107.162 170.345 106.894 170.546C106.759 170.68 106.692 170.747 106.491 170.68C106.356 170.68 106.155 170.747 106.021 170.68C105.886 170.613 105.819 170.546 105.685 170.613C105.484 170.747 105.349 170.613 105.215 170.412C105.148 170.277 105.014 170.143 104.946 170.009C104.879 169.74 104.745 169.539 104.544 169.337C104.476 169.27 104.409 169.136 104.342 169.069C104.208 168.935 104.208 168.867 104.208 168.733C104.208 168.599 104.208 168.465 104.208 168.33C104.208 168.129 104.141 167.995 104.141 167.793C104.141 167.726 104.074 167.592 104.006 167.592C103.738 167.39 103.604 167.189 103.604 166.853C103.604 166.853 103.536 166.786 103.469 166.719C103.335 166.719 103.268 166.585 103.268 166.517C103.268 166.45 103.268 166.316 103.268 166.249C103.201 165.779 103.268 165.376 103.671 165.242C103.805 165.175 103.872 165.04 103.872 164.839C103.939 164.369 104.141 164.1 104.611 163.966C104.745 163.899 104.879 163.832 104.946 163.765C105.081 163.697 105.148 163.697 105.215 163.765C105.215 163.899 105.215 163.966 105.148 163.966C105.014 164.033 104.745 164.1 104.678 164.302C104.678 164.369 104.678 164.436 104.745 164.503C104.812 164.57 104.879 164.57 104.946 164.57C105.014 164.57 105.081 164.503 105.081 164.503C105.215 164.436 105.349 164.302 105.484 164.235C105.752 164.1 105.954 163.899 106.088 163.63C106.155 163.496 106.222 163.429 106.289 163.294C106.491 162.959 106.759 162.757 107.162 162.757C107.364 162.757 107.498 162.623 107.565 162.489C107.632 162.354 107.766 162.287 107.834 162.153C107.901 162.086 107.968 162.019 108.035 162.019C108.371 162.086 108.505 161.817 108.706 161.683C108.908 161.549 109.176 161.414 109.378 161.28C109.646 161.146 109.915 160.944 110.184 160.743C110.385 160.609 110.587 160.474 110.788 160.34C110.989 160.273 111.191 160.139 111.258 159.937C111.325 159.736 111.459 159.669 111.661 159.534C111.862 159.467 111.997 159.333 112.131 159.266C112.534 159.132 112.869 158.796 113.205 158.527C113.272 158.46 113.339 158.326 113.339 158.259C113.407 158.192 113.474 158.192 113.541 158.192C113.877 158.259 113.944 158.192 113.944 157.856C113.944 157.722 113.944 157.587 114.078 157.52C114.212 157.453 114.347 157.319 114.481 157.252C114.615 157.117 114.817 157.05 115.018 157.117C115.152 157.117 115.287 157.05 115.421 156.983C115.555 156.983 115.757 156.983 115.891 156.983C115.958 156.983 116.025 156.916 116.025 156.916C116.495 156.647 116.898 156.312 117.368 156.043C117.435 155.976 117.569 155.909 117.637 155.774C117.905 155.237 118.442 154.969 118.98 154.767C119.248 154.7 119.517 154.566 119.718 154.431C120.121 154.23 120.591 154.364 121.128 154.834C121.531 155.17 121.8 155.573 121.934 156.043C121.934 156.11 122.001 156.177 122.068 156.244C122.471 156.714 122.672 157.252 122.874 157.722C122.941 157.856 123.075 157.99 123.142 158.124C123.411 158.46 123.411 158.46 123.277 158.729C123.344 158.997 123.142 159.132 123.008 159.266Z" fill="#1C1C1C"/>
<path d="M107.632 161.616C107.766 161.549 107.833 161.482 107.9 161.415C107.9 161.415 107.968 161.415 108.035 161.482L108.102 161.616C108.035 161.817 107.833 161.952 107.632 162.019C107.632 162.019 107.565 162.019 107.498 161.952C107.498 161.952 107.43 161.817 107.498 161.817C107.498 161.75 107.565 161.683 107.632 161.616Z" fill="#1C1C1C"/>
<path d="M112.936 158.527L112.869 158.46H112.936V158.527Z" fill="#1C1C1C"/>
<path d="M106.088 152.887C106.289 152.954 106.491 152.954 106.625 152.753C106.826 152.552 107.028 152.417 107.162 152.283C107.229 152.149 107.363 152.082 107.498 152.014C107.833 151.813 108.236 151.544 108.572 151.276C108.841 151.074 109.042 150.806 109.176 150.537C109.311 150.336 109.445 150.134 109.713 150.067C109.915 150 109.982 149.866 110.116 149.732C110.452 149.262 110.855 148.792 111.526 148.657C111.862 148.59 112.064 148.389 112.265 148.12C112.332 147.919 112.534 147.784 112.668 147.65C112.802 147.449 112.936 147.247 112.869 146.979C112.869 146.844 112.869 146.71 112.936 146.643C113.071 146.576 113.138 146.441 113.272 146.374C113.608 146.307 113.876 146.039 114.078 145.837C114.145 145.77 114.212 145.703 114.279 145.703C114.346 145.636 114.481 145.636 114.548 145.636C114.682 145.636 114.749 145.77 114.884 145.904C115.085 146.173 115.286 146.039 115.421 146.106C115.488 146.106 115.555 146.173 115.622 146.24V146.307C115.555 146.576 115.689 146.844 115.891 147.113C116.025 147.247 116.025 147.381 116.025 147.583C116.025 147.852 116.294 148.657 116.428 148.926C116.629 149.194 116.831 149.463 117.032 149.732C117.166 149.933 117.234 150.067 117.166 150.269C117.099 150.403 117.099 150.537 117.234 150.739C117.435 151.142 117.368 151.343 117.166 151.544C116.965 151.746 116.764 151.947 116.562 152.149C116.294 152.35 116.025 152.619 115.824 152.887C115.689 153.156 115.421 153.29 115.219 153.492C115.085 153.626 114.884 153.693 114.749 153.827C114.346 154.23 113.944 154.499 113.406 154.7C112.936 154.902 112.601 155.17 112.332 155.573C112.265 155.64 112.198 155.775 112.064 155.842C111.795 155.909 111.594 156.11 111.459 156.312C111.392 156.446 111.258 156.58 111.123 156.647C110.989 156.715 110.922 156.849 110.855 157.05C110.855 157.185 110.721 157.252 110.586 157.252C110.385 157.185 110.251 157.252 110.251 157.453C110.251 157.655 110.183 157.789 110.116 157.856C109.713 158.259 109.311 158.662 108.706 158.796C108.505 158.796 108.371 158.93 108.371 159.132C108.371 159.333 108.303 159.4 108.169 159.535C107.901 159.736 107.699 159.937 107.431 160.072C107.296 160.139 107.162 160.206 106.961 160.139C106.893 160.139 106.826 160.139 106.759 160.139C106.625 160.273 106.423 160.407 106.356 160.609C106.289 160.81 106.155 160.945 105.886 160.945C105.551 160.877 105.416 161.012 105.416 161.347C105.416 161.549 105.282 161.683 105.148 161.817C104.946 161.952 104.745 162.153 104.543 162.287C104.476 162.355 104.409 162.422 104.275 162.422C103.805 162.422 103.603 162.69 103.268 162.892C103.2 162.959 103.066 163.026 103.066 163.093C102.932 163.429 102.596 163.563 102.328 163.698C101.925 163.899 101.522 164.1 101.186 164.436L101.119 164.503C100.515 164.705 100.112 165.108 99.6418 165.51C99.4404 165.645 99.239 165.712 98.9704 165.645C98.769 165.578 98.6347 165.51 98.4332 165.51C98.1647 165.51 97.9632 165.309 97.7618 165.04C97.6275 164.772 97.4932 164.503 97.2918 164.302C97.0904 164.033 96.8889 163.765 96.7546 163.496C96.6204 163.227 96.6875 162.959 96.6204 162.69C96.6204 162.556 96.5532 162.489 96.3518 162.422C96.0832 162.355 96.0832 162.287 96.0832 162.086C96.0832 161.952 96.0832 161.885 96.0161 161.817C95.8146 161.482 95.8818 161.146 95.6132 160.877C95.4789 160.743 95.4789 160.609 95.5461 160.542C95.6132 160.407 95.6803 160.34 95.7475 160.206C95.8818 160.005 95.9489 159.87 95.9489 159.535C95.9489 159.4 96.1504 159.266 96.3518 159.266C96.4189 159.266 96.4189 159.333 96.4861 159.333C96.5532 159.4 96.6875 159.535 96.7546 159.535C96.8218 159.535 96.8889 159.4 96.9561 159.4C97.3589 159.266 97.6275 158.93 98.0975 158.863C98.1647 158.863 98.2318 158.796 98.2318 158.796C98.5675 158.393 99.1047 158.326 99.5076 158.057C99.709 157.923 99.9104 157.856 100.045 157.722C100.716 157.117 101.522 156.647 102.26 156.11C102.395 155.976 102.529 155.976 102.798 156.043L102.73 155.976C102.999 155.775 103.335 155.573 103.603 155.305C103.738 155.103 103.939 155.036 104.14 154.969C104.409 154.902 104.611 154.7 104.745 154.432C104.745 154.364 104.812 154.23 104.879 154.23C105.081 154.23 105.215 154.096 105.215 153.894C105.215 153.76 105.349 153.693 105.416 153.693C105.819 153.693 105.953 153.492 106.021 153.156C106.021 153.089 106.021 153.089 106.021 153.022H106.088C106.021 152.954 106.088 152.954 106.088 152.887Z" fill="#1C1C1C"/>
<path d="M105.953 153.021C105.886 152.887 105.886 152.887 106.088 152.954C106.02 152.887 106.02 152.954 105.953 153.021Z" fill="#1C1C1C"/>
<path d="M104.946 153.424L105.013 153.491H104.946V153.424Z" fill="#1C1C1C"/>
<path d="M172.677 129.653C173.975 129.622 175.003 128.605 174.973 127.382C174.944 126.158 173.869 125.192 172.571 125.223C171.274 125.254 170.245 126.271 170.275 127.494C170.304 128.718 171.38 129.684 172.677 129.653Z" fill="white"/>
<path d="M178.469 162.153C178.335 161.952 178.335 161.885 178.603 161.549C178.67 161.415 178.805 161.28 178.872 161.146C179.141 160.609 179.342 160.072 179.678 159.669C179.745 159.602 179.745 159.535 179.812 159.467C179.946 158.997 180.282 158.595 180.618 158.259C181.088 157.789 181.558 157.655 182.028 157.856C182.229 157.99 182.498 158.057 182.766 158.192C183.303 158.393 183.841 158.662 184.109 159.199C184.176 159.333 184.311 159.4 184.378 159.467C184.781 159.803 185.251 160.072 185.721 160.34C185.788 160.408 185.788 160.408 185.855 160.408C185.989 160.408 186.191 160.408 186.325 160.408C186.459 160.408 186.594 160.542 186.728 160.542C186.929 160.542 187.131 160.542 187.265 160.676C187.399 160.743 187.534 160.878 187.668 160.945C187.802 161.012 187.802 161.146 187.802 161.28C187.802 161.549 187.869 161.683 188.205 161.616C188.339 161.616 188.406 161.616 188.406 161.683C188.474 161.75 188.474 161.885 188.541 161.952C188.876 162.22 189.212 162.489 189.615 162.69C189.816 162.758 189.951 162.892 190.085 162.959C190.286 163.026 190.421 163.16 190.488 163.362C190.555 163.563 190.756 163.698 190.958 163.765C191.226 163.832 191.428 163.966 191.562 164.168C191.831 164.369 192.099 164.57 192.368 164.705C192.636 164.839 192.838 164.973 193.039 165.108C193.241 165.242 193.375 165.51 193.711 165.443C193.778 165.443 193.845 165.51 193.912 165.578C193.979 165.712 194.114 165.779 194.181 165.913C194.315 166.048 194.449 166.115 194.584 166.182C194.987 166.182 195.255 166.383 195.457 166.719C195.524 166.853 195.591 166.92 195.658 167.055C195.792 167.323 195.994 167.525 196.262 167.659C196.397 167.726 196.531 167.861 196.665 167.928C196.732 167.928 196.799 167.995 196.799 167.995C196.867 167.995 196.934 167.995 197.001 167.928C197.068 167.861 197.068 167.793 197.068 167.726C197.001 167.525 196.799 167.525 196.598 167.39C196.531 167.323 196.464 167.256 196.531 167.189C196.531 167.122 196.665 167.122 196.799 167.189C196.934 167.256 197.001 167.39 197.135 167.39C197.538 167.525 197.807 167.793 197.874 168.263C197.874 168.465 197.941 168.599 198.075 168.666C198.478 168.868 198.545 169.203 198.478 169.673C198.478 169.741 198.478 169.875 198.478 169.942C198.478 170.076 198.411 170.143 198.277 170.143C198.277 170.143 198.142 170.211 198.142 170.278C198.142 170.546 198.075 170.815 197.739 171.016C197.672 171.016 197.672 171.151 197.605 171.218C197.605 171.419 197.538 171.553 197.538 171.755C197.538 171.889 197.538 172.023 197.538 172.158C197.538 172.292 197.471 172.426 197.404 172.493C197.337 172.561 197.269 172.695 197.202 172.762C197.001 172.963 196.867 173.165 196.799 173.433C196.732 173.568 196.665 173.702 196.531 173.836C196.397 173.971 196.329 174.105 196.061 174.038C195.927 173.971 195.859 174.038 195.725 174.105C195.591 174.172 195.457 174.105 195.255 174.105C195.054 174.105 194.987 174.038 194.852 173.971C194.584 173.702 194.382 173.433 194.114 173.232C193.576 172.762 193.039 172.359 192.502 171.889C192.032 171.553 191.562 171.218 191.159 170.882C190.622 170.479 190.152 170.009 189.548 169.673C189.414 169.606 189.346 169.539 189.279 169.472C188.944 169.203 188.608 168.935 188.272 168.666C187.466 168.129 186.661 167.592 185.922 167.055C185.519 166.786 185.049 166.518 184.646 166.182C184.042 165.779 183.438 165.376 182.766 164.973C181.759 164.436 180.819 163.832 179.812 163.295C179.476 163.093 179.073 162.892 178.738 162.69C178.805 162.422 178.603 162.355 178.469 162.153Z" fill="#1C1C1C"/>
<path d="M194.315 164.906C194.18 164.839 194.113 164.772 194.046 164.705C194.046 164.705 193.979 164.705 193.912 164.772L193.845 164.906C193.912 165.108 194.113 165.242 194.315 165.309C194.315 165.309 194.382 165.309 194.449 165.242C194.449 165.242 194.516 165.108 194.449 165.108C194.449 165.041 194.382 164.973 194.315 164.906Z" fill="#1C1C1C"/>
<path d="M189.01 161.818H189.077L189.01 161.75V161.818Z" fill="#1C1C1C"/>
<path d="M195.859 156.177C195.859 156.244 195.859 156.244 195.926 156.244H195.993C195.993 156.312 195.993 156.312 195.993 156.379C195.993 156.715 196.194 156.983 196.597 156.916C196.731 156.916 196.799 156.983 196.799 157.117C196.799 157.319 196.933 157.453 197.134 157.453C197.201 157.453 197.269 157.587 197.269 157.655C197.403 157.923 197.604 158.057 197.873 158.192C198.074 158.259 198.276 158.393 198.41 158.527C198.679 158.796 199.014 158.997 199.283 159.199L199.216 159.266C199.417 159.132 199.619 159.199 199.753 159.333C200.492 159.87 201.297 160.273 201.969 160.945C202.103 161.079 202.304 161.146 202.506 161.28C202.909 161.549 203.446 161.616 203.782 162.019C203.849 162.086 203.916 162.086 203.916 162.086C204.386 162.153 204.654 162.489 205.057 162.623C205.125 162.623 205.192 162.757 205.259 162.757C205.326 162.757 205.46 162.623 205.527 162.556C205.595 162.489 205.595 162.489 205.662 162.489C205.796 162.422 206.065 162.623 206.065 162.757C205.997 163.026 206.132 163.227 206.266 163.429C206.333 163.563 206.4 163.63 206.467 163.765C206.535 163.832 206.535 163.966 206.4 164.1C206.132 164.436 206.199 164.705 205.997 165.04C205.93 165.108 205.997 165.242 205.93 165.309C205.93 165.51 205.863 165.578 205.662 165.645C205.46 165.712 205.393 165.712 205.393 165.913C205.393 166.182 205.393 166.45 205.259 166.719C205.124 166.988 204.856 167.256 204.722 167.525C204.587 167.793 204.386 168.062 204.252 168.263C204.117 168.532 203.916 168.733 203.58 168.733C203.446 168.733 203.244 168.8 203.043 168.868C202.774 168.935 202.506 168.868 202.372 168.733C201.902 168.398 201.499 167.928 200.894 167.726C200.827 167.726 200.827 167.659 200.827 167.659C200.492 167.323 200.089 167.122 199.686 166.92C199.35 166.786 199.082 166.652 198.947 166.316C198.88 166.249 198.813 166.182 198.746 166.115C198.41 165.913 198.209 165.645 197.739 165.645C197.604 165.645 197.537 165.578 197.47 165.51C197.269 165.376 197.067 165.175 196.866 165.04C196.731 164.906 196.597 164.772 196.597 164.57C196.597 164.302 196.396 164.167 196.127 164.167C195.859 164.235 195.724 164.1 195.657 163.832C195.59 163.63 195.389 163.496 195.254 163.362C195.187 163.295 195.12 163.295 195.053 163.362C194.851 163.429 194.717 163.362 194.583 163.295C194.314 163.093 194.113 162.892 193.844 162.757C193.71 162.69 193.643 162.556 193.643 162.355C193.643 162.086 193.509 162.019 193.307 162.019C192.703 161.885 192.3 161.482 191.897 161.079C191.763 161.012 191.763 160.81 191.763 160.676C191.763 160.475 191.629 160.407 191.427 160.475C191.293 160.542 191.159 160.475 191.159 160.273C191.159 160.072 191.091 159.937 190.89 159.87C190.756 159.803 190.621 159.669 190.554 159.535C190.42 159.333 190.219 159.132 189.95 159.065C189.816 158.997 189.748 158.93 189.681 158.796C189.413 158.393 189.01 158.125 188.607 157.923C188.07 157.722 187.667 157.453 187.264 157.05C187.13 156.916 186.928 156.849 186.794 156.715C186.593 156.513 186.324 156.379 186.19 156.11C185.988 155.842 185.72 155.573 185.451 155.372C185.25 155.17 185.048 154.969 184.847 154.767C184.646 154.566 184.578 154.364 184.78 153.962C184.847 153.76 184.847 153.626 184.847 153.492C184.78 153.29 184.847 153.156 184.981 152.954C185.183 152.686 185.384 152.417 185.586 152.149C185.787 151.88 185.988 151.074 185.988 150.806C185.988 150.672 185.988 150.537 186.123 150.336C186.324 150.067 186.458 149.799 186.391 149.53V149.463C186.391 149.396 186.526 149.329 186.593 149.329C186.794 149.329 186.928 149.396 187.13 149.127C187.197 148.993 187.331 148.859 187.466 148.859C187.6 148.859 187.667 148.926 187.734 148.926C187.801 148.993 187.868 148.993 187.936 149.06C188.204 149.262 188.406 149.463 188.741 149.597C188.876 149.664 188.943 149.732 189.077 149.866C189.144 149.933 189.211 150 189.144 150.202C189.077 150.537 189.211 150.739 189.346 150.873C189.48 151.007 189.614 151.142 189.748 151.343C189.883 151.679 190.151 151.813 190.487 151.88C191.091 152.082 191.494 152.484 191.897 152.954C192.031 153.089 192.099 153.223 192.3 153.29C192.569 153.357 192.703 153.559 192.837 153.76C193.039 154.029 193.24 154.297 193.441 154.499C193.777 154.767 194.113 155.036 194.516 155.237C194.65 155.304 194.717 155.372 194.851 155.506C195.053 155.707 195.254 155.842 195.389 155.976C195.456 156.245 195.657 156.244 195.859 156.177Z" fill="#1C1C1C"/>
<path d="M195.925 156.312C195.992 156.177 195.992 156.177 195.791 156.245C195.925 156.245 195.925 156.245 195.925 156.312Z" fill="#1C1C1C"/>
<path d="M197 156.714L196.933 156.781H197V156.714Z" fill="#1C1C1C"/>
<path d="M108.102 87.3546C108.102 87.3546 189.547 94.539 219.292 101.119C195.389 81.7144 163.294 65.5327 163.294 65.5327L129.923 70.6357L117.703 70.5014L108.102 87.3546Z" fill="#8C6239"/>
<path d="M132.677 69.8971L184.915 77.3501L174.172 58.0126L144.293 53.7153L132.677 69.8971Z" fill="#7C5535"/>
<path fill-rule="evenodd" clip-rule="evenodd" d="M117.569 76.343C117.569 76.343 122.74 80.1702 130.528 73.8586C138.317 67.5471 149.06 52.5739 150.067 47.2695C151.074 41.9652 151.813 40.488 145.904 42.0323C139.996 43.5766 131.334 47.001 127.305 47.001C123.21 46.9338 117.637 52.3725 116.294 55.5954C114.951 58.7512 116.294 55.9983 121.531 54.3197C126.701 52.6411 133.214 54.7225 129.387 63.0484C125.56 71.3743 114.548 75.2687 117.569 76.343Z" fill="#603E26"/>
<path d="M120.188 69.6285C141.943 71.7771 169.405 75.47 186.459 78.4915C211.504 82.8559 223.389 88.026 238.16 96.3518C238.16 96.3518 228.425 89.906 218.084 85.3402C207.744 80.7744 200.425 79.4315 190.555 77.4843C180.685 75.47 141.943 70.4342 131.334 69.6285C127.91 69.3599 123.008 69.0913 117.905 68.8899C119.315 69.3599 120.188 69.6285 120.188 69.6285Z" fill="#A57955"/>
<path d="M128.849 70.5013L141.204 71.9113L137.511 77.0814L113.339 78.1557L120.188 69.6284L128.849 70.5013Z" fill="#8C6239"/>
</g>
<mask id="mask14_796_4147" style="mask-type:alpha" maskUnits="userSpaceOnUse" x="0" y="0" width="300" height="300">
<path d="M150 300C232.843 300 300 232.843 300 150C300 67.1573 232.843 0 150 0C67.1573 0 0 67.1573 0 150C0 232.843 67.1573 300 150 300Z" fill="white"/>
</mask>
<g mask="url(#mask14_796_4147)">
<path d="M256.222 242.323C256.222 242.323 234.937 231.043 232.05 229.902C229.163 228.693 217.816 223.389 214.794 220.099C211.773 216.809 205.394 202.44 203.648 199.015C201.97 195.591 200.895 194.315 204.454 190.488C208.013 186.661 211.504 180.416 213.586 178.335C215.667 176.254 218.689 177.261 218.957 180.954C219.226 184.647 215.667 191.965 216.741 194.584C217.816 197.203 219.763 201.634 221.979 201.5C224.194 201.365 229.969 195.725 230.64 190.22C231.312 184.714 240.98 169.539 240.98 169.539L250.381 168.263C250.381 168.263 252.126 167.458 256.222 169.472C260.318 171.419 275.493 178.469 284.893 198.545C294.293 218.554 294.83 218.286 296.777 221.576C298.792 224.799 282.341 254.745 256.222 242.323Z" fill="url(#paint16_linear_796_4147)"/>
<path d="M229.431 169.606C229.431 169.606 225.335 167.928 222.582 166.249C219.829 164.57 215.532 163.496 211.033 160.877C206.535 158.259 197.067 152.014 194.247 150.269C191.427 148.523 188.473 150.873 189.212 154.767C189.95 158.662 193.039 160.34 193.039 160.34C193.039 160.34 190.42 161.549 190.689 165.846C190.957 170.143 198.612 175.649 199.82 176.858C201.029 178.066 209.019 184.646 209.019 184.646L221.307 181.155L229.431 169.606Z" fill="url(#paint17_linear_796_4147)"/>
<path opacity="0.2" d="M233.661 205.998C233.661 205.998 238.093 204.723 239.973 201.298C240.913 199.217 239.704 195.725 239.973 194.181C240.241 192.637 240.308 191.764 239.838 190.757C239.368 189.749 238.898 189.749 238.093 189.212C237.287 188.675 236.548 188.407 235.608 188.541C234.668 188.742 235.138 190.555 235.81 191.697C236.481 192.838 237.891 194.987 236.616 195.591C235.407 196.195 233.594 196.397 232.721 197.27C231.848 198.075 232.788 204.32 233.661 205.998Z" fill="url(#paint18_linear_796_4147)"/>
<path d="M228.155 169.808C228.155 169.808 222.918 167.995 220.501 169.808C218.017 171.621 216.674 175.918 217.144 179.275C217.614 182.632 222.918 199.485 223.858 202.037C224.865 204.588 225.47 209.02 228.155 209.288C230.908 209.557 234.937 205.864 234.803 202.843C234.735 199.821 233.057 195.121 232.654 192.905C232.251 190.69 232.855 186.459 232.184 182.968C231.513 179.611 228.155 169.808 228.155 169.808Z" fill="url(#paint19_linear_796_4147)"/>
<path d="M232.99 183.706C232.99 183.706 230.304 183.774 229.028 183.706C227.753 183.639 226.007 187.064 223.993 188.675C222.045 190.219 221.374 192.234 220.434 194.852C219.561 197.471 218.957 201.701 214.928 201.298C210.9 200.895 209.758 200.291 210.295 197.404C210.9 194.45 213.72 183.975 214.995 181.894C216.271 179.812 220.568 175.448 223.12 172.896C225.671 170.345 227.551 169.539 231.379 169.539C235.206 169.539 240.846 169.606 240.846 169.606C240.846 169.606 236.079 181.021 232.99 183.706Z" fill="url(#paint20_linear_796_4147)"/>
<path opacity="0.2" d="M193.039 160.407C193.039 160.407 202.573 169.338 206.266 171.621C209.959 173.903 216.674 177.328 216.674 177.328L215.666 177.731C215.666 177.731 207.878 173.568 203.581 170.412C199.283 167.256 192.435 160.81 192.435 160.81L193.039 160.407Z" fill="url(#paint21_linear_796_4147)"/>
</g>
<mask id="mask15_796_4147" style="mask-type:alpha" maskUnits="userSpaceOnUse" x="0" y="0" width="300" height="300">
<path d="M150 300C232.843 300 300 232.843 300 150C300 67.1573 232.843 0 150 0C67.1573 0 0 67.1573 0 150C0 232.843 67.1573 300 150 300Z" fill="white"/>
</mask>
<g mask="url(#mask15_796_4147)">
<path d="M40.488 242.189C40.488 242.189 61.7727 230.909 64.6599 229.767C67.5471 228.559 78.8945 223.254 81.916 219.964C84.9375 216.674 91.3162 202.305 93.0619 198.881C94.8076 195.457 95.8148 194.181 92.2562 190.354C88.6975 186.526 85.206 180.282 83.1246 178.201C81.0431 176.119 78.0216 177.126 77.753 180.819C77.4845 184.512 81.0431 191.831 79.9688 194.449C78.8945 197.068 76.9473 201.5 74.7316 201.365C72.5158 201.231 66.7414 195.591 66.07 190.085C65.3985 184.579 55.7298 169.405 55.7298 169.405L46.3296 168.129C46.3296 168.129 44.5838 167.323 40.488 169.337C36.3923 171.352 21.2177 178.335 11.8175 198.411C2.41732 218.487 1.88017 218.084 -0.134154 221.374C-2.08133 224.664 14.369 254.611 40.488 242.189Z" fill="url(#paint22_linear_796_4147)"/>
<path d="M67.2783 169.472C67.2783 169.472 71.3741 167.793 74.127 166.115C76.8799 164.436 81.1772 163.362 85.6758 160.743C90.1745 158.124 99.6418 151.88 102.462 150.134C105.282 148.388 108.236 150.738 107.498 154.633C106.692 158.527 103.67 160.206 103.67 160.206C103.67 160.206 106.289 161.414 106.02 165.712C105.752 170.009 98.0975 175.515 96.8889 176.723C95.6803 177.932 87.6901 184.512 87.6901 184.512L75.4028 181.02L67.2783 169.472Z" fill="url(#paint23_linear_796_4147)"/>
<path opacity="0.2" d="M63.0478 205.931C63.0478 205.931 58.6163 204.655 56.7362 201.231C55.7962 199.149 57.0048 195.658 56.7362 194.114C56.4676 192.569 56.4005 191.696 56.8705 190.689C57.3405 189.682 57.8105 189.682 58.6163 189.145C59.422 188.608 60.1606 188.339 61.1006 188.473C62.0406 188.675 61.5706 190.488 60.8992 191.629C60.2949 192.838 58.8177 194.919 60.0934 195.524C61.3692 196.128 63.1149 196.329 63.9878 197.202C64.8607 198.008 63.9206 204.185 63.0478 205.931Z" fill="url(#paint24_linear_796_4147)"/>
<path d="M68.5548 169.673C68.5548 169.673 73.7921 167.86 76.2093 169.673C78.6936 171.486 80.0365 175.783 79.5665 179.14C79.0965 182.498 73.7921 199.351 72.8521 201.902C71.912 204.454 71.2406 208.885 68.5548 209.154C65.8019 209.422 61.7733 205.73 61.9076 202.708C61.9747 199.687 63.6533 194.986 64.0562 192.771C64.459 190.622 63.8548 186.325 64.5262 182.833C65.2648 179.476 68.5548 169.673 68.5548 169.673Z" fill="url(#paint25_linear_796_4147)"/>
<path d="M63.7191 183.572C63.7191 183.572 66.4049 183.639 67.6806 183.572C68.9564 183.505 70.7021 186.929 72.7165 188.541C74.6636 190.085 75.3351 192.099 76.2751 194.718C77.148 197.336 77.7523 201.567 81.7809 201.164C85.8096 200.761 86.951 200.157 86.4139 197.269C85.8096 194.315 82.9895 183.841 81.7138 181.759C80.438 179.678 76.1408 175.313 73.5893 172.762C71.0379 170.21 69.1578 169.405 65.3306 169.405C61.5034 169.405 55.8633 169.472 55.8633 169.472C55.8633 169.472 60.6977 180.886 63.7191 183.572Z" fill="url(#paint26_linear_796_4147)"/>
<path opacity="0.2" d="M103.738 160.273C103.738 160.273 94.2038 169.203 90.5109 171.486C86.8179 173.769 80.1035 177.193 80.1035 177.193L81.1107 177.596C81.1107 177.596 88.8994 173.433 93.1966 170.277C97.4938 167.122 104.343 160.676 104.343 160.676L103.738 160.273Z" fill="url(#paint27_linear_796_4147)"/>
</g>
<defs>
<linearGradient id="paint0_linear_796_4147" x1="147.771" y1="251.305" x2="147.771" y2="185.15" gradientUnits="userSpaceOnUse">
<stop stop-color="#935848"/>
<stop offset="0.0715561" stop-color="#9C604E"/>
<stop offset="0.1613" stop-color="#A16552"/>
<stop offset="0.2671" stop-color="#8C4E40"/>
<stop offset="0.5146" stop-color="#8C4E40"/>
<stop offset="1" stop-color="#7C3C2F"/>
</linearGradient>
<linearGradient id="paint1_linear_796_4147" x1="139.606" y1="242.775" x2="158.978" y2="182.559" gradientUnits="userSpaceOnUse">
<stop stop-color="#935848"/>
<stop offset="0.0715561" stop-color="#9C604E"/>
<stop offset="0.1613" stop-color="#A16552"/>
<stop offset="0.2671" stop-color="#8C4E40"/>
<stop offset="0.5146" stop-color="#8C4E40"/>
<stop offset="1" stop-color="#7C3C2F"/>
</linearGradient>
<linearGradient id="paint2_linear_796_4147" x1="166.325" y1="91.2013" x2="155.841" y2="67.3086" gradientUnits="userSpaceOnUse">
<stop offset="0.00247105" stop-color="#161F2D"/>
<stop offset="0.8054" stop-color="#1E293A"/>
</linearGradient>
<linearGradient id="paint3_linear_796_4147" x1="205.404" y1="125.644" x2="229.863" y2="125.059" gradientUnits="userSpaceOnUse">
<stop stop-color="#E7BC91"/>
<stop offset="0.3993" stop-color="#F3D5B5"/>
<stop offset="0.6602" stop-color="#F5DCB4"/>
<stop offset="1" stop-color="#F5DCB4"/>
</linearGradient>
<linearGradient id="paint4_linear_796_4147" x1="94.7698" y1="128.305" x2="64.4645" y2="128.748" gradientUnits="userSpaceOnUse">
<stop stop-color="#E7BC91"/>
<stop offset="0.3993" stop-color="#F3D5B5"/>
<stop offset="0.6602" stop-color="#F5DCB4"/>
<stop offset="1" stop-color="#F5DCB4"/>
</linearGradient>
<linearGradient id="paint5_linear_796_4147" x1="150.736" y1="111.985" x2="152.024" y2="199.326" gradientUnits="userSpaceOnUse">
<stop stop-color="#E7BC91"/>
<stop offset="0.3993" stop-color="#F3D5B5"/>
<stop offset="0.6602" stop-color="#F5DCB4"/>
<stop offset="0.7034" stop-color="#F4DAB2"/>
<stop offset="1" stop-color="#EFD3AB"/>
</linearGradient>
<radialGradient id="paint6_radial_796_4147" cx="0" cy="0" r="1" gradientUnits="userSpaceOnUse" gradientTransform="translate(151.66 184.302) rotate(-1.37197) scale(29.3395 29.3395)">
<stop offset="0.4947" stop-color="#3A2E2E"/>
<stop offset="0.8105" stop-color="#4C3B3B"/>
<stop offset="1" stop-color="#4E3F3F"/>
</radialGradient>
<radialGradient id="paint7_radial_796_4147" cx="0" cy="0" r="1" gradientUnits="userSpaceOnUse" gradientTransform="translate(152.512 179.896) rotate(179.449) scale(18.3822 9.8106)">
<stop stop-color="#E6646E"/>
<stop offset="0.4503" stop-color="#DD4E6D"/>
<stop offset="1" stop-color="#E6646E"/>
</radialGradient>
<linearGradient id="paint8_linear_796_4147" x1="83.0141" y1="115.584" x2="229.223" y2="151.823" gradientUnits="userSpaceOnUse">
<stop stop-color="#A16552"/>
<stop offset="0.201" stop-color="#935848"/>
<stop offset="0.504" stop-color="#935848"/>
<stop offset="0.6028" stop-color="#9C604E"/>
<stop offset="0.7268" stop-color="#A16552"/>
<stop offset="1" stop-color="#966444"/>
</linearGradient>
<linearGradient id="paint9_linear_796_4147" x1="149.284" y1="155.31" x2="141.508" y2="151.677" gradientUnits="userSpaceOnUse">
<stop offset="0.4947" stop-color="#3A2E2E"/>
<stop offset="0.8105" stop-color="#4C3B3B"/>
<stop offset="1" stop-color="#4E3F3F"/>
</linearGradient>
<linearGradient id="paint10_linear_796_4147" x1="153.709" y1="155.268" x2="161.552" y2="151.21" gradientUnits="userSpaceOnUse">
<stop offset="0.4947" stop-color="#3A2E2E"/>
<stop offset="0.8105" stop-color="#4C3B3B"/>
<stop offset="1" stop-color="#4E3F3F"/>
</linearGradient>
<linearGradient id="paint11_linear_796_4147" x1="127.83" y1="125.559" x2="132.537" y2="141.696" gradientUnits="userSpaceOnUse">
<stop offset="0.4947" stop-color="#3A2E2E"/>
<stop offset="0.8105" stop-color="#4C3B3B"/>
<stop offset="1" stop-color="#4E3F3F"/>
</linearGradient>
<radialGradient id="paint12_radial_796_4147" cx="0" cy="0" r="1" gradientUnits="userSpaceOnUse" gradientTransform="translate(134.424 126.424) rotate(-1.37197) scale(8.64751 8.64751)">
<stop stop-color="#5D5360"/>
<stop offset="1" stop-color="#5D5360" stop-opacity="0.4"/>
</radialGradient>
<linearGradient id="paint13_linear_796_4147" x1="79.446" y1="144.237" x2="162.657" y2="128.729" gradientUnits="userSpaceOnUse">
<stop stop-color="#4E3F3F"/>
<stop offset="0.1436" stop-color="#4E3F3F" stop-opacity="0.7"/>
<stop offset="0.7306" stop-color="#4E3F3F" stop-opacity="0.2"/>
<stop offset="1" stop-color="#4E3F3F" stop-opacity="0"/>
</linearGradient>
<linearGradient id="paint14_linear_796_4147" x1="169.632" y1="124.33" x2="174.338" y2="140.467" gradientUnits="userSpaceOnUse">
<stop offset="0.4947" stop-color="#3A2E2E"/>
<stop offset="0.8105" stop-color="#4C3B3B"/>
<stop offset="1" stop-color="#4E3F3F"/>
</linearGradient>
<radialGradient id="paint15_radial_796_4147" cx="0" cy="0" r="1" gradientUnits="userSpaceOnUse" gradientTransform="translate(176.225 125.194) rotate(-1.37197) scale(8.64753 8.64751)">
<stop stop-color="#5D5360"/>
<stop offset="1" stop-color="#5D5360" stop-opacity="0.4"/>
</radialGradient>
<linearGradient id="paint16_linear_796_4147" x1="259.702" y1="242" x2="208.68" y2="74.412" gradientUnits="userSpaceOnUse">
<stop stop-color="#935848"/>
<stop offset="0.0715561" stop-color="#9C604E"/>
<stop offset="0.1613" stop-color="#A16552"/>
<stop offset="0.2671" stop-color="#8C4E40"/>
<stop offset="0.5146" stop-color="#8C4E40"/>
<stop offset="1" stop-color="#7C3C2F"/>
</linearGradient>
<linearGradient id="paint17_linear_796_4147" x1="179.042" y1="151.716" x2="274.61" y2="212.157" gradientUnits="userSpaceOnUse">
<stop stop-color="#935848"/>
<stop offset="0.0715561" stop-color="#9C604E"/>
<stop offset="0.1613" stop-color="#A16552"/>
<stop offset="0.5099" stop-color="#8C4E40"/>
<stop offset="1" stop-color="#7C3C2F"/>
</linearGradient>
<linearGradient id="paint18_linear_796_4147" x1="235.518" y1="188.719" x2="237.48" y2="206.528" gradientUnits="userSpaceOnUse">
<stop stop-color="#4E3F3F"/>
<stop offset="0.1436" stop-color="#4E3F3F" stop-opacity="0.7"/>
<stop offset="0.7306" stop-color="#4E3F3F" stop-opacity="0.2"/>
<stop offset="1" stop-color="#4E3F3F" stop-opacity="0"/>
</linearGradient>
<linearGradient id="paint19_linear_796_4147" x1="210.908" y1="150.114" x2="227.392" y2="189.754" gradientUnits="userSpaceOnUse">
<stop stop-color="#935848"/>
<stop offset="0.0715561" stop-color="#9C604E"/>
<stop offset="0.1613" stop-color="#A16552"/>
<stop offset="0.2671" stop-color="#8C4E40"/>
<stop offset="0.3608" stop-color="#8C4E40"/>
<stop offset="1" stop-color="#7C3C2F"/>
</linearGradient>
<linearGradient id="paint20_linear_796_4147" x1="276.636" y1="173.159" x2="182.834" y2="194.483" gradientUnits="userSpaceOnUse">
<stop stop-color="#935848"/>
<stop offset="0.0715561" stop-color="#9C604E"/>
<stop offset="0.1613" stop-color="#A16552"/>
<stop offset="0.2671" stop-color="#8C4E40"/>
<stop offset="0.5146" stop-color="#8C4E40"/>
<stop offset="1" stop-color="#7C3C2F"/>
</linearGradient>
<linearGradient id="paint21_linear_796_4147" x1="203.489" y1="159.431" x2="205.738" y2="179.838" gradientUnits="userSpaceOnUse">
<stop stop-color="#4E3F3F"/>
<stop offset="0.1436" stop-color="#4E3F3F" stop-opacity="0.7"/>
<stop offset="0.7306" stop-color="#4E3F3F" stop-opacity="0.2"/>
<stop offset="1" stop-color="#4E3F3F" stop-opacity="0"/>
</linearGradient>
<linearGradient id="paint22_linear_796_4147" x1="37.0226" y1="241.881" x2="88.0446" y2="74.2927" gradientUnits="userSpaceOnUse">
<stop stop-color="#935848"/>
<stop offset="0.0715561" stop-color="#9C604E"/>
<stop offset="0.1613" stop-color="#A16552"/>
<stop offset="0.2671" stop-color="#8C4E40"/>
<stop offset="0.5146" stop-color="#8C4E40"/>
<stop offset="1" stop-color="#7C3C2F"/>
</linearGradient>
<linearGradient id="paint23_linear_796_4147" x1="117.681" y1="151.596" x2="22.1132" y2="212.038" gradientUnits="userSpaceOnUse">
<stop stop-color="#935848"/>
<stop offset="0.0715561" stop-color="#9C604E"/>
<stop offset="0.1613" stop-color="#A16552"/>
<stop offset="0.5099" stop-color="#8C4E40"/>
<stop offset="1" stop-color="#7C3C2F"/>
</linearGradient>
<linearGradient id="paint24_linear_796_4147" x1="61.2058" y1="188.6" x2="59.2434" y2="206.408" gradientUnits="userSpaceOnUse">
<stop stop-color="#4E3F3F"/>
<stop offset="0.1436" stop-color="#4E3F3F" stop-opacity="0.7"/>
<stop offset="0.7306" stop-color="#4E3F3F" stop-opacity="0.2"/>
<stop offset="1" stop-color="#4E3F3F" stop-opacity="0"/>
</linearGradient>
<linearGradient id="paint25_linear_796_4147" x1="85.8164" y1="149.994" x2="69.3323" y2="189.635" gradientUnits="userSpaceOnUse">
<stop stop-color="#935848"/>
<stop offset="0.0715561" stop-color="#9C604E"/>
<stop offset="0.1613" stop-color="#A16552"/>
<stop offset="0.2671" stop-color="#8C4E40"/>
<stop offset="0.3608" stop-color="#8C4E40"/>
<stop offset="1" stop-color="#7C3C2F"/>
</linearGradient>
<linearGradient id="paint26_linear_796_4147" x1="20.0875" y1="173.04" x2="113.89" y2="194.364" gradientUnits="userSpaceOnUse">
<stop stop-color="#935848"/>
<stop offset="0.0715561" stop-color="#9C604E"/>
<stop offset="0.1613" stop-color="#A16552"/>
<stop offset="0.2671" stop-color="#8C4E40"/>
<stop offset="0.5146" stop-color="#8C4E40"/>
<stop offset="1" stop-color="#7C3C2F"/>
</linearGradient>
<linearGradient id="paint27_linear_796_4147" x1="93.2354" y1="159.312" x2="90.9868" y2="179.718" gradientUnits="userSpaceOnUse">
<stop stop-color="#4E3F3F"/>
<stop offset="0.1436" stop-color="#4E3F3F" stop-opacity="0.7"/>
<stop offset="0.7306" stop-color="#4E3F3F" stop-opacity="0.2"/>
<stop offset="1" stop-color="#4E3F3F" stop-opacity="0"/>
</linearGradient>
</defs>
</svg>
