<svg width="312" height="319" viewBox="0 0 312 319" fill="none" xmlns="http://www.w3.org/2000/svg">
<path d="M11.0213 127.335C12.2213 200.935 89.1879 227.668 127.521 231.835C320.021 249.335 336.521 20.335 212.021 3.33495C87.5213 -13.665 9.52125 35.335 11.0213 127.335Z" fill="#F1EADA"/>
<path d="M116.75 301.902C76.627 301.341 56.7838 298.72 44.2414 286.489C31.699 274.259 37.8142 270.64 53.4766 263.776C69.0766 256.912 94.9102 244.681 128.669 243.995C162.427 243.309 195.561 247.739 200.241 248.425C204.921 249.112 232.003 256.475 236.621 275.257C241.238 294.102 167.856 302.651 116.75 301.902Z" fill="#938982"/>
<path d="M203.049 267.208C204.921 257.162 205.67 251.234 200.179 248.488C196.685 247.989 177.029 245.306 153.067 244.307C147.264 244.12 141.523 243.995 136.344 243.933C133.785 243.933 131.165 243.933 128.606 243.995C123.677 244.245 109.013 245.243 99.7149 250.298C88.1085 256.538 81.7437 269.142 73.0701 273.323C66.4557 276.568 48.6717 279.688 44.9277 287.176C57.4701 298.782 77.3757 301.341 116.75 301.902C149.323 302.339 190.944 299.094 215.592 291.731C218.337 284.805 201.053 278.003 203.049 267.208Z" fill="#C2A981"/>
<path opacity="0.1" d="M114.13 248.862C114.13 248.862 99.0914 248.738 92.6018 256.538C86.1746 264.275 80.7458 267.021 83.3666 276.006C85.925 284.992 113.381 291.419 142.147 286.677C170.914 281.934 179.775 284.306 190.944 274.197C202.114 264.088 197.995 256.974 193.627 254.603C189.259 252.232 177.029 249.611 162.989 250.36C149.011 251.171 114.13 248.862 114.13 248.862Z" fill="black"/>
<path d="M209.664 265.96C208.353 264.587 206.98 262.965 207.604 261.966C208.228 260.968 210.038 256.538 210.537 255.851C211.036 255.227 212.472 254.042 213.782 254.042C215.092 254.042 218.4 254.104 222.081 254.915C225.763 255.726 228.446 259.97 229.32 261.904C230.193 263.901 230.755 268.082 227.51 268.643C224.265 269.205 223.142 268.394 217.089 269.08C211.099 269.766 211.286 267.645 209.664 265.96Z" fill="#AFAFAF"/>
<path opacity="0.3" d="M207.48 262.466C207.48 262.466 209.476 263.526 210.038 264.837C210.6 266.147 210.849 267.52 214.094 267.083C217.339 266.646 218.025 267.083 219.398 265.523C220.771 263.963 223.267 263.838 224.078 265.149C224.889 266.459 227.635 266.272 228.072 266.085C228.508 265.898 229.756 266.272 229.881 266.896C230.006 267.52 229.008 268.269 229.132 269.142C229.257 270.016 229.257 270.266 228.134 270.453C226.948 270.64 221.707 270.203 218.712 270.765C215.716 271.326 214.344 270.765 212.784 270.328C211.224 269.954 210.35 268.269 209.726 267.27C209.102 266.272 207.854 263.714 207.729 263.339C207.48 262.84 207.105 262.466 207.48 262.466Z" fill="black"/>
<path d="M209.789 278.378C208.915 277.254 210.226 276.443 211.037 276.381C211.848 276.318 212.784 277.317 212.597 277.816C212.472 278.315 211.536 278.69 211.099 278.627C210.662 278.565 210.101 278.752 209.789 278.378Z" fill="#8C9DA5"/>
<path opacity="0.3" d="M209.602 278.128C209.54 278.003 210.039 278.378 210.164 278.44C210.288 278.44 210.538 278.44 210.85 278.378C211.162 278.378 211.162 278.502 211.412 278.44C211.661 278.315 212.285 278.19 212.285 278.19C212.285 278.19 212.16 278.378 211.911 278.565C211.661 278.69 211.349 278.877 211.1 278.877C210.85 278.877 210.413 278.877 210.226 278.877C210.039 278.877 209.789 278.69 209.727 278.565C209.664 278.44 209.602 278.128 209.602 278.128Z" fill="black"/>
<path opacity="0.3" d="M53.1649 264.462C53.1649 264.462 54.7249 264.088 55.9105 264.837C57.0961 265.586 56.1601 265.835 57.4081 265.898C58.6561 265.96 59.7169 265.586 61.0897 265.898C62.4625 266.21 63.8353 266.397 64.8337 266.21C65.8321 266.022 66.7681 266.584 67.5793 265.586C68.3905 264.587 69.0145 262.965 69.6385 262.403C70.2001 261.904 71.4481 261.155 72.1969 260.968C72.9457 260.781 75.5041 259.096 75.9409 258.909C76.4401 258.784 78.0625 257.786 78.1249 257.661C78.2497 257.536 77.9377 258.41 77.1265 258.971C76.3153 259.533 74.8801 259.907 74.6929 260.094C74.5057 260.282 72.0721 261.592 71.6977 262.091C71.3233 262.528 69.8881 263.838 69.4513 264.4C69.0145 264.962 67.3921 266.709 66.8929 266.896C66.3937 267.083 65.2705 266.958 64.3969 267.146C63.5233 267.333 62.2129 267.894 61.5889 268.206C60.9649 268.518 58.5937 268.269 57.7201 268.518C56.8465 268.768 54.3505 268.706 54.0385 267.832C53.7265 266.958 52.8529 264.712 53.1649 264.462Z" fill="black"/>
<path d="M73.1948 283.058C75.5036 282.87 76.0028 281.934 81.1196 282.87C86.174 283.806 88.6076 283.931 83.9276 287.051C79.2476 290.109 75.878 291.731 74.006 290.296C72.134 288.861 67.0172 283.494 73.1948 283.058Z" fill="#B2956B"/>
<path opacity="0.1" d="M71.3857 287.613C71.3857 287.613 72.9457 289.048 73.4449 289.485C73.9441 289.859 74.3185 290.296 75.5041 290.358C76.6897 290.421 78.8113 289.797 79.4977 289.422C80.1217 289.048 85.8625 285.678 85.8625 285.678C85.8625 285.678 84.4273 287.363 83.5537 288.05C82.6801 288.736 79.2481 290.733 78.2497 291.045C77.2513 291.357 76.1905 291.482 75.0049 291.294C73.8193 291.107 73.3825 290.483 73.1953 290.046C73.0081 289.61 71.3857 287.613 71.3857 287.613Z" fill="black"/>
<path d="M188.198 258.222C188.573 257.723 188.51 257.037 190.008 257.286C191.443 257.536 192.067 257.598 192.192 258.222C192.254 258.784 192.504 259.782 191.63 259.907C190.757 260.032 189.01 259.845 188.635 259.533C188.261 259.221 188.011 258.534 188.198 258.222Z" fill="#B2956B"/>
<path d="M181.147 253.168C181.647 252.731 182.583 251.109 184.767 251.546C186.951 251.982 187.45 252.17 187.387 252.981C187.325 253.792 187.699 255.29 186.639 255.539C185.64 255.851 182.832 257.037 182.146 256.787C181.459 256.475 179.525 254.603 181.147 253.168Z" fill="#B2956B"/>
<path opacity="0.1" d="M188.136 258.659C188.136 258.534 188.448 259.283 188.822 259.346C189.197 259.47 189.883 259.658 190.507 259.595C191.131 259.533 191.505 259.346 191.755 259.346C192.005 259.346 192.129 259.346 192.129 259.346C192.192 259.346 192.192 259.595 192.067 259.782C191.942 259.97 191.755 260.032 191.381 260.157C191.006 260.282 190.32 260.094 190.008 260.094C189.696 260.094 188.947 259.907 188.51 259.72C188.261 259.595 188.136 258.909 188.136 258.659Z" fill="black"/>
<path opacity="0.1" d="M180.586 254.915C180.586 254.915 181.148 255.477 181.522 255.602C181.896 255.726 181.834 255.414 182.52 255.602C183.207 255.789 182.77 256.101 183.644 256.038C184.58 255.976 186.077 255.602 186.389 255.477C186.701 255.352 187.263 254.978 187.388 254.541C187.45 254.104 187.45 255.102 187.325 255.414C187.2 255.726 186.14 255.976 185.89 256.101C185.578 256.288 183.893 256.725 183.519 256.912C183.144 257.099 182.146 257.037 181.772 256.912C181.46 256.787 180.711 255.602 180.648 255.352C180.586 255.04 180.586 254.915 180.586 254.915Z" fill="black"/>
<path d="M268.258 234.698C270.255 233.762 272.127 232.514 273.999 230.829C275.684 229.331 275.871 226.773 274.373 225.088C272.876 223.403 270.317 223.216 268.632 224.714C264.264 228.52 260.271 229.269 255.404 227.147C250.474 225.026 245.482 220.283 240.615 215.728C233.439 208.989 226.637 202.562 218.9 202.811C215.093 202.936 211.536 204.683 208.416 208.053C203.674 213.17 198.183 217.038 192.504 219.222C187.076 221.344 182.021 221.718 177.84 220.346C169.728 217.662 167.045 208.864 166.234 202C165.984 199.754 163.988 198.194 161.741 198.443C159.495 198.693 157.935 200.69 158.184 202.936C158.933 209.613 160.868 215.166 163.863 219.472C166.796 223.653 170.664 226.586 175.282 228.083C181.272 230.08 188.261 229.581 195.437 226.773C202.239 224.152 208.791 219.534 214.344 213.544C215.967 211.797 217.527 210.923 219.149 210.861C223.517 210.736 229.383 216.227 235.061 221.531C240.428 226.586 245.981 231.765 252.159 234.51C257.775 237.006 263.141 237.069 268.258 234.698Z" fill="#9F6552"/>
<path d="M196.685 217.288C197.246 216.976 197.808 216.664 198.369 216.352C197.745 216.664 197.184 216.976 196.685 217.288Z" fill="#9F6552"/>
<path d="M163.238 198.568C163.488 198.631 163.737 198.755 163.987 198.88C163.737 198.755 163.55 198.631 163.238 198.568Z" fill="#9F6552"/>
<path d="M161.679 198.443C162.115 198.381 162.49 198.381 162.927 198.506C162.49 198.443 162.053 198.381 161.679 198.443C161.429 198.443 161.242 198.506 160.992 198.568C161.179 198.506 161.429 198.506 161.679 198.443Z" fill="#9F6552"/>
<path d="M208.354 208.053C208.728 207.616 209.165 207.242 209.54 206.867C209.165 207.242 208.791 207.616 208.354 208.053C205.983 210.611 203.424 212.858 200.741 214.73C203.424 212.858 205.983 210.611 208.354 208.053Z" fill="#9F6552"/>
<path d="M159.619 199.254C159.432 199.379 159.307 199.504 159.183 199.691C159.307 199.566 159.495 199.442 159.619 199.254Z" fill="#9F6552"/>
<path d="M158.06 202.25C158.06 202.063 158.122 201.875 158.122 201.688V201.626C158.122 201.813 158.06 202 158.06 202.25Z" fill="#9F6552"/>
<path d="M159.682 199.254C159.869 199.13 159.994 199.005 160.181 198.942C160.056 199.005 159.869 199.13 159.682 199.254Z" fill="#9F6552"/>
<path d="M160.306 198.88C160.493 198.818 160.68 198.693 160.867 198.63C160.68 198.693 160.493 198.755 160.306 198.88Z" fill="#9F6552"/>
<path d="M261.393 228.271C261.144 228.271 260.832 228.333 260.582 228.333C260.894 228.333 261.144 228.333 261.393 228.271Z" fill="#9F6552"/>
<path d="M158.371 200.877C158.308 201.064 158.246 201.251 158.184 201.501V201.439C158.246 201.314 158.246 201.127 158.308 201.002C158.371 201.002 158.371 200.939 158.371 200.877Z" fill="#9F6552"/>
<path d="M261.394 228.27C262.205 228.208 263.016 228.021 263.827 227.709C263.016 228.021 262.205 228.208 261.394 228.27Z" fill="#9F6552"/>
<path d="M240.677 215.728C240.615 215.728 240.615 215.728 240.677 215.728C239.741 214.854 238.805 213.981 237.932 213.17C238.805 213.981 239.679 214.854 240.677 215.728C240.615 215.728 240.615 215.728 240.677 215.728Z" fill="#9F6552"/>
<path d="M242.361 217.35C242.673 217.662 242.985 217.974 243.36 218.286C243.048 217.974 242.673 217.662 242.361 217.35Z" fill="#9F6552"/>
<path d="M229.258 206.181C229.944 206.618 230.568 207.054 231.255 207.554C230.631 207.054 229.944 206.618 229.258 206.181Z" fill="#9F6552"/>
<path d="M225.202 203.997C223.392 203.248 221.52 202.811 219.586 202.749C221.52 202.811 223.392 203.248 225.202 203.997Z" fill="#9F6552"/>
<path d="M225.202 203.997C226.325 204.434 227.449 205.058 228.572 205.744C227.449 205.058 226.325 204.496 225.202 203.997Z" fill="#9F6552"/>
<path d="M232.627 208.552C233.313 209.051 233.937 209.613 234.624 210.174C233.937 209.675 233.251 209.114 232.627 208.552Z" fill="#9F6552"/>
<path d="M275.371 228.395C275.371 228.458 275.308 228.582 275.308 228.645C275.308 228.707 275.308 228.77 275.246 228.832C275.308 228.645 275.308 228.52 275.371 228.395Z" fill="#9F6552"/>
<path d="M158.746 200.253C158.871 200.066 158.996 199.878 159.12 199.754C158.996 199.878 158.871 200.066 158.746 200.253Z" fill="#9F6552"/>
<path opacity="0.35" d="M275.121 229.269C275.184 229.144 275.246 228.957 275.246 228.832C275.246 228.77 275.246 228.707 275.309 228.645C275.309 228.52 275.371 228.458 275.371 228.333C275.371 228.271 275.371 228.146 275.371 228.083C275.371 228.021 275.371 227.896 275.371 227.834C275.371 227.771 275.371 227.647 275.371 227.584C275.371 227.522 275.371 227.397 275.371 227.335C275.371 227.21 275.371 227.147 275.309 227.023C275.309 226.96 275.309 226.898 275.246 226.835C275.246 226.711 275.184 226.648 275.184 226.523C275.184 226.461 275.121 226.399 275.121 226.336C275.059 226.211 275.059 226.149 274.997 226.024C274.997 225.962 274.934 225.899 274.934 225.837C274.872 225.712 274.809 225.65 274.747 225.525C274.622 225.712 274.435 225.837 274.31 226.024C272.438 227.647 270.504 228.957 268.569 229.893C263.453 232.264 258.086 232.264 252.47 229.831C246.293 227.147 240.739 221.906 235.373 216.851C229.694 211.547 223.829 206.992 219.461 207.179C217.838 207.242 216.278 208.115 214.656 209.863C209.102 215.853 202.55 220.408 195.749 223.091C188.573 225.899 181.584 226.336 175.593 224.402C170.913 222.842 167.045 219.971 164.174 215.791C161.553 211.984 159.744 206.243 158.87 200.565C158.808 200.69 158.683 200.815 158.621 201.002C158.621 201.064 158.558 201.127 158.558 201.189C158.496 201.314 158.433 201.501 158.433 201.626C158.433 201.688 158.371 201.751 158.371 201.813C158.309 202 158.309 202.187 158.309 202.375C158.309 202.624 158.309 202.874 158.309 203.123C159.057 209.8 160.992 215.354 163.987 219.659C166.92 223.84 170.789 226.773 175.406 228.271C181.397 230.267 188.385 229.768 195.561 226.96C202.363 224.339 208.915 219.722 214.469 213.731C216.091 211.984 217.651 211.111 219.273 211.048C223.641 210.923 229.507 216.415 235.185 221.719C240.552 226.773 246.105 231.952 252.283 234.698C257.899 237.131 263.265 237.194 268.382 234.76C270.379 233.824 272.251 232.576 274.123 230.891C274.497 230.392 274.872 229.831 275.121 229.269Z" fill="#4E3F3F"/>
<path d="M275.122 229.269C275.184 229.144 275.247 229.019 275.247 228.832C275.184 229.019 275.122 229.144 275.122 229.269Z" fill="#9F6552"/>
<path d="M274.747 225.65C274.809 225.712 274.809 225.774 274.872 225.837C274.872 225.899 274.934 225.899 274.934 225.962C274.872 225.837 274.809 225.712 274.747 225.65Z" fill="#9F6552"/>
<path d="M274.685 225.525C274.623 225.4 274.498 225.213 274.373 225.088C273.999 224.651 273.562 224.339 273.062 224.09C273.562 224.339 273.999 224.651 274.373 225.088C274.498 225.213 274.623 225.338 274.685 225.525Z" fill="#9F6552"/>
<path d="M274.997 226.086C274.997 226.149 275.059 226.211 275.059 226.274C275.059 226.336 275.122 226.336 275.122 226.398C275.122 226.274 275.059 226.211 274.997 226.086Z" fill="#9F6552"/>
<path d="M158.434 200.814C158.496 200.69 158.558 200.502 158.621 200.378C158.621 200.315 158.683 200.253 158.683 200.19C158.621 200.44 158.496 200.627 158.434 200.814Z" fill="#9F6552"/>
<path d="M274.935 225.962C274.997 225.962 274.997 226.024 274.935 225.962C274.997 226.024 274.997 225.962 274.935 225.962Z" fill="#9F6552"/>
<path d="M275.122 226.398V226.461C275.122 226.461 275.122 226.523 275.184 226.523C275.184 226.523 275.184 226.461 275.122 226.398Z" fill="#9F6552"/>
<path d="M275.308 227.085C275.308 226.96 275.246 226.835 275.246 226.71C275.246 226.773 275.246 226.773 275.246 226.835C275.246 226.898 275.308 226.96 275.308 227.022C275.308 227.022 275.308 227.022 275.308 227.085Z" fill="#9F6552"/>
<path d="M68.7021 232.763C68.7021 232.763 80.8702 201.251 86.923 194.387C94.5982 190.082 108.389 198.443 108.389 198.443C108.389 198.443 95.1597 222.717 84.8013 236.133C74.4429 249.549 68.7021 232.763 68.7021 232.763Z" fill="url(#paint0_linear_796_4150)"/>
<path d="M87.4851 133.11C87.4851 133.11 84.5523 138.477 83.9907 140.91C83.4291 143.344 84.9267 169.677 85.1139 175.605C85.3011 181.533 85.6131 178.35 84.3651 180.597C83.1171 182.843 82.5555 185.09 83.0547 187.211C83.5539 189.333 83.1795 191.33 82.8675 192.952C82.5555 194.574 87.9219 196.696 93.4755 197.07C99.0291 197.382 109.387 198.63 109.887 199.13C110.448 199.629 110.947 191.454 110.947 191.454L102.149 158.507L92.9763 134.234L87.4851 133.11Z" fill="#777548"/>
<path d="M131.664 121.317L98.5918 135.606L99.091 149.896L112.445 154.264L128.856 138.602C128.856 138.602 132.413 125.186 132.475 124.936C132.537 124.624 131.664 121.317 131.664 121.317Z" fill="url(#paint1_radial_796_4150)"/>
<path d="M131.664 121.317C131.664 121.317 127.296 139.163 113.256 148.898C97.7807 157.384 99.0911 134.296 99.0911 134.296L90.7295 132.112L97.4063 167.368L100.838 170.488L114.691 206.431L145.517 203.248L149.136 158.32L159.432 126.496L131.664 121.317Z" fill="#A39872"/>
<path d="M129.979 188.522L128.045 180.347L148.762 175.605L150.571 183.28C150.571 183.28 150.821 184.59 149.573 184.84C148.325 185.09 131.539 189.146 131.539 189.146C131.539 189.146 130.229 189.582 129.979 188.522Z" fill="#9B8F6D"/>
<path d="M128.856 174.918L127.42 179.286C127.42 179.286 127.296 180.597 129.292 180.534C131.289 180.472 147.763 176.291 147.763 176.291C147.763 176.291 148.761 176.104 148.948 174.918C149.136 173.733 147.576 170.426 147.576 170.426L128.856 174.918Z" fill="url(#paint2_linear_796_4150)"/>
<path d="M128.606 167.368L144.581 163.562C144.581 163.562 145.267 163.499 145.454 164.123C145.641 164.747 145.517 164.872 145.08 165.122C144.643 165.371 128.981 168.99 128.981 168.99C128.981 168.99 128.169 169.053 128.045 168.429C127.857 167.742 128.107 167.493 128.606 167.368Z" fill="#413B2B"/>
<path d="M130.557 167.64L129.222 167.96L130.238 172.208L131.573 171.888L130.557 167.64Z" fill="#332E23"/>
<path d="M98.5917 147.213C98.5917 147.213 102.336 164.747 111.384 166.432C120.432 168.117 129.355 155.013 130.79 152.33C132.225 149.646 122.803 143.843 122.803 143.843L115.252 147.462L108.388 150.395L105.955 150.582L99.9645 145.778L98.5293 146.339V147.213H98.5917Z" fill="#777548"/>
<path d="M111.384 166.432C112.445 166.619 113.505 166.619 114.566 166.432L109.699 150.333L105.955 150.707L104.645 150.894L108.95 165.496C109.699 165.995 110.51 166.307 111.384 166.432Z" fill="#686540"/>
<path d="M106.018 150.582C106.018 150.582 107.64 150.083 110.012 149.21C112.383 148.336 115.191 146.901 119.559 141.909C123.927 136.917 128.045 129.678 128.045 129.678L134.972 120.194C134.972 120.194 136.344 121.317 137.156 121.691C137.967 122.066 136.968 132.05 137.156 137.79C137.343 143.531 136.532 158.57 131.29 152.829C126.048 147.088 124.114 145.715 122.741 145.84C121.368 145.902 110.573 150.832 108.202 151.144C105.768 151.394 105.519 150.77 106.018 150.582Z" fill="#848157"/>
<path d="M99.8401 137.79C99.8401 137.79 99.5905 139.163 100.651 141.909C101.712 144.654 102.96 147.65 104.707 148.898C106.454 150.146 106.08 150.832 105.643 151.019C105.206 151.206 102.773 150.582 101.275 148.773C99.7153 147.026 99.0289 146.277 98.6545 147.15C98.2801 148.024 98.2801 150.021 98.2177 151.019C98.1553 151.955 96.0337 148.898 96.0961 144.405C96.1585 139.85 97.1569 136.355 97.1569 136.355L99.8401 137.79Z" fill="#848157"/>
<path d="M171.724 264.962C171.724 264.962 190.07 252.981 191.068 251.421C192.067 249.861 193.252 246.055 192.379 242.248C191.505 238.442 188.26 233.762 186.326 232.951C184.329 232.077 179.15 232.951 179.15 232.951L168.542 252.919L171.724 264.962Z" fill="url(#paint3_linear_796_4150)"/>
<path d="M163.551 271.951L165.236 270.64C165.236 270.64 165.86 271.202 166.484 271.327C167.108 271.451 168.605 269.954 168.543 269.33C168.48 268.706 168.668 267.52 169.104 268.207C169.541 268.893 171.725 267.52 171.725 266.272C171.725 265.024 171.164 247.49 171.164 247.49L163.551 271.951Z" fill="#7F7455"/>
<path d="M114.192 208.302L104.957 234.885L98.155 254.478L95.5342 261.592L103.272 271.514L115.752 272.45L132.35 268.456L137.03 273.947L153.441 276.069L163.488 271.95C163.488 271.95 165.797 266.397 166.296 263.09C166.795 259.782 178.089 238.878 178.089 238.878C178.089 238.878 183.456 224.09 183.955 217.725C184.454 211.36 184.891 205.432 184.704 202.312C184.641 199.192 114.192 208.302 114.192 208.302Z" fill="#8E8364"/>
<path d="M112.569 212.67L114.691 206.368L185.702 199.13L184.641 208.552L112.569 212.67Z" fill="#3D3532"/>
<path d="M111.883 199.067C111.883 199.067 113.506 203.81 112.258 205.432C111.01 206.992 109.013 207.866 109.824 209.363C110.698 210.861 110.573 213.482 110.011 216.227C110.885 217.725 148.325 218.411 148.325 218.411L157.685 215.915L159.744 201.189L111.883 199.067Z" fill="#A39872"/>
<path d="M188.885 253.23C188.885 253.23 191.131 244.37 189.446 240.376C187.761 236.382 183.019 233.2 182.769 232.514C182.457 231.827 182.457 231.765 184.267 231.39C186.014 231.016 187.699 232.014 192.317 232.888C196.934 233.762 198.182 237.506 198.307 239.253C198.432 241 197.309 250.922 194.875 258.472C192.379 266.022 192.753 268.83 191.693 270.328C190.632 271.826 186.326 274.446 183.019 274.446C179.712 274.446 174.845 272.824 173.909 268.518C172.973 264.213 172.973 264.213 172.973 264.213L188.885 253.23Z" fill="#3D3532"/>
<path d="M171.288 134.234L185.702 199.13L161.304 201.626L164.486 196.446L162.801 193.701L165.547 193.202L170.601 137.666L171.288 134.234Z" fill="#776F5A"/>
<path d="M158.933 216.539C158.933 216.539 169.291 216.976 175.157 216.789C181.085 216.602 182.769 215.042 184.766 214.73C186.763 214.418 187.325 212.983 186.763 210.237C186.201 207.491 187.075 203.872 187.013 201.938C186.888 199.941 183.393 188.834 183.393 188.834L170.601 192.016L159.931 210.237L158.933 216.539Z" fill="#776F5A"/>
<path d="M169.416 151.019L167.856 151.331L166.671 157.509L168.855 157.01L169.416 151.019Z" fill="#828282"/>
<path d="M132.413 268.456L130.915 260.906L144.518 225.899L138.029 223.216L132.413 228.582L133.349 240.813L124.987 260.906L123.614 270.578L132.413 268.456Z" fill="#7F7455"/>
<path d="M101.025 268.581L103.272 271.514L115.814 272.45L123.614 270.578L124.613 263.651L112.819 264.712L105.144 260.282L101.025 268.581Z" fill="#7F7455"/>
<path d="M112.07 234.386C112.07 234.386 109.948 236.133 107.577 236.757C105.206 237.381 103.584 237.069 102.835 237.631C102.149 238.192 105.581 240.501 105.581 240.501C105.581 240.501 111.509 236.882 111.883 235.883C112.257 234.885 112.07 234.386 112.07 234.386Z" fill="url(#paint4_linear_796_4150)"/>
<path d="M73.6316 264.213C83.7981 264.213 92.0396 255.971 92.0396 245.805C92.0396 235.639 83.7981 227.397 73.6316 227.397C63.4652 227.397 55.2236 235.639 55.2236 245.805C55.2236 255.971 63.4652 264.213 73.6316 264.213Z" fill="#FCDD96"/>
<path d="M73.6318 262.965C83.0745 262.965 90.7294 255.31 90.7294 245.867C90.7294 236.425 83.0745 228.77 73.6318 228.77C64.189 228.77 56.5342 236.425 56.5342 245.867C56.5342 255.31 64.189 262.965 73.6318 262.965Z" fill="#FAF4E6"/>
<path d="M73.1329 248.363C73.1329 248.363 72.6961 246.491 69.7633 245.119C65.5201 243.184 64.8961 242.685 67.8913 242.311C70.8865 241.936 73.5697 243.683 73.5697 243.683" fill="#FFCA28"/>
<path d="M68.7024 255.227L68.2656 254.042L65.9568 254.915C65.7072 254.978 65.5824 255.29 65.7072 255.477L65.832 255.789C65.8944 256.039 66.2064 256.163 66.3936 256.039L68.7024 255.227Z" fill="#AC752C"/>
<path d="M68.7023 255.227L68.5151 254.666L65.7695 255.664L65.8319 255.789C65.8943 256.039 66.2063 256.163 66.3935 256.039L68.7023 255.227Z" fill="#7D551F"/>
<path d="M77.875 248.176C77.3134 247.864 76.7518 247.615 76.1278 247.49C75.5662 247.303 74.9422 247.24 74.3182 247.116C73.819 247.053 73.3198 246.866 72.7582 246.928C72.7582 246.991 72.7582 246.991 72.6958 247.053C72.6958 247.116 72.6958 247.116 72.6334 247.178C72.6334 247.24 72.571 247.365 72.5086 247.428C72.5086 247.428 72.5086 247.428 72.5086 247.49C72.5086 247.552 72.5086 247.552 72.4462 247.615C72.4462 247.677 72.3838 247.677 72.3838 247.74C72.3214 247.802 72.3214 247.927 72.259 247.989C72.1342 248.239 72.0094 248.488 71.8846 248.738C71.8846 248.8 71.8222 248.8 71.8222 248.863C71.7598 248.925 71.7598 248.988 71.6974 249.05C71.6974 249.112 71.635 249.175 71.635 249.175C71.635 249.237 71.5726 249.3 71.5726 249.3C71.5102 249.362 71.5102 249.424 71.4478 249.487C71.4478 249.487 71.4478 249.549 71.3854 249.549L71.323 249.612L71.2606 249.674C71.1982 249.736 71.1982 249.799 71.1358 249.861C71.0734 249.986 71.011 250.048 70.9486 250.173C70.8862 250.236 70.8238 250.298 70.7614 250.423C70.7614 250.423 70.7614 250.423 70.699 250.485C70.6366 250.548 70.5742 250.61 70.5742 250.672C70.5118 250.797 70.387 250.86 70.3246 250.984C70.1374 251.172 69.9502 251.359 69.763 251.546C69.451 251.858 69.0766 252.232 68.7022 252.482C68.515 252.607 68.3902 252.732 68.203 252.856C68.1406 252.919 68.0158 252.981 67.9534 253.044C67.891 253.106 67.8286 253.168 67.7038 253.168C67.579 253.231 67.5166 253.293 67.3918 253.356C67.3918 253.356 67.3918 253.356 67.3294 253.418C67.3294 253.418 67.3294 253.418 67.267 253.48C67.0798 253.73 66.8926 254.042 66.8926 254.354C66.8926 254.541 66.8926 254.791 67.0174 254.978C67.0798 255.103 67.1422 255.228 67.2046 255.29C67.267 255.352 67.3294 255.415 67.3918 255.477C67.579 255.664 67.891 255.789 68.203 255.852C68.827 255.976 69.5758 255.789 70.0126 255.664C73.7566 254.541 76.6894 251.671 78.0622 248.052C78.0622 248.239 77.9998 248.176 77.875 248.176Z" fill="#FFB300"/>
<path d="M74.3807 247.116C73.8815 247.053 73.3823 246.866 72.8207 246.928C72.8207 246.991 72.8207 246.991 72.7583 247.053C72.6959 247.116 72.7583 247.116 72.6959 247.178C72.6335 247.24 72.6959 247.24 72.6335 247.303C72.6335 247.365 72.5711 247.428 72.5711 247.428C72.5711 247.428 72.5711 247.428 72.5711 247.49C72.5711 247.552 72.5711 247.552 72.5087 247.615C72.5087 247.677 72.4463 247.677 72.4463 247.74C72.4463 247.802 72.3839 247.802 72.3839 247.864C72.3839 247.927 72.3215 247.989 72.3215 247.989C72.2591 248.052 72.2591 248.176 72.1967 248.239C72.1967 248.239 72.1967 248.239 72.1967 248.301C72.1967 248.364 72.1343 248.364 72.1343 248.426C72.0719 248.488 72.0719 248.613 72.0095 248.676C72.0095 248.738 71.9471 248.738 71.9471 248.8C71.9471 248.863 71.8847 248.863 71.8847 248.925C71.8223 248.988 71.8223 249.05 71.7599 249.112C71.7599 249.175 71.6975 249.237 71.6975 249.237L71.6351 249.362C71.5727 249.424 71.5727 249.487 71.5103 249.549C71.5103 249.549 71.5103 249.612 71.4479 249.612L71.3855 249.674L71.3231 249.736C71.2607 249.799 71.2607 249.861 71.1983 249.924C71.1359 249.986 71.1359 250.048 71.0735 250.111C71.0735 250.173 71.0111 250.173 71.0111 250.236C70.9487 250.298 70.8863 250.36 70.8239 250.485C70.8239 250.485 70.8239 250.485 70.7615 250.548C70.6991 250.61 70.6367 250.672 70.6367 250.735C70.5743 250.797 70.5743 250.797 70.5119 250.86C70.4495 250.922 70.4495 250.984 70.3871 250.984C70.3247 251.047 70.2623 251.109 70.1999 251.172L70.0751 251.296C70.0127 251.359 69.8879 251.484 69.8255 251.546C69.7631 251.608 69.7007 251.671 69.6383 251.733C69.5759 251.796 69.4511 251.92 69.3887 251.983C69.3263 252.045 69.2639 252.108 69.2015 252.17C69.1391 252.232 69.0143 252.357 68.9519 252.42C68.8895 252.482 68.8271 252.544 68.7647 252.544C68.6399 252.607 68.5775 252.732 68.4527 252.794L68.3279 252.856C68.3279 252.856 68.2655 252.856 68.2655 252.919C68.2031 252.981 68.0783 253.044 68.0159 253.106C67.9535 253.168 67.8911 253.231 67.7663 253.231C67.6415 253.293 67.5791 253.356 67.4543 253.418C67.4543 253.418 67.4543 253.418 67.3919 253.48C67.3919 253.48 67.3919 253.48 67.3295 253.543C67.1423 253.792 66.9551 254.104 66.9551 254.416C66.9551 254.604 66.9551 254.853 67.0799 255.04C67.1423 255.165 67.2047 255.29 67.2671 255.352C68.3903 255.04 69.3887 254.604 70.3871 253.98C70.5119 253.917 70.6367 253.792 70.7615 253.73C73.0079 252.232 74.7551 250.048 75.6287 247.49C75.6287 247.428 75.6911 247.303 75.6911 247.24C75.3167 247.24 74.8799 247.178 74.3807 247.116Z" fill="#FFD54F"/>
<path d="M78.3118 247.739L75.7534 247.615L72.6958 247.427C72.6958 247.427 72.6958 247.427 72.6958 247.365C72.6958 247.303 72.7582 247.24 72.7582 247.24C72.7582 247.178 72.7582 247.178 72.8206 247.115C72.883 247.053 72.8206 247.053 72.883 246.991C72.9454 246.866 72.9454 246.803 73.0078 246.679C73.0078 246.616 73.0702 246.554 73.0702 246.491C73.1326 246.367 73.1326 246.242 73.195 246.117C73.195 246.055 73.195 246.055 73.2574 245.992C73.2574 245.992 73.2574 245.992 73.2574 245.93C73.2574 245.867 73.3198 245.743 73.3198 245.68C73.3198 245.618 73.3822 245.493 73.3822 245.431C73.3822 245.306 73.4446 245.243 73.4446 245.119C73.4446 245.056 73.4446 244.931 73.507 244.869C73.507 244.807 73.507 244.682 73.5694 244.619V244.557C73.5694 244.495 73.5694 244.432 73.5694 244.37C73.5694 244.307 73.5694 244.183 73.5694 244.12V244.058V243.995C73.5694 243.933 73.5694 243.871 73.5694 243.808C73.5694 243.746 73.5694 243.683 73.5694 243.683C73.5694 243.621 73.5694 243.559 73.5694 243.559V243.496V243.434C73.5694 243.434 73.5694 243.371 73.5694 243.309C73.5694 243.122 73.5694 242.872 73.5694 242.685C73.5694 242.56 73.5694 242.498 73.5694 242.373C73.5694 242.248 73.5694 242.061 73.5694 241.936V241.874C73.5694 241.874 73.5694 241.874 73.5694 241.811C73.5694 241.624 73.507 241.437 73.507 241.312C73.507 241.25 73.507 241.187 73.507 241.125C73.507 241.063 73.507 241 73.507 240.938C73.507 240.875 73.507 240.813 73.4446 240.751C73.4446 240.688 73.4446 240.688 73.4446 240.626C73.4446 240.563 73.4446 240.501 73.3822 240.376C73.3822 240.314 73.3822 240.251 73.3198 240.189C73.3198 240.064 73.2574 239.939 73.2574 239.815C73.2574 239.752 73.2574 239.69 73.195 239.627V239.565V239.503C73.195 239.44 73.195 239.44 73.1326 239.378C73.1326 239.315 73.1326 239.253 73.0702 239.253C73.0078 239.066 72.9454 238.941 72.883 238.754C72.8206 238.629 72.7582 238.442 72.6958 238.317C72.4462 237.693 71.8222 236.258 71.635 235.197C71.5726 234.698 71.5726 234.261 71.7598 234.011C71.7598 233.949 71.8222 233.949 71.8222 233.949C71.8846 233.949 71.8846 233.887 71.947 233.887C72.259 233.699 72.6958 233.699 73.0078 233.824C73.7566 233.949 74.3806 234.448 74.443 234.511C78.3118 237.631 79.8718 242.935 78.3118 247.739Z" fill="#FFD770"/>
<path d="M75.6911 247.615C76.9391 244.058 76.5647 239.939 74.3183 236.507C73.7567 235.696 73.1327 234.885 72.3839 234.199C72.2591 234.074 72.1967 234.011 72.0719 233.887C72.0095 233.824 71.9471 233.762 71.8847 233.699C71.8223 233.699 71.8223 233.762 71.7599 233.762C71.6975 233.762 71.6975 233.824 71.6975 233.824C71.5103 234.074 71.4479 234.511 71.5727 235.01C71.7599 236.071 72.4463 237.506 72.6335 238.13C72.6959 238.255 72.7583 238.442 72.8207 238.567C72.8831 238.754 72.9455 238.879 73.0079 239.066V239.128V239.253C73.0079 239.315 73.0079 239.315 73.0703 239.378V239.44V239.503C73.0703 239.565 73.1327 239.627 73.1327 239.69C73.1327 239.815 73.1951 239.939 73.1951 240.064C73.1951 240.127 73.1951 240.189 73.2575 240.251C73.2575 240.314 73.2575 240.376 73.3199 240.501C73.3199 240.563 73.3199 240.563 73.3199 240.626C73.3199 240.688 73.3199 240.751 73.3823 240.813C73.3823 240.875 73.3823 240.938 73.3823 241C73.3823 241.063 73.3823 241.125 73.3823 241.187C73.3823 241.375 73.4447 241.562 73.4447 241.687C73.4447 241.687 73.4447 241.687 73.4447 241.749V241.811C73.4447 241.936 73.4447 242.123 73.4447 242.248C73.4447 242.373 73.4447 242.435 73.4447 242.56C73.4447 242.747 73.4447 242.997 73.4447 243.184C73.4447 243.247 73.4447 243.247 73.4447 243.309C73.4447 243.371 73.4447 243.371 73.4447 243.371V243.434C73.4447 243.496 73.4447 243.559 73.4447 243.559C73.4447 243.621 73.4447 243.683 73.4447 243.683C73.4447 243.746 73.4447 243.808 73.4447 243.871V243.933V243.995C73.4447 244.058 73.4447 244.183 73.4447 244.245C73.4447 244.307 73.4447 244.37 73.4447 244.432V244.495C73.4447 244.557 73.4447 244.682 73.3823 244.744C73.3823 244.807 73.3823 244.931 73.3199 244.994C73.3199 245.119 73.2575 245.181 73.2575 245.306C73.2575 245.368 73.1951 245.493 73.1951 245.555C73.1951 245.618 73.1327 245.743 73.1327 245.805C73.1327 245.805 73.1327 245.805 73.1327 245.867C73.1327 245.93 73.1327 245.93 73.0703 245.992C73.0079 246.117 73.0079 246.242 72.9455 246.367C72.9455 246.429 72.8831 246.491 72.8831 246.554C72.8207 246.679 72.8207 246.741 72.7583 246.866C72.7583 246.928 72.7583 246.928 72.6959 246.991C72.6959 247.053 72.6959 247.053 72.6335 247.115C72.6335 247.178 72.5711 247.24 72.5711 247.24C72.5711 247.24 72.5711 247.24 72.5711 247.303L75.6911 247.615Z" fill="#FFEA8C"/>
<path d="M72.6338 247.49C72.6338 247.49 75.4418 247.677 76.7522 248.426C78.8114 249.549 79.5602 249.861 79.997 254.853C79.997 255.04 80.0594 255.228 80.0594 255.415C80.1842 256.226 80.6834 258.285 82.4306 252.732C84.5522 246.055 78.8114 246.055 78.8114 246.055C76.6898 245.992 74.5682 246.554 72.6338 247.49Z" fill="#FFCA28"/>
<path d="M92.6019 271.264C103.251 271.264 111.884 262.631 111.884 251.983C111.884 241.334 103.251 232.701 92.6019 232.701C81.953 232.701 73.3203 241.334 73.3203 251.983C73.3203 262.631 81.953 271.264 92.6019 271.264Z" fill="#FCDD96"/>
<path d="M92.6015 269.704C102.389 269.704 110.323 261.77 110.323 251.983C110.323 242.195 102.389 234.261 92.6015 234.261C82.8141 234.261 74.8799 242.195 74.8799 251.983C74.8799 261.77 82.8141 269.704 92.6015 269.704Z" fill="url(#paint5_linear_796_4150)"/>
<path d="M92.6015 269.704C102.389 269.704 110.323 261.77 110.323 251.983C110.323 242.195 102.389 234.261 92.6015 234.261C82.8141 234.261 74.8799 242.195 74.8799 251.983C74.8799 261.77 82.8141 269.704 92.6015 269.704Z" fill="url(#paint6_linear_796_4150)"/>
<path d="M92.6018 269.517C102.286 269.517 110.136 261.667 110.136 251.983C110.136 242.299 102.286 234.448 92.6018 234.448C82.9178 234.448 75.0674 242.299 75.0674 251.983C75.0674 261.667 82.9178 269.517 92.6018 269.517Z" stroke="url(#paint7_linear_796_4150)" stroke-opacity="0.12" stroke-width="1.1875"/>
<path d="M86.6115 262.403L84.4275 254.915L84.6771 250.672L85.4883 249.611L84.3027 246.242L87.2355 243.683L94.6611 243.746L95.9091 241.999L100.402 242.311L98.9043 246.179L102.648 252.607L101.9 256.475L98.3427 257.099L97.8435 258.285L94.2867 260.594L86.6115 262.403ZM86.2371 254.728L87.8595 260.157L93.4131 258.847L96.2211 257.037L96.9075 255.415L100.152 254.791L100.527 252.856L96.6579 246.304L97.5939 243.933L96.7203 243.871L95.5347 245.555L87.8595 245.493L86.4243 246.803L87.5475 249.923L86.4867 251.296L86.2371 254.728Z" fill="white"/>
<path d="M165.735 198.88C165.735 198.88 148.824 194.949 141.96 198.506C135.096 202 112.82 233.325 112.82 233.325C112.82 233.325 111.696 235.197 110.261 236.07C108.826 236.944 104.708 240.501 103.21 242.435C101.712 244.37 101.837 247.677 100.839 249.299C99.8405 250.922 96.0341 255.352 95.4101 256.538C94.7237 257.786 94.5365 259.034 95.0981 259.533C95.7221 260.094 94.9733 261.03 95.5973 261.717C96.2213 262.403 97.0325 262.528 97.9685 262.029C98.9045 261.53 97.8437 262.902 99.7157 262.902C101.588 262.902 102.898 261.779 103.272 262.528C103.647 263.277 103.46 264.525 107.391 261.342C111.322 258.16 114.442 256.912 116.252 251.483C118.124 245.992 121.306 244.494 121.306 244.494C121.306 244.494 152.319 223.466 158.933 219.41C165.485 215.291 170.228 200.19 170.228 200.19L165.735 198.88Z" fill="url(#paint8_linear_796_4150)"/>
<path d="M58.0945 241.437C58.0945 241.437 55.7233 240.938 54.4753 241.312C53.2273 241.686 51.2929 241.998 50.6065 245.493C49.9201 248.987 52.6657 254.478 53.2273 255.789C53.7889 257.099 56.2849 258.971 57.7825 258.659C59.2801 258.347 63.2113 257.162 64.2721 255.914C65.3329 254.666 64.2721 252.794 63.7105 252.731C63.1489 252.669 64.1473 252.107 64.1473 251.046C64.1473 249.986 63.2113 248.55 62.8369 248.55C62.5249 248.55 61.9009 248.176 62.1505 248.176C62.4001 248.176 62.6497 246.242 62.0257 245.43C61.4017 244.619 60.6529 244.619 60.6529 244.619C60.5905 244.557 60.5905 244.557 60.5905 244.557C60.5905 244.557 61.2769 244.245 61.2145 243.933C61.2145 243.496 61.7761 242.435 58.0945 241.437Z" fill="url(#paint9_linear_796_4150)"/>
<path d="M127.046 78.0113L125.424 69.2753C125.424 69.2753 125.549 68.5265 123.49 67.4033C121.43 66.2801 113.568 61.9121 107.64 61.2881C101.712 60.6641 96.4081 61.7249 91.7281 64.2833C87.0481 66.7793 86.6113 69.1505 86.3617 71.0849C86.0497 73.0193 84.7393 76.9505 84.7393 76.9505L127.046 78.0113Z" fill="url(#paint10_linear_796_4150)"/>
<path d="M132.849 77.5744L130.79 66.4048C130.79 66.4048 130.977 65.4688 128.356 64.0336C125.735 62.5984 115.627 57.0448 108.076 56.296C100.526 55.5472 93.7866 56.8576 87.7962 60.1024C81.8682 63.2848 81.3066 66.3424 80.9322 68.776C80.5578 71.2096 78.873 76.264 78.873 76.264L132.849 77.5744Z" fill="#7C5535"/>
<path fill-rule="evenodd" clip-rule="evenodd" d="M124.488 75.8895C124.488 75.8895 122.304 77.1999 119.371 74.4543C116.501 71.6463 112.757 65.2815 112.57 63.0975C112.383 60.9135 112.133 60.2895 114.442 61.1631C116.751 62.0367 120.058 63.7215 121.68 63.8463C123.303 63.9711 125.362 66.3423 125.736 67.6527C126.173 68.9631 125.736 67.8399 123.677 66.9663C121.68 66.0927 118.997 66.7167 120.245 70.1487C121.493 73.5807 125.736 75.5775 124.488 75.8895Z" fill="#603E26"/>
<path fill-rule="evenodd" clip-rule="evenodd" d="M86.7362 78.8849C86.7362 78.8849 89.4194 80.4449 92.789 76.9505C96.1586 73.4561 100.464 65.6561 100.589 63.0353C100.714 60.4145 101.026 59.6657 98.2802 60.7265C95.5346 61.7873 91.6034 63.9713 89.6066 64.2209C87.6722 64.4081 85.2386 67.4033 84.8018 68.9633C84.365 70.5233 84.8018 69.1505 87.2354 68.0273C89.669 66.9041 92.8514 67.5281 91.541 71.7713C90.293 76.0145 85.2386 78.5105 86.7362 78.8849Z" fill="#603E26"/>
<path d="M146.765 81.6305C138.777 78.2609 132.787 76.3889 119.995 75.7649C111.571 75.3281 98.2174 75.2033 87.6094 75.4529C87.6094 75.4529 81.4318 74.3297 75.067 70.4609C68.7022 66.6545 60.5278 68.1521 56.1598 69.7745C53.4142 70.8353 54.5374 77.7617 55.6606 82.6913C56.4718 86.1857 58.4062 89.3681 61.027 91.8017C63.3358 93.9233 66.5806 96.4193 70.3246 98.3537C80.4334 103.533 88.9198 104.968 88.9198 104.968C88.9198 104.968 101.712 105.218 122.429 104.157C143.145 103.096 152.63 95.1089 155.001 92.4881C157.373 89.9921 154.752 85.0001 146.765 81.6305Z" fill="#8C6239"/>
<path d="M136.468 84.8129C136.468 84.8129 93.1629 79.6337 79.2477 86.1857C74.4429 89.4305 74.8797 95.3585 80.3085 96.4817C85.7373 97.6049 136.468 84.8129 136.468 84.8129Z" fill="#603E26"/>
<path d="M137.966 101.224C137.03 102.909 135.907 103.97 134.721 104.594C133.723 102.16 133.037 99.5394 132.725 96.9186C132.725 96.7938 132.662 96.6066 132.662 96.4818C132.35 94.2978 131.726 92.1762 130.853 90.1794C131.726 89.6802 132.974 89.3682 134.472 89.7426C138.528 90.6162 140.525 96.8562 137.966 101.224Z" fill="#A16552"/>
<path d="M137.966 101.224C137.03 102.909 135.907 103.97 134.721 104.594C133.723 102.16 133.037 99.5394 132.725 96.9186C132.725 96.7938 132.662 96.6066 132.662 96.4818C132.35 94.2978 131.726 92.1762 130.853 90.1794C131.726 89.6802 132.974 89.3682 134.472 89.7426C138.528 90.6162 140.525 96.8562 137.966 101.224Z" fill="url(#paint11_linear_796_4150)"/>
<path d="M78.6236 97.9169C78.374 100.101 78.374 102.285 78.686 104.469C78.686 104.594 78.7484 104.781 78.7484 104.906C79.1228 107.526 79.2476 110.21 78.998 112.83C77.75 112.581 76.3772 111.894 74.942 110.584C71.2604 107.09 71.3228 100.6 74.942 98.4785C76.3772 97.7297 77.6252 97.6673 78.6236 97.9169C78.6236 97.8545 78.6236 97.9169 78.6236 97.9169Z" fill="#A16552"/>
<path d="M78.6236 97.9169C78.374 100.101 78.374 102.285 78.686 104.469C78.686 104.594 78.7484 104.781 78.7484 104.906C79.1228 107.526 79.2476 110.21 78.998 112.83C77.75 112.581 76.3772 111.894 74.942 110.584C71.2604 107.09 71.3228 100.6 74.942 98.4785C76.3772 97.7297 77.6252 97.6673 78.6236 97.9169C78.6236 97.8545 78.6236 97.9169 78.6236 97.9169Z" fill="url(#paint12_linear_796_4150)"/>
<path d="M126.423 105.904C125.549 107.838 125.611 110.085 126.547 112.019C127.296 113.454 127.983 115.077 128.17 116.387C129.543 125.685 121.805 134.546 110.947 136.168C100.09 137.79 90.1057 131.55 88.7329 122.253C88.5457 121.005 88.7329 119.195 89.0449 117.635C89.4193 115.514 88.7953 113.392 87.4225 111.77C86.0497 110.21 85.1761 108.275 84.8641 106.216C83.9281 100.038 88.4833 94.2353 94.9729 93.2993C97.0945 92.9873 99.2161 93.2369 101.213 93.9857C103.522 94.8593 106.143 94.4849 108.139 92.9873C109.824 91.6769 111.821 90.8657 113.88 90.5537C120.37 89.6177 126.36 93.8609 127.296 100.038C127.546 101.598 127.421 103.158 126.984 104.656C126.797 104.968 126.61 105.467 126.423 105.904Z" fill="#A16552"/>
<path d="M126.423 105.904C125.549 107.838 125.611 110.085 126.547 112.019C127.296 113.454 127.983 115.077 128.17 116.387C129.543 125.685 121.805 134.546 110.947 136.168C100.09 137.79 90.1057 131.55 88.7329 122.253C88.5457 121.005 88.7329 119.195 89.0449 117.635C89.4193 115.514 88.7953 113.392 87.4225 111.77C86.0497 110.21 85.1761 108.275 84.8641 106.216C83.9281 100.038 88.4833 94.2353 94.9729 93.2993C97.0945 92.9873 99.2161 93.2369 101.213 93.9857C103.522 94.8593 106.143 94.4849 108.139 92.9873C109.824 91.6769 111.821 90.8657 113.88 90.5537C120.37 89.6177 126.36 93.8609 127.296 100.038C127.546 101.598 127.421 103.158 126.984 104.656C126.797 104.968 126.61 105.467 126.423 105.904Z" fill="url(#paint13_linear_796_4150)"/>
<path d="M98.7171 122.815C98.0931 122.877 97.6563 123.501 97.7811 124.125C97.7811 124.187 97.7811 124.25 97.8435 124.25C99.2787 129.117 104.583 132.299 110.324 131.426C116.064 130.552 120.245 125.997 120.183 120.943C120.183 120.319 119.684 119.819 118.997 119.819C118.935 119.819 118.872 119.819 118.872 119.819L98.7171 122.815Z" fill="url(#paint14_radial_796_4150)"/>
<path d="M103.521 130.614C107.827 132.486 112.881 131.738 116.501 128.68C115.253 125.997 112.757 126.995 109.699 127.494C106.579 127.931 103.896 127.619 103.521 130.614Z" fill="url(#paint15_radial_796_4150)"/>
<path d="M135.533 87.4337C133.037 86.8721 131.29 87.6209 130.104 88.5569C129.667 87.6833 129.168 86.8097 128.607 85.9985C128.232 85.3745 127.795 84.8129 127.359 84.1889C122.803 78.1985 116.002 73.6433 108.826 72.3953L108.139 68.7137L104.083 72.0209H103.522C103.21 72.0209 102.835 72.0833 102.523 72.0833L101.463 69.4001L101.151 68.5889C100.901 68.6513 100.714 68.6513 100.527 68.7137C96.4081 69.6497 94.9105 73.7057 94.7233 74.4545C88.1713 77.7617 82.9921 84.0641 80.3713 91.1153C80.1217 91.8017 79.8721 92.4881 79.6849 93.1745C79.4353 94.1105 79.1857 95.1089 78.9985 96.1073L78.8113 96.0449C77.4385 95.5457 75.5665 95.4209 73.4449 96.6065C68.8273 99.2273 68.7025 107.526 73.3825 111.957C75.3169 113.766 77.1889 114.64 78.8737 114.89C78.8737 115.014 78.8737 115.077 78.8737 115.202C78.7489 116.574 78.8113 118.01 79.0609 119.382C80.4961 128.992 88.7953 136.23 99.4657 138.352C101.962 138.851 104.52 139.038 107.079 138.976C108.389 138.914 109.762 138.851 111.072 138.664L111.384 138.602C127.296 136.23 138.715 123.813 136.781 110.834C136.594 109.461 136.219 108.088 135.72 106.778C135.658 106.715 135.658 106.59 135.595 106.528C137.155 105.779 138.715 104.406 140.026 102.16C143.208 96.4817 140.712 88.6193 135.533 87.4337ZM78.6241 97.9169C78.3745 100.101 78.3745 102.285 78.6865 104.469C78.6865 104.594 78.7489 104.781 78.7489 104.906C79.1233 107.526 79.2481 110.21 78.9985 112.83C77.7505 112.581 76.3777 111.894 74.9425 110.584C71.2609 107.09 71.3233 100.6 74.9425 98.4785C76.3777 97.7297 77.6257 97.6673 78.6241 97.9169C78.6241 97.8545 78.6241 97.9169 78.6241 97.9169ZM126.922 104.469C126.797 104.968 126.61 105.467 126.36 105.904C125.487 107.838 125.549 110.085 126.485 112.019C127.234 113.454 127.92 115.077 128.107 116.387C129.48 125.685 121.743 134.546 110.885 136.168C100.027 137.79 90.0433 131.55 88.6705 122.253C88.4833 121.005 88.6705 119.195 88.9825 117.635C89.3569 115.514 88.7329 113.392 87.3601 111.77C85.9873 110.21 85.1137 108.275 84.8017 106.216C83.8657 100.038 88.4209 94.2353 94.9105 93.2993C97.0321 92.9873 99.1537 93.2369 101.151 93.9857C103.459 94.8593 106.08 94.4849 108.077 92.9873C109.762 91.6769 111.759 90.8657 113.818 90.5537C120.307 89.6177 126.298 93.8609 127.234 100.038C127.483 101.411 127.359 102.971 126.922 104.469ZM137.967 101.224C137.031 102.909 135.907 103.97 134.722 104.594C133.723 102.16 133.037 99.5393 132.725 96.9185C132.725 96.7937 132.663 96.6065 132.663 96.4817C132.351 94.2977 131.727 92.1761 130.853 90.1793C131.727 89.6801 132.975 89.3681 134.472 89.7425C138.528 90.6161 140.525 96.8561 137.967 101.224Z" fill="url(#paint16_linear_796_4150)"/>
<path d="M102.585 113.704C102.772 113.142 103.272 112.893 103.771 113.018L106.142 113.704C106.641 113.829 106.891 114.39 106.766 114.827V114.89C106.641 115.389 106.08 115.638 105.643 115.514L103.272 114.827C102.772 114.702 102.46 114.203 102.585 113.704Z" fill="url(#paint17_linear_796_4150)"/>
<path d="M108.826 114.64C108.514 114.141 108.638 113.579 109.075 113.33L111.134 111.957C111.571 111.707 112.133 111.77 112.445 112.206V112.269C112.694 112.706 112.632 113.267 112.195 113.579L110.136 114.952C109.637 115.202 109.075 115.077 108.826 114.64Z" fill="url(#paint18_linear_796_4150)"/>
<path d="M96.5953 108.962C94.7233 109.211 93.0385 108.026 92.7265 106.278L92.5393 105.218C92.2897 103.47 93.6001 101.786 95.4721 101.536C97.3441 101.286 99.0289 102.472 99.3409 104.219L99.5281 105.28C99.7777 107.027 98.4673 108.65 96.5953 108.962Z" fill="url(#paint19_linear_796_4150)"/>
<path d="M95.4717 101.474L96.0333 105.218C96.2205 106.154 97.0941 106.778 98.0301 106.591C98.9037 106.403 99.4653 105.592 99.4029 104.719L99.3405 104.219C99.0909 102.41 97.3437 101.224 95.4717 101.474Z" fill="url(#paint20_radial_796_4150)"/>
<path d="M96.3772 104.276C96.9909 104.185 97.419 103.642 97.3334 103.063C97.2478 102.483 96.6809 102.087 96.0672 102.177C95.4535 102.268 95.0254 102.811 95.111 103.391C95.1966 103.97 95.7635 104.367 96.3772 104.276Z" fill="white"/>
<path d="M93.9744 79.0721C94.7232 77.6369 95.472 76.3265 96.1584 75.1409C96.5952 74.4545 97.032 73.8305 97.4688 73.2065C99.1536 70.8353 100.589 69.4001 101.4 69.4001L101.088 68.5889C100.838 68.5889 100.651 68.6513 100.464 68.7137C96.3456 69.6497 94.848 73.7057 94.6608 74.4545C88.1088 77.7617 82.9296 84.0641 80.3088 91.1153C80.0592 91.8017 79.8096 92.4881 79.6224 93.1745C79.3728 94.1105 79.1232 95.1089 78.936 96.1073L78.7488 96.0449C77.376 95.5457 75.504 95.4209 73.3824 96.6065C68.7648 99.2273 68.64 107.526 73.32 111.957C75.2544 113.766 77.1264 114.64 78.8112 114.89C78.8112 115.014 78.8112 115.077 78.8112 115.202C78.6864 116.574 78.7488 118.01 78.9984 119.382C80.4336 128.992 88.7328 136.23 99.4032 138.352C101.899 138.851 104.458 139.038 107.016 138.976C107.016 138.976 100.027 136.418 95.16 130.24C90.7296 124.624 89.1072 114.702 88.92 104.656C88.9824 100.538 89.0448 97.6673 89.0448 97.6673C89.0448 93.5489 91.416 83.8145 93.9744 79.0721Z" fill="url(#paint21_linear_796_4150)"/>
<path d="M116.626 105.904C114.754 106.154 113.069 104.968 112.757 103.221L112.57 102.16C112.32 100.413 113.63 98.7281 115.502 98.4785C117.374 98.2289 119.059 99.4145 119.371 101.162L119.558 102.222C119.746 103.97 118.435 105.592 116.626 105.904Z" fill="url(#paint22_linear_796_4150)"/>
<path d="M115.502 98.4162L116.064 102.16C116.251 103.096 117.124 103.72 118.06 103.533C118.934 103.346 119.496 102.535 119.433 101.661L119.371 101.162C119.059 99.3522 117.374 98.1666 115.502 98.4162Z" fill="url(#paint23_radial_796_4150)"/>
<path d="M116.409 101.216C117.023 101.126 117.451 100.582 117.366 100.003C117.28 99.4231 116.713 99.0268 116.099 99.1174C115.486 99.208 115.058 99.7513 115.143 100.331C115.229 100.911 115.796 101.307 116.409 101.216Z" fill="white"/>
<path d="M82.8672 84.7504C82.8672 84.7504 122.429 83.3776 137.093 84.7504C124.426 76.8256 108.077 70.96 108.077 70.96L92.352 75.3904L86.4864 76.0768L82.8672 84.7504Z" fill="#8C6239"/>
<path d="M93.6621 74.8912L119.184 75.3904L112.881 66.7168L98.2797 66.4048L93.6621 74.8912Z" fill="#7C5535"/>
<path fill-rule="evenodd" clip-rule="evenodd" d="M86.7362 78.8849C86.7362 78.8849 89.4194 80.4449 92.789 76.9505C96.1586 73.4561 100.464 65.6561 100.589 63.0353C100.714 60.4145 101.026 59.6657 98.2802 60.7265C95.5346 61.7873 91.6034 63.9713 89.6066 64.2209C87.6722 64.4081 85.2386 67.4033 84.8018 68.9633C84.365 70.5233 84.8018 69.1505 87.2354 68.0273C89.669 66.9041 92.8514 67.5281 91.541 71.7713C90.293 76.0145 85.2386 78.5105 86.7362 78.8849Z" fill="#603E26"/>
<path d="M87.6095 75.4527C98.2175 75.2031 111.571 75.3279 119.995 75.7647C132.288 76.3887 138.278 78.1359 145.891 81.2559C145.891 81.2559 140.837 78.7599 135.595 77.1375C130.354 75.5775 126.734 75.3279 121.93 75.0159C117.062 74.6415 98.1551 74.5167 92.9759 74.7663C91.2911 74.8287 88.9199 75.0159 86.4863 75.2031C87.1727 75.3903 87.6095 75.4527 87.6095 75.4527Z" fill="#A57955"/>
<path d="M91.8531 75.3905L97.8435 75.3281L96.4083 78.0737L84.8643 79.9457L87.6099 75.4529L91.8531 75.3905Z" fill="#8C6239"/>
<path d="M111.321 166.37C111.321 166.37 111.82 167.68 112.382 168.554C113.006 169.427 113.193 172.298 114.316 175.48C115.44 178.662 120.744 190.456 122.241 194.637C123.739 198.818 122.304 198.88 122.553 201.189C122.803 203.56 124.238 203.81 124.363 205.37C125.548 205.245 125.548 205.245 125.548 205.245C125.548 205.245 124.987 203.622 124.363 202.499C123.739 201.376 123.552 200.128 123.864 198.568C124.176 197.008 123.864 195.822 123.364 194.013C122.865 192.203 115.564 176.166 115.377 175.043C115.19 173.982 113.755 169.24 113.942 168.491C114.129 167.68 113.755 166.619 113.755 166.619L111.321 166.37Z" fill="#332E23"/>
<path d="M124.426 205.432C124.426 205.432 124.613 206.992 123.614 208.115C122.616 209.238 121.992 209.925 122.554 211.485C123.115 213.045 122.554 217.6 122.554 217.6L123.552 217.662C123.552 217.662 123.989 214.48 123.864 212.92C123.802 211.36 123.302 210.424 123.864 209.675C124.426 208.989 125.923 207.616 125.611 205.245C125.549 205.182 124.426 205.432 124.426 205.432Z" fill="#332E23"/>
<path d="M105.955 185.152C105.955 185.152 106.704 186.837 107.203 188.771C107.702 190.643 108.077 192.328 108.576 192.827C109.137 193.264 109.761 192.765 109.761 192.765L112.881 191.579C112.881 191.579 113.568 191.579 113.443 190.331C113.318 189.083 110.51 181.533 110.51 181.533L105.955 185.152Z" fill="#9B8F6D"/>
<path d="M105.456 185.464L110.199 183.53C110.199 183.53 110.885 183.218 110.511 181.471C110.136 179.723 109.512 177.727 109.512 177.727L104.271 179.349L104.895 184.091C104.957 184.154 105.082 185.589 105.456 185.464Z" fill="url(#paint24_linear_796_4150)"/>
<path d="M140.588 197.632C140.588 197.632 138.092 195.074 139.34 193.389C140.525 191.704 140.338 190.706 140.588 189.208C140.9 187.711 142.335 181.283 142.21 177.727C142.085 174.17 141.149 153.515 140.588 151.207C140.026 148.96 143.084 135.17 145.517 133.735C147.888 132.299 157.373 126.434 159.432 126.496C161.429 126.496 169.791 131.55 171.351 134.234C172.911 136.917 174.658 152.704 174.72 160.192C174.783 167.68 175.22 185.651 176.218 189.208C177.154 192.765 176.967 193.264 176.218 195.448C175.469 197.632 176.655 199.317 172.786 200.378C168.917 201.438 145.392 199.504 140.588 197.632Z" fill="#777548"/>
<path d="M107.578 154.826C108.302 154.826 108.888 154.239 108.888 153.515C108.888 152.792 108.302 152.205 107.578 152.205C106.854 152.205 106.268 152.792 106.268 153.515C106.268 154.239 106.854 154.826 107.578 154.826Z" fill="#DBC483"/>
<path d="M107.578 154.576C108.164 154.576 108.639 154.101 108.639 153.515C108.639 152.929 108.164 152.454 107.578 152.454C106.993 152.454 106.518 152.929 106.518 153.515C106.518 154.101 106.993 154.576 107.578 154.576Z" fill="#C9B177"/>
<path d="M107.079 153.453C107.217 153.453 107.328 153.341 107.328 153.203C107.328 153.065 107.217 152.954 107.079 152.954C106.941 152.954 106.829 153.065 106.829 153.203C106.829 153.341 106.941 153.453 107.079 153.453Z" fill="#8C7D5D"/>
<path d="M107.953 153.266C108.091 153.266 108.202 153.154 108.202 153.016C108.202 152.878 108.091 152.766 107.953 152.766C107.815 152.766 107.703 152.878 107.703 153.016C107.703 153.154 107.815 153.266 107.953 153.266Z" fill="#8C7D5D"/>
<path d="M107.266 154.202C107.404 154.202 107.516 154.09 107.516 153.952C107.516 153.814 107.404 153.702 107.266 153.702C107.128 153.702 107.017 153.814 107.017 153.952C107.017 154.09 107.128 154.202 107.266 154.202Z" fill="#8C7D5D"/>
<path d="M108.139 154.014C108.277 154.014 108.389 153.903 108.389 153.765C108.389 153.627 108.277 153.515 108.139 153.515C108.001 153.515 107.89 153.627 107.89 153.765C107.89 153.903 108.001 154.014 108.139 154.014Z" fill="#8C7D5D"/>
<path d="M110.261 164.186C110.984 164.186 111.571 163.599 111.571 162.875C111.571 162.152 110.984 161.565 110.261 161.565C109.537 161.565 108.95 162.152 108.95 162.875C108.95 163.599 109.537 164.186 110.261 164.186Z" fill="#DBC483"/>
<path d="M110.261 163.936C110.847 163.936 111.322 163.461 111.322 162.875C111.322 162.289 110.847 161.814 110.261 161.814C109.675 161.814 109.2 162.289 109.2 162.875C109.2 163.461 109.675 163.936 110.261 163.936Z" fill="#C9B177"/>
<path d="M109.761 162.813C109.899 162.813 110.011 162.701 110.011 162.563C110.011 162.425 109.899 162.314 109.761 162.314C109.623 162.314 109.512 162.425 109.512 162.563C109.512 162.701 109.623 162.813 109.761 162.813Z" fill="#8C7D5D"/>
<path d="M110.573 162.626C110.711 162.626 110.822 162.514 110.822 162.376C110.822 162.238 110.711 162.126 110.573 162.126C110.435 162.126 110.323 162.238 110.323 162.376C110.323 162.514 110.435 162.626 110.573 162.626Z" fill="#8C7D5D"/>
<path d="M109.949 163.624C110.087 163.624 110.198 163.512 110.198 163.374C110.198 163.237 110.087 163.125 109.949 163.125C109.811 163.125 109.699 163.237 109.699 163.374C109.699 163.512 109.811 163.624 109.949 163.624Z" fill="#8C7D5D"/>
<path d="M110.759 163.437C110.897 163.437 111.009 163.325 111.009 163.187C111.009 163.049 110.897 162.938 110.759 162.938C110.622 162.938 110.51 163.049 110.51 163.187C110.51 163.325 110.622 163.437 110.759 163.437Z" fill="#8C7D5D"/>
<path d="M267.884 24.0352H196.748C187.824 24.0352 180.586 31.2736 180.586 40.1968V70.648C180.586 79.5712 187.824 86.8096 196.748 86.8096H267.884C276.807 86.8096 284.045 79.5712 284.045 70.648V40.1344C284.045 31.2736 276.807 24.0352 267.884 24.0352ZM229.57 59.416H218.837V70.4608H211.349V59.416H200.616V52.4896H211.349V41.4448H218.837V52.4896H229.57V59.416ZM260.333 72.208C257.837 74.8912 254.343 76.2016 249.725 76.2016C245.42 76.2016 241.925 75.1408 239.367 72.9568C236.808 70.7728 235.311 67.9648 234.999 64.4704H242.736C243.048 65.968 243.86 67.216 245.045 68.0896C246.231 69.0256 247.791 69.4624 249.6 69.4624C251.847 69.4624 253.532 68.776 254.655 67.3408C255.778 65.968 256.34 64.096 256.34 61.7872C256.34 59.416 255.778 57.6688 254.592 56.4208C253.407 55.1728 251.722 54.5488 249.476 54.5488C247.853 54.5488 246.543 54.9232 245.482 55.7344C244.421 56.5456 243.672 57.6064 243.236 58.9168H235.623V34.5808H261.332V41.5696H242.924V51.304C243.735 50.3056 244.858 49.4944 246.356 48.8704C247.853 48.2464 249.413 47.9344 251.098 47.9344C254.156 47.9344 256.589 48.6208 258.524 49.9312C260.458 51.2416 261.831 52.9264 262.704 55.048C263.578 57.1072 264.015 59.2912 264.015 61.6624C264.015 66.0304 262.829 69.5248 260.333 72.208Z" fill="#27C278"/>
<path d="M156 287.176C156 287.176 135.97 274.509 125.611 274.446C115.253 274.384 104.333 266.459 99.7152 266.21C99.7152 266.21 91.2912 264.088 88.0464 261.654C84.8016 259.221 68.2032 256.912 63.0864 258.035C57.9696 259.158 56.472 262.278 45.7392 264.962C35.0064 267.645 32.6976 277.317 44.9904 287.238C57.2208 297.16 97.2816 301.216 112.944 299.718C128.544 298.283 169.666 299.656 156 287.176Z" fill="#C2A981"/>
<path d="M41.995 265.898C44.3038 265.71 44.803 264.774 49.9198 265.71C54.9742 266.646 57.4078 266.771 52.7278 269.891C48.0478 273.011 44.6782 274.571 42.8062 273.136C40.9342 271.701 35.755 266.334 41.995 265.898Z" fill="#B2956B"/>
<path opacity="0.1" d="M40.123 270.453C40.123 270.453 41.683 271.888 42.1822 272.325C42.6814 272.699 43.0558 273.136 44.2414 273.198C45.427 273.261 47.5486 272.637 48.235 272.262C48.859 271.888 54.5998 268.518 54.5998 268.518C54.5998 268.518 53.1646 270.203 52.291 270.89C51.4174 271.576 47.9854 273.573 46.987 273.885C45.9886 274.197 44.9278 274.322 43.7422 274.134C42.5566 273.947 42.1198 273.323 41.9326 272.886C41.7454 272.45 40.123 270.453 40.123 270.453Z" fill="black"/>
<path d="M136.157 282.122C136.532 281.622 136.469 280.936 137.967 281.186C139.464 281.435 140.026 281.498 140.151 282.122C140.213 282.683 140.463 283.682 139.589 283.806C138.716 283.931 136.968 283.744 136.594 283.432C136.157 283.12 135.97 282.371 136.157 282.122Z" fill="#B2956B"/>
<path d="M127.296 284.618C127.795 284.181 128.731 282.559 130.915 282.995C133.099 283.432 133.598 283.619 133.536 284.431C133.473 285.242 133.848 286.739 132.787 286.989C131.789 287.301 128.981 288.487 128.294 288.237C127.608 287.863 125.673 285.991 127.296 284.618Z" fill="#B2956B"/>
<path opacity="0.1" d="M136.095 282.558C136.095 282.434 136.407 283.182 136.781 283.245C137.155 283.37 137.842 283.557 138.466 283.494C139.09 283.494 139.464 283.245 139.714 283.245C139.963 283.245 140.088 283.245 140.088 283.245C140.151 283.245 140.151 283.494 140.026 283.682C139.901 283.869 139.714 283.931 139.34 284.056C138.965 284.181 138.279 283.994 137.967 283.994C137.655 283.994 136.906 283.806 136.469 283.619C136.157 283.494 136.032 282.746 136.095 282.558Z" fill="black"/>
<path opacity="0.1" d="M126.734 286.302C126.734 286.302 127.296 286.864 127.67 286.989C128.045 287.114 127.982 286.802 128.669 286.989C129.355 287.176 128.918 287.488 129.792 287.426C130.728 287.363 132.226 286.989 132.538 286.864C132.85 286.739 133.411 286.365 133.536 285.928C133.598 285.491 133.598 286.49 133.474 286.802C133.349 287.114 132.288 287.363 132.038 287.488C131.726 287.675 130.042 288.112 129.667 288.299C129.293 288.486 128.294 288.424 127.92 288.299C127.608 288.174 126.859 286.989 126.797 286.739C126.797 286.427 126.734 286.302 126.734 286.302Z" fill="black"/>
<path opacity="0.1" d="M109.013 284.805C100.464 279.314 104.146 275.632 94.2243 272.949C84.3027 270.266 82.1811 281.622 68.7027 281.872C56.0979 282.122 41.0595 281.248 39.1875 281.123C40.5603 283.12 42.4323 285.117 44.9907 287.176C57.5331 298.782 77.4387 301.341 116.813 301.902C121.493 301.965 126.36 301.965 131.29 301.84C130.104 300.904 117.125 290.046 109.013 284.805Z" fill="#6B5C5C"/>
<defs>
<linearGradient id="paint0_linear_796_4150" x1="103.438" y1="225.231" x2="66.4602" y2="207.515" gradientUnits="userSpaceOnUse">
<stop offset="0.1204" stop-color="#935848"/>
<stop offset="0.504" stop-color="#935848"/>
<stop offset="0.6028" stop-color="#9C604E"/>
<stop offset="0.7268" stop-color="#A16552"/>
<stop offset="1" stop-color="#966444"/>
</linearGradient>
<radialGradient id="paint1_radial_796_4150" cx="0" cy="0" r="1" gradientUnits="userSpaceOnUse" gradientTransform="translate(117.353 76.9583) scale(179.093 179.093)">
<stop offset="0.1429" stop-color="#92594B"/>
<stop offset="0.2417" stop-color="#91584A"/>
<stop offset="0.2571" stop-color="#905749"/>
<stop offset="0.5513" stop-color="#814C3F"/>
<stop offset="0.7934" stop-color="#7C483C"/>
</radialGradient>
<linearGradient id="paint2_linear_796_4150" x1="138.599" y1="178.683" x2="137.262" y2="173.094" gradientUnits="userSpaceOnUse">
<stop stop-color="#968969"/>
<stop offset="0.5219" stop-color="#9A8E6C"/>
<stop offset="1" stop-color="#A39872"/>
</linearGradient>
<linearGradient id="paint3_linear_796_4150" x1="172.878" y1="240.32" x2="186.321" y2="257.997" gradientUnits="userSpaceOnUse">
<stop offset="0.1204" stop-color="#935848"/>
<stop offset="0.504" stop-color="#935848"/>
<stop offset="0.6028" stop-color="#9C604E"/>
<stop offset="0.7268" stop-color="#A16552"/>
<stop offset="1" stop-color="#966444"/>
</linearGradient>
<linearGradient id="paint4_linear_796_4150" x1="118.605" y1="234.142" x2="68.8028" y2="250.901" gradientUnits="userSpaceOnUse">
<stop offset="0.1204" stop-color="#935848"/>
<stop offset="0.504" stop-color="#935848"/>
<stop offset="0.6028" stop-color="#9C604E"/>
<stop offset="0.7268" stop-color="#A16552"/>
<stop offset="1" stop-color="#966444"/>
</linearGradient>
<linearGradient id="paint5_linear_796_4150" x1="92.6038" y1="234.288" x2="92.6038" y2="269.718" gradientUnits="userSpaceOnUse">
<stop stop-color="#130C3F"/>
<stop offset="1" stop-color="#15197B"/>
</linearGradient>
<linearGradient id="paint6_linear_796_4150" x1="74.8884" y1="252.003" x2="110.319" y2="252.003" gradientUnits="userSpaceOnUse">
<stop stop-color="#AE73FA"/>
<stop offset="1" stop-color="#AE73FA" stop-opacity="0"/>
</linearGradient>
<linearGradient id="paint7_linear_796_4150" x1="110.505" y1="252.003" x2="74.7028" y2="252.003" gradientUnits="userSpaceOnUse">
<stop stop-color="#AE73FA"/>
<stop offset="1" stop-color="#AE73FA" stop-opacity="0"/>
</linearGradient>
<linearGradient id="paint8_linear_796_4150" x1="230.051" y1="168.938" x2="91.7356" y2="249.277" gradientUnits="userSpaceOnUse">
<stop offset="0.1204" stop-color="#935848"/>
<stop offset="0.504" stop-color="#935848"/>
<stop offset="0.6028" stop-color="#9C604E"/>
<stop offset="0.7268" stop-color="#A16552"/>
<stop offset="1" stop-color="#966444"/>
</linearGradient>
<linearGradient id="paint9_linear_796_4150" x1="67.6424" y1="264.484" x2="38.6113" y2="222.753" gradientUnits="userSpaceOnUse">
<stop offset="0.1204" stop-color="#935848"/>
<stop offset="0.504" stop-color="#935848"/>
<stop offset="0.6028" stop-color="#9C604E"/>
<stop offset="0.7268" stop-color="#A16552"/>
<stop offset="1" stop-color="#966444"/>
</linearGradient>
<linearGradient id="paint10_linear_796_4150" x1="111.071" y1="83.1217" x2="104.618" y2="72.2612" gradientUnits="userSpaceOnUse">
<stop offset="0.00247105" stop-color="#161F2D"/>
<stop offset="0.8054" stop-color="#1E293A"/>
</linearGradient>
<linearGradient id="paint11_linear_796_4150" x1="131.903" y1="97.3525" x2="143.623" y2="95.6217" gradientUnits="userSpaceOnUse">
<stop stop-color="#E7BC91"/>
<stop offset="0.3993" stop-color="#F3D5B5"/>
<stop offset="0.6602" stop-color="#F5DCB4"/>
<stop offset="1" stop-color="#F5DCB4"/>
</linearGradient>
<linearGradient id="paint12_linear_796_4150" x1="78.8911" y1="105.186" x2="64.3531" y2="107.195" gradientUnits="userSpaceOnUse">
<stop stop-color="#E7BC91"/>
<stop offset="0.3993" stop-color="#F3D5B5"/>
<stop offset="0.6602" stop-color="#F5DCB4"/>
<stop offset="1" stop-color="#F5DCB4"/>
</linearGradient>
<linearGradient id="paint13_linear_796_4150" x1="104.821" y1="94.0271" x2="110.615" y2="135.925" gradientUnits="userSpaceOnUse">
<stop stop-color="#E7BC91"/>
<stop offset="0.3993" stop-color="#F3D5B5"/>
<stop offset="0.6602" stop-color="#F5DCB4"/>
<stop offset="0.7034" stop-color="#F4DAB2"/>
<stop offset="1" stop-color="#EFD3AB"/>
</linearGradient>
<radialGradient id="paint14_radial_796_4150" cx="0" cy="0" r="1" gradientUnits="userSpaceOnUse" gradientTransform="translate(109.551 128.727) rotate(-8.40073) scale(14.2068 14.2068)">
<stop offset="0.4947" stop-color="#3A2E2E"/>
<stop offset="0.8105" stop-color="#4C3B3B"/>
<stop offset="1" stop-color="#4E3F3F"/>
</radialGradient>
<radialGradient id="paint15_radial_796_4150" cx="0" cy="0" r="1" gradientUnits="userSpaceOnUse" gradientTransform="translate(109.692 126.556) rotate(172.421) scale(8.90063 4.74977)">
<stop stop-color="#E6646E"/>
<stop offset="0.4503" stop-color="#DD4E6D"/>
<stop offset="1" stop-color="#E6646E"/>
</radialGradient>
<linearGradient id="paint16_linear_796_4150" x1="73.1637" y1="97.2763" x2="143.418" y2="111.573" gradientUnits="userSpaceOnUse">
<stop stop-color="#A16552"/>
<stop offset="0.201" stop-color="#935848"/>
<stop offset="0.504" stop-color="#935848"/>
<stop offset="0.6028" stop-color="#9C604E"/>
<stop offset="0.7268" stop-color="#A16552"/>
<stop offset="1" stop-color="#966444"/>
</linearGradient>
<linearGradient id="paint17_linear_796_4150" x1="106.69" y1="114.934" x2="102.738" y2="113.649" gradientUnits="userSpaceOnUse">
<stop offset="0.4947" stop-color="#3A2E2E"/>
<stop offset="0.8105" stop-color="#4C3B3B"/>
<stop offset="1" stop-color="#4E3F3F"/>
</linearGradient>
<linearGradient id="paint18_linear_796_4150" x1="108.815" y1="114.652" x2="112.343" y2="112.237" gradientUnits="userSpaceOnUse">
<stop offset="0.4947" stop-color="#3A2E2E"/>
<stop offset="0.8105" stop-color="#4C3B3B"/>
<stop offset="1" stop-color="#4E3F3F"/>
</linearGradient>
<linearGradient id="paint19_linear_796_4150" x1="94.6174" y1="101.908" x2="97.8355" y2="109.384" gradientUnits="userSpaceOnUse">
<stop offset="0.4947" stop-color="#3A2E2E"/>
<stop offset="0.8105" stop-color="#4C3B3B"/>
<stop offset="1" stop-color="#4E3F3F"/>
</linearGradient>
<radialGradient id="paint20_radial_796_4150" cx="0" cy="0" r="1" gradientUnits="userSpaceOnUse" gradientTransform="translate(97.8375 101.933) rotate(-8.40074) scale(4.18729 4.1873)">
<stop stop-color="#5D5360"/>
<stop offset="1" stop-color="#5D5360" stop-opacity="0.4"/>
</radialGradient>
<linearGradient id="paint21_linear_796_4150" x1="72.4601" y1="113.751" x2="111.527" y2="101.368" gradientUnits="userSpaceOnUse">
<stop stop-color="#4E3F3F"/>
<stop offset="0.1436" stop-color="#4E3F3F" stop-opacity="0.7"/>
<stop offset="0.7306" stop-color="#4E3F3F" stop-opacity="0.2"/>
<stop offset="1" stop-color="#4E3F3F" stop-opacity="0"/>
</linearGradient>
<linearGradient id="paint22_linear_796_4150" x1="114.633" y1="98.8404" x2="117.851" y2="106.317" gradientUnits="userSpaceOnUse">
<stop offset="0.4947" stop-color="#3A2E2E"/>
<stop offset="0.8105" stop-color="#4C3B3B"/>
<stop offset="1" stop-color="#4E3F3F"/>
</linearGradient>
<radialGradient id="paint23_radial_796_4150" cx="0" cy="0" r="1" gradientUnits="userSpaceOnUse" gradientTransform="translate(117.853 98.8651) rotate(-8.40074) scale(4.18728 4.18729)">
<stop stop-color="#5D5360"/>
<stop offset="1" stop-color="#5D5360" stop-opacity="0.4"/>
</radialGradient>
<linearGradient id="paint24_linear_796_4150" x1="108.305" y1="184.565" x2="107.801" y2="178.576" gradientUnits="userSpaceOnUse">
<stop stop-color="#968969"/>
<stop offset="0.5219" stop-color="#9A8E6C"/>
<stop offset="1" stop-color="#A39872"/>
</linearGradient>
</defs>
</svg>
