<svg width="318" height="324" viewBox="0 0 318 324" fill="none" xmlns="http://www.w3.org/2000/svg">
<path d="M23.4381 217.163C77.3389 294.748 147.14 219.799 172.406 181.85C225.043 118.602 239.782 198.716 298.209 125.453C356.637 52.1908 272.417 1.06525 217.148 0.0111098C161.878 -1.04303 182.406 73.2737 115.557 71.1654C48.7071 69.0572 -43.9379 120.183 23.4381 217.163Z" fill="#383838"/>
<g clip-path="url(#clip0_796_4145)">
<mask id="mask0_796_4145" style="mask-type:alpha" maskUnits="userSpaceOnUse" x="22" y="27" width="279" height="279">
<path d="M161.501 305.966C238.491 305.966 300.903 243.554 300.903 166.565C300.903 89.5753 238.491 27.1631 161.501 27.1631C84.5118 27.1631 22.0996 89.5753 22.0996 166.565C22.0996 243.554 84.5118 305.966 161.501 305.966Z" fill="white"/>
</mask>
<g mask="url(#mask0_796_4145)">
<path d="M137.976 213.926L135.979 254.237L163.997 245.937L168.864 203.88L137.976 213.926Z" fill="url(#paint0_linear_796_4145)"/>
<path d="M130.863 236.141L135.98 257.606C135.98 257.606 118.82 320.755 119.132 320.194C119.444 319.694 117.821 369.115 117.821 369.115H111.145L107.588 335.357L115.762 273.955L130.863 236.141Z" fill="#756C54"/>
<path d="M130.301 258.48C130.301 258.48 131.674 253.301 131.549 249.557C131.487 245.813 129.428 236.765 128.991 233.021C128.554 229.277 128.429 222.6 129.241 221.539C130.052 220.478 130.114 220.603 129.428 219.542C128.679 218.482 128.305 216.298 128.367 213.677C128.367 211.118 138.663 213.365 138.663 213.365L143.468 214.675C143.468 214.675 143.842 219.355 143.468 225.221C143.093 231.086 143.281 237.389 141.533 242.069C139.786 246.749 138.351 249.494 138.351 249.494L130.301 258.48Z" fill="#62613A"/>
<path d="M16.9829 246.624C16.9829 246.624 26.7797 244.689 29.5877 243.941C32.3957 243.192 32.2085 245.064 34.6421 242.069C37.0757 239.073 45.4373 239.011 46.6229 238.637C47.7461 238.262 54.0485 237.763 55.1717 235.766C56.2949 233.769 59.7893 234.456 60.5381 233.769C61.2869 233.083 77.7605 226.406 84.9365 219.105C92.1125 211.805 100.162 202.944 106.964 201.259C113.765 199.574 126.62 197.328 126.62 197.328L129.053 204.566C129.053 204.566 113.204 216.173 111.706 228.091C110.146 240.009 106.589 264.221 106.589 264.221C106.589 264.221 97.9781 266.592 94.5461 267.653C91.1141 268.713 85.9973 269.712 83.8757 270.336C81.7541 270.96 77.1365 272.333 73.3925 272.457C69.6485 272.582 67.5269 271.958 66.0917 272.457C64.6565 272.957 62.7221 273.893 62.4725 274.891C62.2229 275.889 60.7253 277.325 58.7909 278.947C56.8565 280.569 50.6165 283.814 49.1813 285.499C47.7461 287.184 45.8117 288.245 44.6885 287.808C43.5653 287.371 41.9429 286.248 41.9429 286.248C41.9429 286.248 13.6133 258.729 13.2389 254.361C12.8645 249.993 16.9829 246.624 16.9829 246.624Z" fill="#777548"/>
<path d="M129.053 204.566L126.994 198.451C126.994 198.451 123.188 199.075 119.007 200.198C114.826 201.322 109.21 207.187 102.096 211.493C95.0452 215.798 74.8276 239.261 71.2708 242.318C67.714 245.376 59.29 241.008 55.1716 240.821C51.1156 240.696 55.7956 243.941 52.9876 243.442C50.1796 242.942 45.4372 240.509 43.6276 242.568C41.7556 244.627 38.4484 247.872 38.4484 247.872L34.8916 276.202C38.698 281.755 41.8804 286.186 41.8804 286.186C41.8804 286.186 43.5028 287.309 44.626 287.746C45.7492 288.182 47.6836 287.122 49.1188 285.437C50.554 283.752 56.794 280.57 58.7284 278.885C60.6628 277.2 62.1604 275.827 62.41 274.829C62.6596 273.83 64.594 272.832 66.0292 272.395C67.4644 271.896 69.586 272.52 73.33 272.395C77.074 272.27 81.6916 270.898 83.8132 270.274C85.9348 269.65 91.114 268.651 94.4836 267.59C97.9156 266.592 106.527 264.158 106.527 264.158C106.527 264.158 110.084 239.947 111.644 228.029C113.204 216.235 129.053 204.566 129.053 204.566Z" fill="#62613A"/>
<path d="M105.716 222.038C103.844 223.598 103.781 222.163 103.407 224.41C103.033 226.656 104.717 230.587 104.78 233.894C104.842 237.202 104.905 240.883 103.594 243.691C102.284 246.499 102.097 251.741 101.722 255.422C101.348 259.104 102.596 259.478 101.722 259.603C100.849 259.728 94.0471 257.17 91.3639 255.984C88.6807 254.798 82.0663 253.862 80.3191 253.738C78.5719 253.613 82.8151 254.923 85.2487 256.109C87.6823 257.294 99.6007 261.038 100.349 261.725C101.098 262.474 99.2263 263.035 96.4807 262.786C93.7351 262.536 86.8087 261.475 83.6263 260.414C80.5063 259.416 79.1335 259.666 79.5079 260.414C79.8199 261.163 83.9383 263.222 87.1831 263.534C90.4903 263.846 92.5495 263.909 94.4215 264.158C96.2935 264.408 93.1735 266.218 91.2391 266.717C89.3047 267.216 83.1895 266.218 81.1303 266.093C79.0711 265.968 78.1351 267.715 75.8887 267.778C73.6423 267.84 68.5879 267.029 69.9607 269.088C71.2711 271.147 68.0887 270.586 66.4663 270.586C64.8439 270.586 61.9735 271.397 60.9751 270.835C59.9767 270.274 59.7895 265.157 58.7287 263.035C57.6679 260.914 56.9191 260.414 56.3575 261.163C55.7959 261.912 59.0407 267.403 59.0407 271.584C59.0407 275.702 58.4791 275.765 56.4823 275.64C54.4855 275.515 53.7991 276.202 52.5511 278.136C51.3031 280.07 45.7495 281.818 43.1287 281.194L39.9463 283.627C41.0695 285.187 41.7559 286.123 41.7559 286.123C41.7559 286.123 43.3783 287.246 44.5015 287.683C45.6247 288.12 47.5591 287.059 48.9943 285.374C50.4295 283.69 56.6695 280.507 58.6039 278.822C60.5383 277.138 62.0359 275.765 62.2855 274.766C62.5351 273.768 64.4695 272.77 65.9047 272.333C67.3399 271.834 69.4615 272.458 73.2055 272.333C76.9495 272.208 81.5671 270.835 83.6887 270.211C85.8103 269.587 90.9895 268.589 94.3591 267.528C97.7911 266.53 106.402 264.096 106.402 264.096C106.402 264.096 109.959 239.885 111.519 227.966C112.018 224.222 113.89 220.478 116.261 217.171C111.893 216.422 107.588 220.478 105.716 222.038Z" fill="#545230"/>
<path d="M113.828 369.053C113.828 369.053 110.146 347.899 111.644 333.048C113.141 318.197 117.572 306.091 119.444 298.042C121.316 289.992 122.127 265.282 125.559 255.422C128.991 245.563 130.863 237.576 130.863 237.576V214.301L116.573 208.934C116.573 208.934 110.333 214.613 107.65 222.413C104.967 230.213 105.528 242.131 105.528 249.245C105.528 256.358 104.967 272.582 104.218 277.637C103.469 282.691 102.908 316.637 102.596 321.13C102.346 325.685 104.717 364.498 103.781 368.99C109.522 369.614 113.828 369.053 113.828 369.053Z" fill="#A39872"/>
<path d="M125.933 221.165C124.747 222.787 123.811 226.157 122.126 229.277C120.442 232.334 110.957 248.434 108.398 241.382C105.84 234.331 108.773 226.406 109.771 222.85C110.77 219.293 113.765 216.547 112.766 219.168C111.768 221.789 109.022 230.712 109.085 236.078C109.147 241.445 112.829 238.886 115.013 236.078C117.197 233.27 122.438 225.346 123.187 221.602C123.936 217.858 126.557 212.741 126.557 212.741L116.635 208.997C116.635 208.997 114.202 211.805 111.643 214.925C110.208 217.046 108.71 219.605 107.712 222.475C105.029 230.275 105.59 242.194 105.59 249.307C105.59 254.674 105.278 265.157 104.779 272.146C104.779 272.146 108.586 270.086 110.021 269.587C111.456 269.088 112.392 275.453 114.638 280.57C116.822 285.686 121.627 280.57 121.627 280.57C122.501 271.646 123.562 261.912 125.309 256.234C125.309 256.171 125.371 256.109 125.371 256.046C125.371 255.672 124.997 254.798 121.752 253.738C117.259 252.302 115.138 246.686 115.949 244.066C116.822 241.445 121.378 241.694 123.874 237.514C126.37 233.333 130.862 228.403 130.862 228.403V218.357C130.925 218.357 127.181 219.542 125.933 221.165Z" fill="#938765"/>
<path d="M114.577 330.302C114.577 330.302 116.137 316.637 114.577 307.339C113.017 298.042 118.134 289.867 119.943 282.317C121.753 274.766 124.124 264.845 132.673 255.672C141.222 246.499 155.823 230.774 156.447 229.651C157.071 228.528 156.946 230.026 156.447 224.659C155.948 219.293 156.447 218.544 158.132 217.296C159.817 216.048 164.122 210.058 164.122 210.058L181.345 227.28C181.345 227.28 148.585 272.832 145.09 296.045C141.596 319.258 136.729 369.053 136.729 369.053H113.89C113.828 369.053 113.953 342.533 114.577 330.302Z" fill="#777548"/>
<path d="M176.477 234.331C176.477 234.331 168.927 226.843 166.556 223.786C164.184 220.728 158.943 216.734 160.316 214.987C160.316 214.987 161.688 212.678 163.56 212.928C165.37 213.115 177.476 220.728 177.476 220.728L181.344 227.28L176.477 234.331Z" fill="#545230"/>
<path d="M135.48 369.302C135.48 369.302 130.988 317.822 144.716 281.568C158.444 245.314 176.789 222.288 176.789 222.288L181.532 225.907C181.532 225.907 182.904 226.968 183.716 224.659C184.464 222.288 183.965 215.362 189.082 211.243C194.199 207.125 216.725 218.856 216.725 218.856C216.725 218.856 231.639 223.162 235.133 225.533C238.628 227.966 244.056 237.264 245.18 240.571C246.24 243.878 247.301 246.562 247.301 257.107C247.301 267.653 246.802 267.59 244.68 273.206C242.559 278.822 241.872 286.622 240.5 293.674C239.127 300.725 222.092 331.363 223.714 347.837C225.399 364.31 223.964 368.366 223.964 368.366L135.48 369.302Z" fill="#A39872"/>
<path d="M191.017 236.141C188.084 239.198 186.961 243.379 181.345 245.938C175.729 248.496 173.357 246.437 174.668 251.179C175.978 255.922 172.484 269.15 177.164 265.344C181.844 261.538 180.97 255.797 184.901 253.613C188.833 251.429 195.509 250.181 195.509 250.181L191.017 236.141Z" fill="#938765"/>
<path d="M213.605 206.251C213.605 206.251 218.223 211.243 222.279 214.051C226.335 216.859 224.588 217.109 228.145 218.544C231.701 219.979 235.009 221.165 235.82 224.285C236.631 227.405 235.258 227.28 235.82 228.466C236.381 229.651 238.316 231.086 239.189 232.584C240.063 234.082 241.061 234.456 241.81 234.643C242.559 234.83 243.682 234.955 242.621 237.888C241.561 240.821 239.751 240.634 239.626 242.131C239.501 243.629 240.001 244.814 241.436 246C242.809 247.186 245.741 253.426 245.429 258.917C245.117 264.47 222.092 243.192 222.092 243.192L202.623 208.061L213.605 206.251Z" fill="#777548"/>
<path d="M239.127 232.397C239.127 232.397 239.065 232.397 239.127 232.397C238.94 232.21 235.009 229.027 233.511 227.717C231.951 226.406 233.137 228.341 234.073 229.589C235.009 230.774 236.319 231.773 237.755 235.766C239.252 239.76 239.627 242.443 239.627 242.443C239.627 242.318 239.627 242.194 239.627 242.069C239.689 241.07 240.563 240.821 241.436 239.822C242.31 237.576 241.811 236.952 240.875 235.704C240.063 234.518 239.252 232.646 239.127 232.397Z" fill="#62613A"/>
<path d="M222.341 221.664C222.591 223.224 223.839 223.411 224.65 223.661C224.713 223.661 224.775 223.723 224.837 223.723C224.837 223.723 229.517 224.784 231.202 225.221C232.887 225.658 233.761 226.781 234.821 227.217C235.882 227.654 234.946 225.408 234.572 224.409C234.26 223.411 233.636 222.538 231.639 221.477C229.642 220.416 227.084 220.229 224.775 219.792C222.591 219.355 222.029 220.041 222.341 221.664Z" fill="#62613A"/>
<path d="M233.823 230.525C233.699 230.088 232.513 228.341 231.889 227.592C231.265 226.843 228.831 226.032 227.521 225.907C226.211 225.782 226.086 226.469 226.398 227.53C226.71 228.59 227.147 228.84 227.521 229.027C227.521 229.027 230.516 229.339 231.951 229.963C233.387 230.65 233.948 230.899 233.823 230.525Z" fill="#62613A"/>
<path d="M232.139 233.021C232.575 233.707 236.382 238.137 237.068 238.886C237.755 239.635 236.819 236.328 236.132 234.893C235.446 233.457 234.198 232.209 232.95 231.648C231.764 231.086 230.267 230.774 229.518 230.961C228.769 231.211 231.39 231.897 232.139 233.021Z" fill="#62613A"/>
<path d="M161.127 213.989C161.127 213.989 168.178 215.611 172.796 218.731C177.413 221.851 178.911 226.032 182.905 226.843C184.277 227.342 183.841 225.595 185.525 217.92C187.21 210.245 192.577 200.635 192.577 200.635L174.668 196.267L161.127 213.989Z" fill="#C0BA92"/>
<path d="M157.945 236.64C157.945 236.64 158.194 239.635 156.01 242.63C153.826 245.625 149.833 247.31 148.023 248.808C146.214 250.305 130.863 258.48 130.863 258.48L150.519 240.259L157.945 236.64Z" fill="#62613A"/>
<path d="M129.24 259.853C129.24 259.853 144.403 246.936 150.955 243.254C157.507 239.573 157.383 237.95 158.381 235.392C159.379 232.834 159.005 230.899 157.944 229.963C156.883 229.027 156.883 229.027 156.883 229.027C156.883 229.027 152.64 232.896 146.962 239.074C141.283 245.251 130.863 256.358 129.24 259.853Z" fill="#C0BA92"/>
<path d="M197.569 259.853C197.569 259.853 195.759 263.597 196.571 269.837C197.382 276.077 199.129 279.259 207.303 286.81C215.478 294.36 216.851 298.79 221.718 299.414C226.585 300.038 235.633 295.234 236.507 293.174C237.38 291.115 231.515 295.234 225.649 293.05C219.783 290.866 210.361 285.499 207.553 278.51C204.745 271.522 197.569 259.853 197.569 259.853Z" fill="#938765"/>
<path d="M176.852 113.525L174.169 98.6735C174.169 98.6735 174.418 97.4255 170.924 95.4911C167.429 93.5567 154.138 86.0687 144.092 84.9455C134.045 83.8223 125.06 85.5695 117.073 89.7503C109.148 93.9311 108.399 97.9247 107.9 101.17C107.401 104.414 105.092 111.091 105.092 111.091L176.852 113.525Z" fill="url(#paint1_linear_796_4145)"/>
<path d="M186.711 112.901L183.341 93.9312C183.341 93.9312 183.653 92.3088 179.223 89.8752C174.793 87.4416 157.82 77.832 145.028 76.4592C132.236 75.0864 120.754 77.2704 110.645 82.6368C100.537 88.0032 99.6006 93.0576 98.9142 97.2384C98.2902 101.357 95.3574 109.906 95.3574 109.906L186.711 112.901Z" fill="#7C5535"/>
<path fill-rule="evenodd" clip-rule="evenodd" d="M172.546 109.906C172.546 109.906 168.802 112.152 163.934 107.347C159.067 102.605 152.827 91.6847 152.515 88.0655C152.203 84.3839 151.766 83.3231 155.635 84.7583C159.504 86.1935 165.12 89.1263 167.928 89.3759C170.674 89.6255 174.106 93.6815 174.792 95.9279C175.478 98.1743 174.73 96.1775 171.36 94.7423C167.928 93.2447 163.435 94.2431 165.432 100.109C167.491 105.974 174.667 109.344 172.546 109.906Z" fill="#603E26"/>
<path fill-rule="evenodd" clip-rule="evenodd" d="M108.586 114.461C108.586 114.461 113.141 117.082 118.944 111.216C124.685 105.35 132.048 92.1217 132.36 87.6913C132.672 83.2609 133.172 82.0129 128.492 83.8225C123.812 85.6321 117.072 89.2513 113.765 89.6257C110.458 89.9377 106.402 94.9297 105.591 97.6753C104.842 100.421 105.653 97.9873 109.709 96.1777C113.765 94.3057 119.256 95.4289 116.948 102.543C114.639 109.656 106.028 113.899 108.586 114.461Z" fill="#603E26"/>
<path d="M210.236 119.952C196.695 114.211 186.586 110.904 164.933 109.656C150.706 108.845 127.992 108.408 110.021 108.72C110.021 108.72 99.538 106.723 88.8052 100.109C78.0724 93.5567 64.2196 95.9903 56.794 98.7359C52.114 100.483 53.9236 112.277 55.858 120.638C57.2308 126.566 60.3508 131.995 64.8436 136.114C68.7748 139.733 74.1412 144.038 80.506 147.346C97.6036 156.269 111.956 158.827 111.956 158.827C111.956 158.827 133.671 159.451 168.802 157.891C203.933 156.394 220.157 142.915 224.151 138.547C228.144 134.179 223.776 125.755 210.236 119.952Z" fill="#8C6239"/>
<path d="M192.764 125.194C192.764 125.194 119.444 115.896 95.7317 126.754C87.5573 132.245 88.2437 142.229 97.3541 144.288C106.465 146.347 192.764 125.194 192.764 125.194Z" fill="#603E26"/>
<path d="M195.135 153.086C193.45 155.894 191.578 157.704 189.644 158.702C188.021 154.522 186.898 150.154 186.274 145.661C186.212 145.411 186.212 145.162 186.149 144.912C185.588 141.23 184.589 137.611 183.092 134.179C184.652 133.306 186.649 132.806 189.269 133.43C196.196 135.053 199.503 145.598 195.135 153.086Z" fill="#A16552"/>
<path d="M195.135 153.086C193.45 155.894 191.578 157.704 189.644 158.702C188.021 154.522 186.898 150.154 186.274 145.661C186.212 145.411 186.212 145.162 186.149 144.912C185.588 141.23 184.589 137.611 183.092 134.179C184.652 133.306 186.649 132.806 189.269 133.43C196.196 135.053 199.503 145.598 195.135 153.086Z" fill="url(#paint2_linear_796_4145)"/>
<path d="M94.5465 146.659C94.0473 150.341 94.1097 154.085 94.6089 157.766C94.6713 158.016 94.6713 158.266 94.7337 158.515C95.3577 162.946 95.4825 167.501 95.1081 171.931C92.9241 171.494 90.6153 170.309 88.2441 168.062C82.0041 162.072 82.2537 151.027 88.4313 147.595C90.7401 146.285 92.7993 146.222 94.5465 146.659C94.5465 146.597 94.5465 146.659 94.5465 146.659Z" fill="#A16552"/>
<path d="M94.5465 146.659C94.0473 150.341 94.1097 154.085 94.6089 157.766C94.6713 158.016 94.6713 158.266 94.7337 158.515C95.3577 162.946 95.4825 167.501 95.1081 171.931C92.9241 171.494 90.6153 170.309 88.2441 168.062C82.0041 162.072 82.2537 151.027 88.4313 147.595C90.7401 146.285 92.7993 146.222 94.5465 146.659C94.5465 146.597 94.5465 146.659 94.5465 146.659Z" fill="url(#paint3_linear_796_4145)"/>
<path d="M175.416 160.824C173.919 164.131 173.919 167.938 175.541 171.182C176.789 173.616 177.975 176.424 178.287 178.608C180.471 194.395 167.304 209.309 148.834 211.867C130.364 214.426 113.578 203.755 111.394 187.968C111.082 185.784 111.456 182.789 111.956 180.106C112.642 176.549 111.644 172.867 109.272 170.122C106.964 167.438 105.466 164.131 105.029 160.637C103.532 150.154 111.269 140.419 122.314 138.859C125.871 138.36 129.49 138.797 132.86 140.107C136.791 141.667 141.221 141.043 144.591 138.485C147.461 136.301 150.831 134.928 154.388 134.429C165.37 132.869 175.541 140.17 176.976 150.653C177.351 153.274 177.164 155.957 176.352 158.453C176.103 159.202 175.791 160.013 175.416 160.824Z" fill="#A16552"/>
<path d="M175.416 160.824C173.919 164.131 173.919 167.938 175.541 171.182C176.789 173.616 177.975 176.424 178.287 178.608C180.471 194.395 167.304 209.309 148.834 211.867C130.364 214.426 113.578 203.755 111.394 187.968C111.082 185.784 111.456 182.789 111.956 180.106C112.642 176.549 111.644 172.867 109.272 170.122C106.964 167.438 105.466 164.131 105.029 160.637C103.532 150.154 111.269 140.419 122.314 138.859C125.871 138.36 129.49 138.797 132.86 140.107C136.791 141.667 141.221 141.043 144.591 138.485C147.461 136.301 150.831 134.928 154.388 134.429C165.37 132.869 175.541 140.17 176.976 150.653C177.351 153.274 177.164 155.957 176.352 158.453C176.103 159.202 175.791 160.013 175.416 160.824Z" fill="url(#paint4_linear_796_4145)"/>
<path d="M191.079 129.624C186.898 128.626 183.903 129.874 181.844 131.496C181.095 129.998 180.221 128.501 179.348 127.066C178.661 126.005 177.975 125.006 177.226 124.008C169.613 113.774 158.132 106.037 145.901 103.79L144.778 97.5505L137.852 103.166H136.916C136.354 103.166 135.793 103.229 135.231 103.291L133.484 98.6737L132.985 97.3633C132.61 97.4257 132.236 97.4881 131.861 97.5505C124.935 99.1105 122.314 105.974 121.877 107.16C110.77 112.651 101.847 123.322 97.3542 135.24C96.9174 136.426 96.543 137.611 96.1686 138.797C95.6694 140.419 95.2951 142.042 94.9831 143.726L94.6711 143.602C92.2999 142.728 89.1798 142.478 85.623 144.475C77.7606 148.843 77.4486 162.883 85.3734 170.496C88.6182 173.616 91.8007 175.114 94.6711 175.55C94.6711 175.738 94.671 175.862 94.6086 176.05C94.4214 178.421 94.4838 180.792 94.8582 183.163C97.167 199.45 111.145 211.805 129.241 215.549C133.484 216.422 137.852 216.797 142.157 216.734C144.404 216.672 146.65 216.485 148.897 216.235L149.396 216.173C176.477 212.366 195.884 191.462 192.764 169.435C192.452 167.064 191.828 164.755 191.017 162.571C190.954 162.446 190.892 162.259 190.829 162.134C193.513 160.886 196.133 158.578 198.38 154.709C203.996 145.037 199.877 131.683 191.079 129.624ZM94.5462 146.659C94.047 150.341 94.1094 154.085 94.6086 157.766C94.671 158.016 94.671 158.266 94.7334 158.515C95.3574 162.946 95.4822 167.501 95.1078 171.931C92.9238 171.494 90.615 170.309 88.2438 168.062C82.0038 162.072 82.2534 151.027 88.431 147.595C90.7399 146.285 92.799 146.222 94.5462 146.659C94.5462 146.597 94.5462 146.659 94.5462 146.659ZM176.353 158.39C176.103 159.202 175.791 160.013 175.417 160.824C173.919 164.131 173.919 167.938 175.541 171.182C176.789 173.616 177.975 176.424 178.287 178.608C180.471 194.395 167.305 209.309 148.834 211.867C130.364 214.426 113.578 203.755 111.394 187.968C111.082 185.784 111.457 182.789 111.956 180.106C112.642 176.549 111.644 172.867 109.273 170.122C106.964 167.438 105.466 164.131 105.029 160.637C103.532 150.154 111.269 140.419 122.314 138.859C125.871 138.36 129.49 138.797 132.86 140.107C136.791 141.667 141.221 141.043 144.591 138.485C147.461 136.301 150.831 134.928 154.388 134.429C165.37 132.869 175.541 140.17 176.977 150.653C177.289 153.211 177.101 155.832 176.353 158.39ZM195.135 153.086C193.45 155.894 191.578 157.704 189.644 158.702C188.021 154.522 186.898 150.154 186.274 145.661C186.212 145.411 186.212 145.162 186.149 144.912C185.588 141.23 184.589 137.611 183.092 134.179C184.652 133.306 186.649 132.806 189.269 133.43C196.196 135.053 199.503 145.598 195.135 153.086Z" fill="url(#paint5_linear_796_4145)"/>
<path d="M134.982 173.741V173.678C135.231 172.867 136.105 172.368 136.916 172.618L140.972 173.803C141.783 174.053 142.282 174.926 142.033 175.738V175.8C141.783 176.611 140.91 177.11 140.098 176.861L136.042 175.675C135.231 175.488 134.732 174.614 134.982 173.741Z" fill="url(#paint6_linear_796_4145)"/>
<path d="M145.464 175.363L145.402 175.301C144.965 174.552 145.152 173.616 145.901 173.117L149.458 170.87C150.207 170.434 151.143 170.621 151.642 171.37L151.704 171.432C152.141 172.181 151.954 173.117 151.205 173.616L147.648 175.862C146.9 176.362 145.964 176.112 145.464 175.363Z" fill="url(#paint7_linear_796_4145)"/>
<path d="M124.873 165.629C121.69 166.065 118.82 164.006 118.383 161.011L118.133 159.201C117.697 156.206 119.943 153.398 123.125 152.961C126.308 152.525 129.178 154.584 129.615 157.579L129.865 159.389C130.239 162.384 127.993 165.129 124.873 165.629Z" fill="url(#paint8_linear_796_4145)"/>
<path d="M123.063 152.961L123.937 159.264C124.249 160.824 125.747 161.885 127.307 161.573C128.804 161.323 129.803 159.95 129.678 158.453L129.553 157.579C129.116 154.584 126.246 152.525 123.063 152.961Z" fill="url(#paint9_radial_796_4145)"/>
<path d="M124.552 157.688C125.61 157.54 126.356 156.618 126.217 155.628C126.078 154.638 125.108 153.956 124.05 154.104C122.992 154.252 122.247 155.175 122.386 156.165C122.524 157.154 123.494 157.837 124.552 157.688Z" fill="white"/>
<path d="M120.817 114.96C122.065 112.526 123.375 110.28 124.623 108.283C125.372 107.098 126.121 106.037 126.807 105.038C129.677 101.045 132.173 98.6736 133.484 98.6112L132.985 97.3008C132.61 97.3632 132.236 97.4256 131.861 97.488C124.935 99.048 122.314 105.912 121.877 107.098C110.77 112.589 101.847 123.259 97.3542 135.178C96.9174 136.363 96.543 137.549 96.1686 138.734C95.6694 140.357 95.2951 141.979 94.9831 143.664L94.6711 143.539C92.2999 142.666 89.1798 142.416 85.623 144.413C77.7606 148.781 77.4486 162.821 85.3734 170.434C88.6182 173.491 91.7383 174.989 94.6711 175.488C94.6711 175.675 94.671 175.8 94.6086 175.987C94.4214 178.358 94.4838 180.73 94.8582 183.101C97.167 199.387 111.145 211.742 129.241 215.486C133.484 216.36 137.852 216.734 142.157 216.672C142.157 216.672 130.301 212.242 122.127 201.696C114.701 192.149 112.018 175.301 111.893 158.203C112.018 151.214 112.143 146.347 112.143 146.347C112.33 139.421 116.449 122.947 120.817 114.96Z" fill="url(#paint10_linear_796_4145)"/>
<path d="M158.818 160.637C155.636 161.074 152.765 159.014 152.328 156.019L152.079 154.21C151.642 151.214 153.888 148.406 157.071 147.97C160.253 147.533 163.124 149.592 163.56 152.587L163.81 154.397C164.184 157.454 161.938 160.2 158.818 160.637Z" fill="url(#paint11_linear_796_4145)"/>
<path d="M157.071 147.97L157.945 154.272C158.257 155.832 159.754 156.893 161.314 156.581C162.812 156.331 163.81 154.958 163.686 153.461L163.561 152.587C163.124 149.592 160.191 147.533 157.071 147.97Z" fill="url(#paint12_radial_796_4145)"/>
<path d="M158.561 152.754C159.619 152.606 160.364 151.683 160.226 150.693C160.087 149.704 159.117 149.022 158.059 149.17C157.001 149.318 156.256 150.24 156.395 151.23C156.533 152.22 157.503 152.902 158.561 152.754Z" fill="white"/>
<path d="M139.537 194.333C140.223 198.825 144.092 202.008 148.086 201.384C152.079 200.76 154.762 196.579 154.076 192.024C153.39 187.531 149.521 184.349 145.527 184.973C141.534 185.659 138.85 189.84 139.537 194.333Z" fill="url(#paint13_radial_796_4145)"/>
<path d="M101.909 124.382C101.909 124.382 168.989 122.51 193.887 125.131C172.546 111.528 144.903 101.419 144.903 101.419L118.133 108.72L108.149 109.781L101.909 124.382Z" fill="#8C6239"/>
<path d="M120.317 107.846L163.623 108.97L153.015 94.2433L128.242 93.5569L120.317 107.846Z" fill="#7C5535"/>
<path fill-rule="evenodd" clip-rule="evenodd" d="M172.546 109.906C172.546 109.906 168.802 112.152 163.934 107.347C159.067 102.605 152.827 91.6847 152.515 88.0655C152.203 84.3839 151.766 83.3231 155.635 84.7583C159.504 86.1935 165.12 89.1263 167.928 89.3759C170.674 89.6255 174.106 93.6815 174.792 95.9279C175.478 98.1743 174.73 96.1775 171.36 94.7423C167.928 93.2447 163.435 94.2431 165.432 100.109C167.491 105.974 174.667 109.344 172.546 109.906Z" fill="#603E26"/>
<path fill-rule="evenodd" clip-rule="evenodd" d="M108.586 114.461C108.586 114.461 113.141 117.082 118.944 111.216C124.685 105.35 132.048 92.1217 132.36 87.6913C132.672 83.2609 133.172 82.0129 128.492 83.8225C123.812 85.6321 117.072 89.2513 113.765 89.6257C110.458 89.9377 106.402 94.9297 105.591 97.6753C104.842 100.421 105.653 97.9873 109.709 96.1777C113.765 94.3057 119.256 95.4289 116.948 102.543C114.639 109.656 106.028 113.899 108.586 114.461Z" fill="#603E26"/>
<path d="M110.084 108.72C128.055 108.408 150.769 108.845 164.996 109.656C185.838 110.842 196.009 113.962 208.863 119.328C208.863 119.328 200.314 115.022 191.454 112.277C182.593 109.531 176.478 109.157 168.241 108.47C160.004 107.784 127.93 107.285 119.194 107.659C116.386 107.784 112.33 108.034 108.212 108.346C109.335 108.595 110.084 108.72 110.084 108.72Z" fill="#A57955"/>
<path d="M117.198 108.658H127.431L124.873 113.213L105.279 116.333L110.084 108.72L117.198 108.658Z" fill="#8C6239"/>
</g>
<g opacity="0.5">
<mask id="mask1_796_4145" style="mask-type:alpha" maskUnits="userSpaceOnUse" x="67" y="16" width="230" height="230">
<path d="M225.53 237.199C284.057 213.339 312.108 146.422 288.183 87.7352C264.259 29.0484 197.418 0.815369 138.891 24.675C80.3637 48.5347 52.3128 115.452 76.2375 174.139C100.162 232.825 167.003 261.058 225.53 237.199Z" fill="white"/>
</mask>
<g mask="url(#mask1_796_4145)">
<path d="M182.218 130.934L53.4869 89.4382L43.5029 130.934H182.218Z" fill="url(#paint14_linear_796_4145)"/>
<path d="M182.218 130.934L44.5635 140.294L62.2851 202.694L182.218 130.934Z" fill="url(#paint15_linear_796_4145)"/>
<path d="M182.218 130.934L101.598 234.83L127.681 250.181L182.218 130.934Z" fill="url(#paint16_linear_796_4145)"/>
<path d="M182.218 130.934L136.604 258.293L155.448 265.157L182.218 130.934Z" fill="url(#paint17_linear_796_4145)"/>
<path d="M182.218 130.934L262.152 240.259L307.579 207.374L182.218 130.934Z" fill="url(#paint18_linear_796_4145)"/>
<path d="M182.218 130.934L319.373 196.704L321.432 143.602L182.218 130.934Z" fill="url(#paint19_linear_796_4145)"/>
<path d="M182.218 130.934L294.226 68.6591L284.304 51.8735L182.218 130.934Z" fill="url(#paint20_linear_796_4145)"/>
<path d="M182.218 130.934L269.016 29.2847L228.082 4.13745L182.218 130.934Z" fill="url(#paint21_linear_796_4145)"/>
<path d="M182.218 130.934L102.283 21.6094L67.5889 61.7326L182.218 130.934Z" fill="url(#paint22_linear_796_4145)"/>
</g>
</g>
<path d="M190.829 154.085C190.829 154.085 189.893 150.154 191.828 148.469C193.762 146.784 196.258 157.33 196.258 157.33L196.757 169.498L189.207 162.883L190.829 154.085Z" fill="url(#paint23_linear_796_4145)"/>
<path d="M176.851 146.035C176.851 146.035 179.847 147.096 181.344 148.781C182.842 150.466 182.592 160.325 182.592 160.325L177.787 160.512L176.165 147.72L176.851 146.035Z" fill="url(#paint24_linear_796_4145)"/>
<path d="M193.262 151.713L187.521 143.414L176.851 148.406L193.262 151.713Z" fill="url(#paint25_linear_796_4145)"/>
<path d="M187.521 143.414L197.381 135.49L193.262 151.714L187.521 143.414Z" fill="url(#paint26_linear_796_4145)"/>
<path d="M197.38 135.49L187.958 130.997L196.507 126.379L197.38 135.49Z" fill="url(#paint27_linear_796_4145)"/>
<path d="M187.521 143.414L187.958 130.997L197.381 135.49L187.521 143.414Z" fill="url(#paint28_linear_796_4145)"/>
<path d="M176.851 148.406L168.988 143.726L175.415 137.486L176.851 148.406Z" fill="url(#paint29_linear_796_4145)"/>
<path d="M187.522 143.414L175.416 137.486L176.851 148.406L187.522 143.414Z" fill="url(#paint30_linear_796_4145)"/>
<path d="M187.958 130.997L175.416 137.486L187.522 143.414L187.958 130.997Z" fill="url(#paint31_linear_796_4145)"/>
<path d="M196.507 126.379L194.76 124.258L189.83 120.264L187.958 130.997L196.507 126.379Z" fill="url(#paint32_linear_796_4145)"/>
<path d="M175.416 125.318L187.958 130.997L189.83 120.264L175.416 125.318Z" fill="url(#paint33_linear_796_4145)"/>
<path d="M175.416 137.486V125.318L187.958 130.997L175.416 137.486Z" fill="url(#paint34_linear_796_4145)"/>
<path d="M168.302 135.24L175.415 137.486V125.318L168.302 135.24Z" fill="url(#paint35_linear_796_4145)"/>
<path d="M168.988 143.726L167.803 141.23L168.302 135.24L175.416 137.486L168.988 143.726Z" fill="url(#paint36_linear_796_4145)"/>
<path d="M189.83 120.264L197.068 116.894L194.76 124.257L189.83 120.264Z" fill="url(#paint37_linear_796_4145)"/>
<path d="M190.516 111.59L189.83 120.264L197.068 116.894L190.516 111.59Z" fill="url(#paint38_linear_796_4145)"/>
<path d="M174.542 112.277L189.83 120.264L190.516 111.59L174.542 112.277Z" fill="url(#paint39_linear_796_4145)"/>
<path d="M175.416 125.318L174.542 112.277L189.83 120.264L175.416 125.318Z" fill="url(#paint40_linear_796_4145)"/>
<path d="M165.744 117.83L174.543 112.277L175.416 125.318L165.744 117.83Z" fill="url(#paint41_linear_796_4145)"/>
<path d="M160.19 140.107L168.302 135.24L167.803 141.23L160.19 140.107Z" fill="url(#paint42_linear_796_4145)"/>
<path d="M158.193 131.933L168.302 135.24L160.19 140.107L158.193 131.933Z" fill="url(#paint43_linear_796_4145)"/>
<path d="M175.416 125.318L165.744 117.83L158.193 131.933L168.302 135.24L175.416 125.318Z" fill="url(#paint44_linear_796_4145)"/>
<path d="M168.676 105.538L174.542 112.277L165.744 117.83L163.622 113.774L168.676 105.538Z" fill="url(#paint45_linear_796_4145)"/>
<path d="M196.944 129.686C196.882 128.189 197.88 126.878 199.378 126.629L202.685 126.067L199.378 126.254C197.88 126.317 196.57 125.318 196.32 123.821L195.759 120.514L195.946 123.821C196.008 125.318 195.01 126.629 193.512 126.878L190.205 127.44L193.512 127.253C195.01 127.19 196.32 128.189 196.57 129.686L197.131 132.994L196.944 129.686Z" fill="white"/>
<path d="M156.696 132.806C157.57 132.369 158.568 132.619 159.13 133.43L160.315 135.24L159.317 133.368C158.88 132.494 159.13 131.496 159.941 130.934L161.751 129.749L159.879 130.747C159.005 131.184 158.007 130.934 157.445 130.123L156.259 128.313L157.258 130.185C157.695 131.059 157.445 132.057 156.634 132.619L154.824 133.805L156.696 132.806Z" fill="white"/>
<path d="M168.302 116.645C169.238 116.957 169.738 117.893 169.488 118.829L168.989 120.95L169.675 118.891C169.987 117.955 170.923 117.456 171.859 117.706L173.981 118.205L171.922 117.518C170.986 117.206 170.486 116.27 170.736 115.334L171.235 113.213L170.549 115.272C170.237 116.208 169.301 116.707 168.365 116.458L166.243 115.958L168.302 116.645Z" fill="white"/>
<path d="M183.653 203.63C183.653 203.63 186.898 223.161 190.33 237.451C193.762 251.741 199.191 270.835 205.493 278.261C211.796 285.624 224.213 286.809 226.397 288.681C228.581 290.553 240.375 285.998 242.871 282.379C245.429 278.822 245.055 269.837 245.929 264.221C246.802 258.605 241.685 246.998 235.009 239.51C228.394 232.022 218.348 219.917 216.101 212.616C213.917 205.315 209.113 197.328 209.113 197.328C209.113 197.328 184.839 201.945 183.653 203.63Z" fill="url(#paint46_linear_796_4145)"/>
<path d="M182.529 202.507C180.595 198.95 174.542 194.27 173.045 188.966C171.485 183.662 171.859 177.922 173.045 169.81C173.481 163.195 173.107 160.637 171.984 155.52C170.923 150.403 169.238 146.597 168.864 143.851C168.489 141.106 170.798 139.92 172.046 139.92C173.294 139.92 175.915 139.982 176.477 142.354C177.038 144.725 179.909 157.891 181.032 159.514C182.155 161.074 181.905 159.264 181.219 155.458C180.533 151.651 179.409 144.226 180.158 142.728C180.845 141.168 183.59 139.982 185.774 140.981C187.958 141.979 188.021 143.414 188.645 146.597C189.269 149.779 193.2 161.51 194.261 164.006C195.321 166.502 195.384 164.506 195.134 160.886C194.885 157.267 191.515 147.72 190.579 144.787C189.643 141.854 188.52 139.982 189.768 138.235C190.953 136.426 194.323 135.989 196.195 137.611C198.067 139.234 203.246 150.341 204.307 154.709C205.305 159.077 207.739 167.002 207.989 171.682C208.238 176.362 208.488 187.531 207.989 190.963C207.489 194.395 208.363 195.83 209.112 197.39C209.923 198.888 185.961 208.81 182.529 202.507Z" fill="url(#paint47_linear_796_4145)"/>
<path d="M176.477 176.05C177.85 174.49 176.789 174.926 176.103 172.368C175.416 169.872 173.108 162.197 173.108 162.197C173.295 164.256 173.295 166.565 173.045 169.81C172.546 173.242 172.172 176.237 172.047 178.982C173.17 176.674 175.104 177.61 176.477 176.05Z" fill="url(#paint48_linear_796_4145)"/>
<path d="M179.16 163.694C179.659 168.25 181.781 172.181 183.653 174.053C185.462 175.987 187.21 175.925 185.712 171.307C184.214 166.69 181.906 161.448 181.781 159.763C181.718 160.075 181.469 160.013 181.032 159.389C180.533 158.64 179.597 155.395 178.723 151.838C178.723 151.963 178.661 159.139 179.16 163.694Z" fill="url(#paint49_linear_796_4145)"/>
</g>
<defs>
<linearGradient id="paint0_linear_796_4145" x1="140.549" y1="262.32" x2="154.671" y2="218.423" gradientUnits="userSpaceOnUse">
<stop stop-color="#935848"/>
<stop offset="0.0715561" stop-color="#9C604E"/>
<stop offset="0.1613" stop-color="#A16552"/>
<stop offset="0.2671" stop-color="#8C4E40"/>
<stop offset="0.5146" stop-color="#8C4E40"/>
<stop offset="1" stop-color="#7C3C2F"/>
</linearGradient>
<linearGradient id="paint1_linear_796_4145" x1="149.736" y1="122.005" x2="138.933" y2="103.513" gradientUnits="userSpaceOnUse">
<stop offset="0.00247105" stop-color="#161F2D"/>
<stop offset="0.8054" stop-color="#1E293A"/>
</linearGradient>
<linearGradient id="paint2_linear_796_4145" x1="184.84" y1="146.396" x2="204.727" y2="143.611" gradientUnits="userSpaceOnUse">
<stop stop-color="#E7BC91"/>
<stop offset="0.3993" stop-color="#F3D5B5"/>
<stop offset="0.6602" stop-color="#F5DCB4"/>
<stop offset="1" stop-color="#F5DCB4"/>
</linearGradient>
<linearGradient id="paint3_linear_796_4145" x1="94.8896" y1="159.003" x2="70.2231" y2="162.224" gradientUnits="userSpaceOnUse">
<stop stop-color="#E7BC91"/>
<stop offset="0.3993" stop-color="#F3D5B5"/>
<stop offset="0.6602" stop-color="#F5DCB4"/>
<stop offset="1" stop-color="#F5DCB4"/>
</linearGradient>
<linearGradient id="paint4_linear_796_4145" x1="138.98" y1="140.417" x2="148.27" y2="211.506" gradientUnits="userSpaceOnUse">
<stop stop-color="#E7BC91"/>
<stop offset="0.3993" stop-color="#F3D5B5"/>
<stop offset="0.6602" stop-color="#F5DCB4"/>
<stop offset="0.7034" stop-color="#F4DAB2"/>
<stop offset="1" stop-color="#EFD3AB"/>
</linearGradient>
<linearGradient id="paint5_linear_796_4145" x1="84.1028" y1="149.741" x2="206.726" y2="165.487" gradientUnits="userSpaceOnUse">
<stop stop-color="#A16552"/>
<stop offset="0.201" stop-color="#935848"/>
<stop offset="0.504" stop-color="#935848"/>
<stop offset="0.6028" stop-color="#9C604E"/>
<stop offset="0.7268" stop-color="#A16552"/>
<stop offset="1" stop-color="#966444"/>
</linearGradient>
<linearGradient id="paint6_linear_796_4145" x1="141.883" y1="175.878" x2="135.201" y2="173.65" gradientUnits="userSpaceOnUse">
<stop offset="0.4947" stop-color="#3A2E2E"/>
<stop offset="0.8105" stop-color="#4C3B3B"/>
<stop offset="1" stop-color="#4E3F3F"/>
</linearGradient>
<linearGradient id="paint7_linear_796_4145" x1="145.487" y1="175.426" x2="151.499" y2="171.378" gradientUnits="userSpaceOnUse">
<stop offset="0.4947" stop-color="#3A2E2E"/>
<stop offset="0.8105" stop-color="#4C3B3B"/>
<stop offset="1" stop-color="#4E3F3F"/>
</linearGradient>
<linearGradient id="paint8_linear_796_4145" x1="121.585" y1="153.646" x2="126.945" y2="166.358" gradientUnits="userSpaceOnUse">
<stop offset="0.4947" stop-color="#3A2E2E"/>
<stop offset="0.8105" stop-color="#4C3B3B"/>
<stop offset="1" stop-color="#4E3F3F"/>
</linearGradient>
<radialGradient id="paint9_radial_796_4145" cx="0" cy="0" r="1" gradientUnits="userSpaceOnUse" gradientTransform="translate(127.044 153.728) rotate(-7.97291) scale(7.09744 7.09745)">
<stop stop-color="#5D5360"/>
<stop offset="1" stop-color="#5D5360" stop-opacity="0.4"/>
</radialGradient>
<linearGradient id="paint10_linear_796_4145" x1="83.898" y1="173.438" x2="150.276" y2="152.941" gradientUnits="userSpaceOnUse">
<stop stop-color="#4E3F3F"/>
<stop offset="0.1436" stop-color="#4E3F3F" stop-opacity="0.7"/>
<stop offset="0.7306" stop-color="#4E3F3F" stop-opacity="0.2"/>
<stop offset="1" stop-color="#4E3F3F" stop-opacity="0"/>
</linearGradient>
<linearGradient id="paint11_linear_796_4145" x1="155.549" y1="148.7" x2="160.909" y2="161.412" gradientUnits="userSpaceOnUse">
<stop offset="0.4947" stop-color="#3A2E2E"/>
<stop offset="0.8105" stop-color="#4C3B3B"/>
<stop offset="1" stop-color="#4E3F3F"/>
</linearGradient>
<radialGradient id="paint12_radial_796_4145" cx="0" cy="0" r="1" gradientUnits="userSpaceOnUse" gradientTransform="translate(161.008 148.782) rotate(-7.97291) scale(7.09744 7.09745)">
<stop stop-color="#5D5360"/>
<stop offset="1" stop-color="#5D5360" stop-opacity="0.4"/>
</radialGradient>
<radialGradient id="paint13_radial_796_4145" cx="0" cy="0" r="1" gradientUnits="userSpaceOnUse" gradientTransform="translate(147.209 196.87) rotate(-9.0036) scale(11.3061 9.01449)">
<stop offset="0.4947" stop-color="#3A2E2E"/>
<stop offset="0.8105" stop-color="#4C3B3B"/>
<stop offset="1" stop-color="#4E3F3F"/>
</radialGradient>
<linearGradient id="paint14_linear_796_4145" x1="181.457" y1="139.204" x2="62.2502" y2="113.173" gradientUnits="userSpaceOnUse">
<stop stop-color="#FDF57A"/>
<stop offset="0.86" stop-color="white" stop-opacity="0"/>
</linearGradient>
<linearGradient id="paint15_linear_796_4145" x1="177.318" y1="117.143" x2="63.0308" y2="167.274" gradientUnits="userSpaceOnUse">
<stop stop-color="#FDF57A"/>
<stop offset="0.86" stop-color="white" stop-opacity="0"/>
</linearGradient>
<linearGradient id="paint16_linear_796_4145" x1="201.134" y1="152.23" x2="112.201" y2="226.027" gradientUnits="userSpaceOnUse">
<stop stop-color="#FDF57A"/>
<stop offset="0.86" stop-color="white" stop-opacity="0"/>
</linearGradient>
<linearGradient id="paint17_linear_796_4145" x1="179.813" y1="129.255" x2="149.387" y2="248.498" gradientUnits="userSpaceOnUse">
<stop stop-color="#FDF57A"/>
<stop offset="0.86" stop-color="white" stop-opacity="0"/>
</linearGradient>
<linearGradient id="paint18_linear_796_4145" x1="192.624" y1="120.255" x2="276.725" y2="214.694" gradientUnits="userSpaceOnUse">
<stop stop-color="#FDF57A"/>
<stop offset="0.86" stop-color="white" stop-opacity="0"/>
</linearGradient>
<linearGradient id="paint19_linear_796_4145" x1="179.231" y1="139.285" x2="309.423" y2="167.716" gradientUnits="userSpaceOnUse">
<stop stop-color="#FDF57A"/>
<stop offset="0.86" stop-color="white" stop-opacity="0"/>
</linearGradient>
<linearGradient id="paint20_linear_796_4145" x1="175" y1="116.967" x2="280.224" y2="70.8118" gradientUnits="userSpaceOnUse">
<stop stop-color="#FDF57A"/>
<stop offset="0.86" stop-color="white" stop-opacity="0"/>
</linearGradient>
<linearGradient id="paint21_linear_796_4145" x1="181.35" y1="131.595" x2="241.625" y2="28.52" gradientUnits="userSpaceOnUse">
<stop stop-color="#FDF57A"/>
<stop offset="0.86" stop-color="white" stop-opacity="0"/>
</linearGradient>
<linearGradient id="paint22_linear_796_4145" x1="173.015" y1="140.576" x2="92.3192" y2="49.9609" gradientUnits="userSpaceOnUse">
<stop stop-color="#FDF57A"/>
<stop offset="0.86" stop-color="white" stop-opacity="0"/>
</linearGradient>
<linearGradient id="paint23_linear_796_4145" x1="192.977" y1="183.157" x2="192.977" y2="144.703" gradientUnits="userSpaceOnUse">
<stop stop-color="#935848"/>
<stop offset="0.0715561" stop-color="#9C604E"/>
<stop offset="0.1613" stop-color="#A16552"/>
<stop offset="0.2671" stop-color="#8C4E40"/>
<stop offset="0.5146" stop-color="#8C4E40"/>
<stop offset="1" stop-color="#7C3C2F"/>
</linearGradient>
<linearGradient id="paint24_linear_796_4145" x1="179.459" y1="183.157" x2="179.459" y2="144.703" gradientUnits="userSpaceOnUse">
<stop stop-color="#935848"/>
<stop offset="0.0715561" stop-color="#9C604E"/>
<stop offset="0.1613" stop-color="#A16552"/>
<stop offset="0.2671" stop-color="#8C4E40"/>
<stop offset="0.5146" stop-color="#8C4E40"/>
<stop offset="1" stop-color="#7C3C2F"/>
</linearGradient>
<linearGradient id="paint25_linear_796_4145" x1="171.269" y1="141.228" x2="212.48" y2="159.032" gradientUnits="userSpaceOnUse">
<stop stop-color="#D0E1FC"/>
<stop offset="0.079263" stop-color="#F8E3FF"/>
<stop offset="0.2584" stop-color="#A9D9F7"/>
<stop offset="0.5383" stop-color="#9978CE"/>
<stop offset="0.7349" stop-color="#F8E3FF"/>
<stop offset="1" stop-color="#D0E1FC"/>
</linearGradient>
<linearGradient id="paint26_linear_796_4145" x1="182.867" y1="156.003" x2="216.006" y2="118.783" gradientUnits="userSpaceOnUse">
<stop stop-color="#D0E1FC"/>
<stop offset="0.079263" stop-color="#F8E3FF"/>
<stop offset="0.2584" stop-color="#A9D9F7"/>
<stop offset="0.5383" stop-color="#9978CE"/>
<stop offset="0.7349" stop-color="#F8E3FF"/>
<stop offset="1" stop-color="#D0E1FC"/>
</linearGradient>
<linearGradient id="paint27_linear_796_4145" x1="192.471" y1="133.503" x2="216.142" y2="102.437" gradientUnits="userSpaceOnUse">
<stop stop-color="#D0E1FC"/>
<stop offset="0.079263" stop-color="#F8E3FF"/>
<stop offset="0.2584" stop-color="#A9D9F7"/>
<stop offset="0.5383" stop-color="#9978CE"/>
<stop offset="0.7349" stop-color="#F8E3FF"/>
<stop offset="1" stop-color="#D0E1FC"/>
</linearGradient>
<linearGradient id="paint28_linear_796_4145" x1="190.014" y1="127.365" x2="197.708" y2="165.892" gradientUnits="userSpaceOnUse">
<stop stop-color="#D0E1FC"/>
<stop offset="0.079263" stop-color="#F8E3FF"/>
<stop offset="0.2584" stop-color="#A9D9F7"/>
<stop offset="0.5383" stop-color="#9978CE"/>
<stop offset="0.7349" stop-color="#F8E3FF"/>
<stop offset="1" stop-color="#D0E1FC"/>
</linearGradient>
<linearGradient id="paint29_linear_796_4145" x1="171.77" y1="149.596" x2="179.148" y2="127.134" gradientUnits="userSpaceOnUse">
<stop stop-color="#D0E1FC"/>
<stop offset="0.079263" stop-color="#F8E3FF"/>
<stop offset="0.2584" stop-color="#A9D9F7"/>
<stop offset="0.5383" stop-color="#9978CE"/>
<stop offset="0.7349" stop-color="#F8E3FF"/>
<stop offset="1" stop-color="#D0E1FC"/>
</linearGradient>
<linearGradient id="paint30_linear_796_4145" x1="191.487" y1="131.391" x2="157.76" y2="161.921" gradientUnits="userSpaceOnUse">
<stop stop-color="#D0E1FC"/>
<stop offset="0.079263" stop-color="#F8E3FF"/>
<stop offset="0.2584" stop-color="#A9D9F7"/>
<stop offset="0.5383" stop-color="#9978CE"/>
<stop offset="0.7349" stop-color="#F8E3FF"/>
<stop offset="1" stop-color="#D0E1FC"/>
</linearGradient>
<linearGradient id="paint31_linear_796_4145" x1="172.946" y1="146.43" x2="223.798" y2="110.815" gradientUnits="userSpaceOnUse">
<stop stop-color="#D0E1FC"/>
<stop offset="0.079263" stop-color="#F8E3FF"/>
<stop offset="0.2584" stop-color="#A9D9F7"/>
<stop offset="0.5383" stop-color="#9978CE"/>
<stop offset="0.7349" stop-color="#F8E3FF"/>
<stop offset="1" stop-color="#D0E1FC"/>
</linearGradient>
<linearGradient id="paint32_linear_796_4145" x1="209.403" y1="122.814" x2="152.791" y2="130.678" gradientUnits="userSpaceOnUse">
<stop stop-color="#D0E1FC"/>
<stop offset="0.079263" stop-color="#F8E3FF"/>
<stop offset="0.2584" stop-color="#A9D9F7"/>
<stop offset="0.5383" stop-color="#9978CE"/>
<stop offset="0.7349" stop-color="#F8E3FF"/>
<stop offset="1" stop-color="#D0E1FC"/>
</linearGradient>
<linearGradient id="paint33_linear_796_4145" x1="178.465" y1="116.135" x2="216.22" y2="176.808" gradientUnits="userSpaceOnUse">
<stop stop-color="#D0E1FC"/>
<stop offset="0.079263" stop-color="#F8E3FF"/>
<stop offset="0.2584" stop-color="#A9D9F7"/>
<stop offset="0.5383" stop-color="#9978CE"/>
<stop offset="0.7349" stop-color="#F8E3FF"/>
<stop offset="1" stop-color="#D0E1FC"/>
</linearGradient>
<linearGradient id="paint34_linear_796_4145" x1="197.555" y1="127.894" x2="121.999" y2="139.879" gradientUnits="userSpaceOnUse">
<stop stop-color="#D0E1FC"/>
<stop offset="0.079263" stop-color="#F8E3FF"/>
<stop offset="0.2584" stop-color="#A9D9F7"/>
<stop offset="0.5383" stop-color="#9978CE"/>
<stop offset="0.7349" stop-color="#F8E3FF"/>
<stop offset="1" stop-color="#D0E1FC"/>
</linearGradient>
<linearGradient id="paint35_linear_796_4145" x1="179.509" y1="128.725" x2="137.295" y2="156.369" gradientUnits="userSpaceOnUse">
<stop stop-color="#D0E1FC"/>
<stop offset="0.079263" stop-color="#F8E3FF"/>
<stop offset="0.2584" stop-color="#A9D9F7"/>
<stop offset="0.5383" stop-color="#9978CE"/>
<stop offset="0.7349" stop-color="#F8E3FF"/>
<stop offset="1" stop-color="#D0E1FC"/>
</linearGradient>
<linearGradient id="paint36_linear_796_4145" x1="169.832" y1="148.642" x2="175.078" y2="116.923" gradientUnits="userSpaceOnUse">
<stop stop-color="#D0E1FC"/>
<stop offset="0.079263" stop-color="#F8E3FF"/>
<stop offset="0.2584" stop-color="#A9D9F7"/>
<stop offset="0.5383" stop-color="#9978CE"/>
<stop offset="0.7349" stop-color="#F8E3FF"/>
<stop offset="1" stop-color="#D0E1FC"/>
</linearGradient>
<linearGradient id="paint37_linear_796_4145" x1="191.133" y1="123.511" x2="200.344" y2="113.697" gradientUnits="userSpaceOnUse">
<stop offset="0.0205286" stop-color="#E5C889"/>
<stop offset="0.1596" stop-color="#DBB271"/>
<stop offset="0.2584" stop-color="#E5C889"/>
<stop offset="0.3839" stop-color="#FCE6BB"/>
<stop offset="0.7349" stop-color="#DBB271"/>
<stop offset="0.959" stop-color="#DBB271"/>
</linearGradient>
<linearGradient id="paint38_linear_796_4145" x1="196.546" y1="121.923" x2="181.792" y2="106.041" gradientUnits="userSpaceOnUse">
<stop offset="0.0205286" stop-color="#E5C889"/>
<stop offset="0.1596" stop-color="#DBB271"/>
<stop offset="0.2584" stop-color="#E5C889"/>
<stop offset="0.3839" stop-color="#FCE6BB"/>
<stop offset="0.7349" stop-color="#DBB271"/>
<stop offset="0.959" stop-color="#DBB271"/>
</linearGradient>
<linearGradient id="paint39_linear_796_4145" x1="174.806" y1="111.462" x2="191.027" y2="116.182" gradientUnits="userSpaceOnUse">
<stop offset="0.0205286" stop-color="#E5C889"/>
<stop offset="0.1596" stop-color="#DBB271"/>
<stop offset="0.2584" stop-color="#E5C889"/>
<stop offset="0.3839" stop-color="#FCE6BB"/>
<stop offset="0.7349" stop-color="#DBB271"/>
<stop offset="0.959" stop-color="#DBB271"/>
</linearGradient>
<linearGradient id="paint40_linear_796_4145" x1="180.968" y1="110.996" x2="184.374" y2="135.383" gradientUnits="userSpaceOnUse">
<stop offset="0.0205286" stop-color="#E5C889"/>
<stop offset="0.1596" stop-color="#DBB271"/>
<stop offset="0.2584" stop-color="#E5C889"/>
<stop offset="0.3839" stop-color="#FCE6BB"/>
<stop offset="0.7349" stop-color="#DBB271"/>
<stop offset="0.959" stop-color="#DBB271"/>
</linearGradient>
<linearGradient id="paint41_linear_796_4145" x1="178.123" y1="124.221" x2="156.498" y2="99.4041" gradientUnits="userSpaceOnUse">
<stop offset="0.0205286" stop-color="#E5C889"/>
<stop offset="0.1596" stop-color="#DBB271"/>
<stop offset="0.2584" stop-color="#E5C889"/>
<stop offset="0.3839" stop-color="#FCE6BB"/>
<stop offset="0.7349" stop-color="#DBB271"/>
<stop offset="0.959" stop-color="#DBB271"/>
</linearGradient>
<linearGradient id="paint42_linear_796_4145" x1="162.891" y1="136.573" x2="189.97" y2="159.011" gradientUnits="userSpaceOnUse">
<stop offset="0.0205286" stop-color="#E5C889"/>
<stop offset="0.1596" stop-color="#DBB271"/>
<stop offset="0.2584" stop-color="#E5C889"/>
<stop offset="0.3839" stop-color="#FCE6BB"/>
<stop offset="0.7349" stop-color="#DBB271"/>
<stop offset="0.959" stop-color="#DBB271"/>
</linearGradient>
<linearGradient id="paint43_linear_796_4145" x1="157.187" y1="135.459" x2="167.374" y2="138.424" gradientUnits="userSpaceOnUse">
<stop offset="0.0205286" stop-color="#E5C889"/>
<stop offset="0.1596" stop-color="#DBB271"/>
<stop offset="0.2584" stop-color="#E5C889"/>
<stop offset="0.3839" stop-color="#FCE6BB"/>
<stop offset="0.7349" stop-color="#DBB271"/>
<stop offset="0.959" stop-color="#DBB271"/>
</linearGradient>
<linearGradient id="paint44_linear_796_4145" x1="172.042" y1="127.279" x2="154.114" y2="124.67" gradientUnits="userSpaceOnUse">
<stop offset="0.0205286" stop-color="#E5C889"/>
<stop offset="0.1596" stop-color="#DBB271"/>
<stop offset="0.2584" stop-color="#E5C889"/>
<stop offset="0.3839" stop-color="#FCE6BB"/>
<stop offset="0.7349" stop-color="#DBB271"/>
<stop offset="0.959" stop-color="#DBB271"/>
</linearGradient>
<linearGradient id="paint45_linear_796_4145" x1="163.916" y1="115.303" x2="177.239" y2="104.241" gradientUnits="userSpaceOnUse">
<stop offset="0.0205286" stop-color="#E5C889"/>
<stop offset="0.1596" stop-color="#DBB271"/>
<stop offset="0.2584" stop-color="#E5C889"/>
<stop offset="0.3839" stop-color="#FCE6BB"/>
<stop offset="0.7349" stop-color="#DBB271"/>
<stop offset="0.959" stop-color="#DBB271"/>
</linearGradient>
<linearGradient id="paint46_linear_796_4145" x1="235.86" y1="306.771" x2="200.13" y2="192.606" gradientUnits="userSpaceOnUse">
<stop offset="0.155" stop-color="#7C3C2F"/>
<stop offset="0.3481" stop-color="#8C4E40"/>
<stop offset="0.6013" stop-color="#8C4E40"/>
<stop offset="0.6961" stop-color="#8C4E40"/>
<stop offset="1" stop-color="#7C3C2F"/>
</linearGradient>
<linearGradient id="paint47_linear_796_4145" x1="163.718" y1="147.935" x2="214.256" y2="191.668" gradientUnits="userSpaceOnUse">
<stop stop-color="#935848"/>
<stop offset="0.0715561" stop-color="#9C604E"/>
<stop offset="0.1613" stop-color="#A16552"/>
<stop offset="0.2671" stop-color="#8C4E40"/>
<stop offset="0.5146" stop-color="#8C4E40"/>
<stop offset="1" stop-color="#7C3C2F"/>
</linearGradient>
<linearGradient id="paint48_linear_796_4145" x1="160.676" y1="147.377" x2="180.668" y2="186.34" gradientUnits="userSpaceOnUse">
<stop stop-color="#4E3F3F"/>
<stop offset="0.1436" stop-color="#4E3F3F" stop-opacity="0.7"/>
<stop offset="0.7306" stop-color="#4E3F3F" stop-opacity="0.2"/>
<stop offset="1" stop-color="#4E3F3F" stop-opacity="0"/>
</linearGradient>
<linearGradient id="paint49_linear_796_4145" x1="170.325" y1="142.426" x2="190.317" y2="181.389" gradientUnits="userSpaceOnUse">
<stop stop-color="#4E3F3F"/>
<stop offset="0.1436" stop-color="#4E3F3F" stop-opacity="0.7"/>
<stop offset="0.7306" stop-color="#4E3F3F" stop-opacity="0.2"/>
<stop offset="1" stop-color="#4E3F3F" stop-opacity="0"/>
</linearGradient>
<clipPath id="clip0_796_4145">
<rect width="312" height="312" fill="white" transform="translate(6 12)"/>
</clipPath>
</defs>
</svg>
