<svg width="10" height="15" viewBox="0 0 10 15" fill="none" xmlns="http://www.w3.org/2000/svg">
<path d="M9.45675 9.736C9.45675 10.3227 9.30208 10.8667 8.99275 11.368C8.69408 11.8587 8.24608 12.264 7.64875 12.584C7.06208 12.8933 6.36342 13.064 5.55275 13.096V14.392H4.52875V13.08C3.39808 12.984 2.48608 12.648 1.79275 12.072C1.09942 11.4853 0.731417 10.6907 0.68875 9.688H3.60075C3.66475 10.328 3.97408 10.7387 4.52875 10.92V8.392C3.69675 8.17867 3.03008 7.97067 2.52875 7.768C2.03808 7.56533 1.60608 7.24 1.23275 6.792C0.859417 6.344 0.67275 5.73067 0.67275 4.952C0.67275 3.98133 1.03008 3.20267 1.74475 2.616C2.47008 2.02933 3.39808 1.69867 4.52875 1.624V0.327999H5.55275V1.624C6.67275 1.70933 7.55808 2.03467 8.20875 2.6C8.85942 3.16533 9.22208 3.94933 9.29675 4.952H6.36875C6.30475 4.376 6.03275 4.00267 5.55275 3.832V6.312C6.43808 6.55733 7.12075 6.776 7.60075 6.968C8.08075 7.16 8.50742 7.48 8.88075 7.928C9.26475 8.36533 9.45675 8.968 9.45675 9.736ZM3.56875 4.824C3.56875 5.09067 3.64875 5.31467 3.80875 5.496C3.97942 5.67733 4.21942 5.83733 4.52875 5.976V3.752C4.23008 3.80533 3.99542 3.92267 3.82475 4.104C3.65408 4.27467 3.56875 4.51467 3.56875 4.824ZM5.55275 10.968C5.87275 10.9147 6.12342 10.7867 6.30475 10.584C6.49675 10.3813 6.59275 10.1307 6.59275 9.832C6.59275 9.55467 6.50208 9.33067 6.32075 9.16C6.15008 8.97867 5.89408 8.824 5.55275 8.696V10.968Z" fill="#4D4040"/>
</svg>
