<?xml version="1.0" encoding="UTF-8"?><svg id="Capa_1" xmlns="http://www.w3.org/2000/svg" xmlns:xlink="http://www.w3.org/1999/xlink" viewBox="0 0 338 442"><defs><style>.cls-1{fill:none;}.cls-2{fill:url(#Degradado_sin_nombre-19);}.cls-2,.cls-3{opacity:.35;}.cls-2,.cls-3,.cls-4,.cls-5,.cls-6,.cls-7,.cls-8,.cls-9,.cls-10,.cls-11,.cls-12,.cls-13,.cls-14,.cls-15,.cls-16,.cls-17,.cls-18,.cls-19,.cls-20{isolation:isolate;}.cls-3{fill:url(#Degradado_sin_nombre-20);}.cls-4{fill:url(#Degradado_sin_nombre-15);}.cls-4,.cls-5,.cls-6,.cls-7,.cls-8,.cls-9,.cls-10,.cls-11,.cls-12,.cls-13,.cls-14,.cls-15,.cls-16,.cls-17,.cls-18,.cls-19,.cls-20{opacity:.5;}.cls-5{fill:url(#Degradado_sin_nombre-14);}.cls-6{fill:url(#Degradado_sin_nombre-13);}.cls-7{fill:url(#Degradado_sin_nombre-18);}.cls-8{fill:url(#Degradado_sin_nombre-12);}.cls-9{fill:url(#Degradado_sin_nombre-10);}.cls-10{fill:url(#Degradado_sin_nombre-11);}.cls-11{fill:url(#Degradado_sin_nombre-17);}.cls-12{fill:url(#Degradado_sin_nombre-16);}.cls-21{clip-path:url(#clippath);}.cls-22{fill:#3121a5;}.cls-23,.cls-24{fill:#09ffff;}.cls-25,.cls-26{fill:#0970c0;}.cls-27{fill:#498bdb;}.cls-28{fill:#262c42;}.cls-29{fill:url(#Degradado_sin_nombre_111);}.cls-30{clip-path:url(#clippath-1);}.cls-31{clip-path:url(#clippath-4);}.cls-32{clip-path:url(#clippath-3);}.cls-33{clip-path:url(#clippath-2);}.cls-34{clip-path:url(#clippath-7);}.cls-35{clip-path:url(#clippath-8);}.cls-36{clip-path:url(#clippath-6);}.cls-37{clip-path:url(#clippath-5);}.cls-38{clip-path:url(#clippath-9);}.cls-39{clip-path:url(#clippath-60);}.cls-40{clip-path:url(#clippath-20);}.cls-41{clip-path:url(#clippath-21);}.cls-42{clip-path:url(#clippath-24);}.cls-43{clip-path:url(#clippath-23);}.cls-44{clip-path:url(#clippath-22);}.cls-45{clip-path:url(#clippath-25);}.cls-46{clip-path:url(#clippath-44);}.cls-47{clip-path:url(#clippath-45);}.cls-48{clip-path:url(#clippath-40);}.cls-49{clip-path:url(#clippath-42);}.cls-50{clip-path:url(#clippath-41);}.cls-51{clip-path:url(#clippath-47);}.cls-52{clip-path:url(#clippath-43);}.cls-53{clip-path:url(#clippath-46);}.cls-54{clip-path:url(#clippath-48);}.cls-55{clip-path:url(#clippath-49);}.cls-56{clip-path:url(#clippath-27);}.cls-57{clip-path:url(#clippath-28);}.cls-58{clip-path:url(#clippath-26);}.cls-59{clip-path:url(#clippath-29);}.cls-60{clip-path:url(#clippath-34);}.cls-61{clip-path:url(#clippath-35);}.cls-62{clip-path:url(#clippath-36);}.cls-63{clip-path:url(#clippath-37);}.cls-64{clip-path:url(#clippath-39);}.cls-65{clip-path:url(#clippath-33);}.cls-66{clip-path:url(#clippath-32);}.cls-67{clip-path:url(#clippath-30);}.cls-68{clip-path:url(#clippath-38);}.cls-69{clip-path:url(#clippath-31);}.cls-70{clip-path:url(#clippath-53);}.cls-71{clip-path:url(#clippath-54);}.cls-72{clip-path:url(#clippath-50);}.cls-73{clip-path:url(#clippath-51);}.cls-74{clip-path:url(#clippath-52);}.cls-75{clip-path:url(#clippath-55);}.cls-76{clip-path:url(#clippath-56);}.cls-77{clip-path:url(#clippath-57);}.cls-78{clip-path:url(#clippath-58);}.cls-79{clip-path:url(#clippath-61);}.cls-80{clip-path:url(#clippath-64);}.cls-81{clip-path:url(#clippath-62);}.cls-82{clip-path:url(#clippath-59);}.cls-83{clip-path:url(#clippath-65);}.cls-84{clip-path:url(#clippath-63);}.cls-85{clip-path:url(#clippath-14);}.cls-86{clip-path:url(#clippath-13);}.cls-87{clip-path:url(#clippath-12);}.cls-88{clip-path:url(#clippath-10);}.cls-89{clip-path:url(#clippath-19);}.cls-90{clip-path:url(#clippath-11);}.cls-91{clip-path:url(#clippath-18);}.cls-13{fill:url(#Degradado_sin_nombre-5);}.cls-14{fill:url(#Degradado_sin_nombre-4);}.cls-15{fill:url(#Degradado_sin_nombre-7);}.cls-16{fill:url(#Degradado_sin_nombre-9);}.cls-17{fill:url(#Degradado_sin_nombre-6);}.cls-18{fill:url(#Degradado_sin_nombre-3);}.cls-19{fill:url(#Degradado_sin_nombre-2);}.cls-92{fill:url(#Degradado_sin_nombre_80);}.cls-93{fill:url(#Degradado_sin_nombre_69);}.cls-94{fill:url(#Degradado_sin_nombre_33);}.cls-95{fill:url(#Degradado_sin_nombre_71);}.cls-96{fill:url(#Degradado_sin_nombre_70);}.cls-97{fill:url(#Degradado_sin_nombre_79);}.cls-98{fill:url(#Degradado_sin_nombre_75);}.cls-99{fill:url(#Degradado_sin_nombre_76);}.cls-100{fill:url(#Degradado_sin_nombre_77);}.cls-101{fill:url(#Degradado_sin_nombre_78);}.cls-102{fill:url(#Degradado_sin_nombre_72);}.cls-103{fill:url(#Degradado_sin_nombre_73);}.cls-104{fill:url(#Degradado_sin_nombre_74);}.cls-105{fill:url(#Degradado_sin_nombre_69-10);}.cls-106{fill:#09b9ea;}.cls-106,.cls-107,.cls-24,.cls-26{fill-rule:evenodd;}.cls-107{fill:#095cc0;}.cls-108{fill:url(#Degradado_sin_nombre-8);}.cls-20{fill:url(#Degradado_sin_nombre);}.cls-109{fill:url(#Degradado_sin_nombre_69-2);}.cls-110{fill:url(#Degradado_sin_nombre_69-9);}.cls-111{fill:url(#Degradado_sin_nombre_69-8);}.cls-112{fill:url(#Degradado_sin_nombre_69-7);}.cls-113{fill:url(#Degradado_sin_nombre_69-6);}.cls-114{fill:url(#Degradado_sin_nombre_69-5);}.cls-115{fill:url(#Degradado_sin_nombre_69-4);}.cls-116{fill:url(#Degradado_sin_nombre_69-3);}.cls-117{fill:url(#Degradado_sin_nombre_74-2);}.cls-118{fill:url(#Degradado_sin_nombre_76-2);}.cls-119{fill:url(#Degradado_sin_nombre_76-4);}.cls-120{fill:url(#Degradado_sin_nombre_76-3);}.cls-121{fill:url(#Degradado_sin_nombre_70-3);}.cls-122{fill:url(#Degradado_sin_nombre_70-2);}.cls-123{fill:url(#Degradado_sin_nombre_72-5);}.cls-124{fill:url(#Degradado_sin_nombre_72-4);}.cls-125{fill:url(#Degradado_sin_nombre_72-2);}.cls-126{fill:url(#Degradado_sin_nombre_72-3);}.cls-127{fill:url(#Degradado_sin_nombre_71-2);}.cls-128{fill:url(#Degradado_sin_nombre_71-3);}.cls-129{fill:url(#Degradado_sin_nombre_71-5);}.cls-130{fill:url(#Degradado_sin_nombre_71-4);}</style><clipPath id="clippath"><rect class="cls-1" y="0" width="338" height="442"/></clipPath><linearGradient id="Degradado_sin_nombre_80" x1="167.26" y1="-587.52" x2="168.74" y2="-1299.82" gradientTransform="translate(0 1347.01)" gradientUnits="userSpaceOnUse"><stop offset="0" stop-color="#5667e2"/><stop offset="1" stop-color="#30259e"/></linearGradient><clipPath id="clippath-1"><rect class="cls-1" y="0" width="338" height="442"/></clipPath><clipPath id="clippath-2"><rect class="cls-1" y="0" width="338" height="442"/></clipPath><linearGradient id="Degradado_sin_nombre_79" x1="71.55" y1="3.76" x2="201.83" y2="25" gradientTransform="translate(0 441.89) scale(1 -1)" gradientUnits="userSpaceOnUse"><stop offset="0" stop-color="#3121a5"/><stop offset="1" stop-color="#4c43c9"/></linearGradient><clipPath id="clippath-3"><rect class="cls-1" y="0" width="338" height="442"/></clipPath><clipPath id="clippath-4"><rect class="cls-1" y="0" width="338" height="442"/></clipPath><linearGradient id="Degradado_sin_nombre_76" x1="53.72" y1="22.75" x2="65.63" y2="37.04" gradientTransform="translate(0 441.89) scale(1 -1)" gradientUnits="userSpaceOnUse"><stop offset=".44" stop-color="#0f2d70"/><stop offset=".68" stop-color="#112f72"/><stop offset=".77" stop-color="#163479"/><stop offset=".83" stop-color="#203e84"/><stop offset=".88" stop-color="#2e4c95"/><stop offset=".93" stop-color="#415eab"/><stop offset=".96" stop-color="#5774c6"/><stop offset="1" stop-color="#728ee5"/><stop offset="1" stop-color="#7490e8"/></linearGradient><clipPath id="clippath-5"><rect class="cls-1" y="0" width="338" height="442"/></clipPath><clipPath id="clippath-6"><rect class="cls-1" y="0" width="338" height="442"/></clipPath><linearGradient id="Degradado_sin_nombre_76-2" x1="42.54" y1="-9.98" x2="106.55" y2="37.6" xlink:href="#Degradado_sin_nombre_76"/><clipPath id="clippath-7"><rect class="cls-1" y="0" width="338" height="442"/></clipPath><linearGradient id="Degradado_sin_nombre_78" x1="60.6" y1="21.59" x2="79.18" y2="50.7" gradientTransform="translate(0 441.89) scale(1 -1)" gradientUnits="userSpaceOnUse"><stop offset=".44" stop-color="#0f2d70"/><stop offset=".65" stop-color="#112f72"/><stop offset=".74" stop-color="#173579"/><stop offset=".81" stop-color="#213f86"/><stop offset=".87" stop-color="#304e98"/><stop offset=".92" stop-color="#4461af"/><stop offset=".96" stop-color="#5c78cb"/><stop offset="1" stop-color="#7490e8"/></linearGradient><clipPath id="clippath-8"><rect class="cls-1" y="0" width="338" height="442"/></clipPath><clipPath id="clippath-9"><rect class="cls-1" y="0" width="338" height="442"/></clipPath><clipPath id="clippath-10"><rect class="cls-1" y="0" width="338" height="442"/></clipPath><linearGradient id="Degradado_sin_nombre_76-3" x1="83.07" y1="-13.99" x2="161.53" y2="50.28" xlink:href="#Degradado_sin_nombre_76"/><clipPath id="clippath-11"><rect class="cls-1" y="0" width="338" height="442"/></clipPath><radialGradient id="Degradado_sin_nombre_77" cx="177.1" cy="10.39" fx="177.1" fy="10.39" r="128.34" gradientTransform="translate(0 441.89) scale(1 -1)" gradientUnits="userSpaceOnUse"><stop offset="0" stop-color="#444fd3"/><stop offset=".51" stop-color="#2b3fb2"/></radialGradient><clipPath id="clippath-12"><rect class="cls-1" y="0" width="338" height="442"/></clipPath><clipPath id="clippath-13"><rect class="cls-1" y="0" width="338" height="442"/></clipPath><clipPath id="clippath-14"><rect class="cls-1" y="0" width="338" height="442"/></clipPath><linearGradient id="Degradado_sin_nombre_76-4" x1="171.34" y1="-25.02" x2="150.47" y2="46.07" xlink:href="#Degradado_sin_nombre_76"/><clipPath id="clippath-18"><rect class="cls-1" y="0" width="338" height="442"/></clipPath><linearGradient id="Degradado_sin_nombre_71" x1="224.28" y1="88.61" x2="192.22" y2="51.78" gradientTransform="translate(0 441.89) scale(1 -1)" gradientUnits="userSpaceOnUse"><stop offset=".07" stop-color="#3a4c68"/><stop offset="1" stop-color="#47648e"/></linearGradient><clipPath id="clippath-19"><rect class="cls-1" y="0" width="338" height="442"/></clipPath><linearGradient id="Degradado_sin_nombre_71-2" x1="201.86" y1="53.9" x2="196.06" y2="45.33" xlink:href="#Degradado_sin_nombre_71"/><clipPath id="clippath-20"><rect class="cls-1" y="0" width="338" height="442"/></clipPath><linearGradient id="Degradado_sin_nombre_70" x1="240.44" y1="100.19" x2="240.92" y2="9.54" gradientTransform="translate(0 441.89) scale(1 -1)" gradientUnits="userSpaceOnUse"><stop offset="0" stop-color="#4e4bbf"/><stop offset=".69" stop-color="#37327f"/><stop offset=".85" stop-color="#38337d"/><stop offset=".94" stop-color="#3a3875"/><stop offset="1" stop-color="#3d3d6b"/></linearGradient><clipPath id="clippath-21"><rect class="cls-1" y="0" width="338" height="442"/></clipPath><linearGradient id="Degradado_sin_nombre_74" x1="292.14" y1="33.83" x2="354.57" y2="29.11" gradientTransform="translate(0 441.89) scale(1 -1)" gradientUnits="userSpaceOnUse"><stop offset="0" stop-color="#4635aa"/><stop offset=".78" stop-color="#21217c"/></linearGradient><clipPath id="clippath-22"><rect class="cls-1" y="0" width="338" height="442"/></clipPath><linearGradient id="Degradado_sin_nombre_72" x1="306.97" y1="82.96" x2="310.99" y2="56.07" gradientTransform="translate(0 441.89) scale(1 -1)" gradientUnits="userSpaceOnUse"><stop offset=".07" stop-color="#b6c6d1"/><stop offset="1" stop-color="#c5dfea"/></linearGradient><clipPath id="clippath-23"><rect class="cls-1" y="0" width="338" height="442"/></clipPath><linearGradient id="Degradado_sin_nombre_72-2" x1="253.92" y1="109.93" x2="317.84" y2="80.94" xlink:href="#Degradado_sin_nombre_72"/><clipPath id="clippath-24"><rect class="cls-1" y="0" width="338" height="442"/></clipPath><linearGradient id="Degradado_sin_nombre_72-3" x1="314.46" y1="52.45" x2="327.01" y2="45.44" xlink:href="#Degradado_sin_nombre_72"/><clipPath id="clippath-25"><rect class="cls-1" y="0" width="338" height="442"/></clipPath><linearGradient id="Degradado_sin_nombre_69" x1="243.32" y1="107.07" x2="293.07" y2="45.16" gradientTransform="translate(0 441.89) scale(1 -1)" gradientUnits="userSpaceOnUse"><stop offset=".07" stop-color="#a6c7e2"/><stop offset="1" stop-color="#7eb2ce"/></linearGradient><clipPath id="clippath-26"><rect class="cls-1" y="0" width="338" height="442"/></clipPath><linearGradient id="Degradado_sin_nombre_69-2" x1="227.08" y1="103.97" x2="187.07" y2="48.91" xlink:href="#Degradado_sin_nombre_69"/><clipPath id="clippath-27"><rect class="cls-1" y="0" width="338" height="442"/></clipPath><linearGradient id="Degradado_sin_nombre_71-3" x1="232.24" y1="97.17" x2="205.84" y2="85.1" xlink:href="#Degradado_sin_nombre_71"/><clipPath id="clippath-28"><rect class="cls-1" y="0" width="338" height="442"/></clipPath><linearGradient id="Degradado_sin_nombre_75" x1="272.17" y1="111.18" x2="268.84" y2="110.44" gradientTransform="translate(0 441.89) scale(1 -1)" gradientUnits="userSpaceOnUse"><stop offset=".07" stop-color="#2d3b4f"/><stop offset="1" stop-color="#47648e"/></linearGradient><clipPath id="clippath-29"><rect class="cls-1" y="0" width="338" height="442"/></clipPath><linearGradient id="Degradado_sin_nombre_74-2" x1="293.22" y1="104.21" x2="280.72" y2="112.93" xlink:href="#Degradado_sin_nombre_74"/><clipPath id="clippath-30"><rect class="cls-1" y="0" width="338" height="442"/></clipPath><linearGradient id="Degradado_sin_nombre_73" x1="277.24" y1="94.8" x2="276.82" y2="115.45" gradientTransform="translate(0 441.89) scale(1 -1)" gradientUnits="userSpaceOnUse"><stop offset="0" stop-color="#4e4bbf"/><stop offset=".92" stop-color="#37327f"/></linearGradient><clipPath id="clippath-31"><rect class="cls-1" y="0" width="338" height="442"/></clipPath><linearGradient id="Degradado_sin_nombre_72-4" x1="278.33" y1="118.38" x2="295.23" y2="111.56" xlink:href="#Degradado_sin_nombre_72"/><clipPath id="clippath-32"><rect class="cls-1" y="0" width="338" height="442"/></clipPath><linearGradient id="Degradado_sin_nombre_72-5" x1="284.8" y1="111.4" x2="311.61" y2="108.95" xlink:href="#Degradado_sin_nombre_72"/><clipPath id="clippath-33"><rect class="cls-1" y="0" width="338" height="442"/></clipPath><linearGradient id="Degradado_sin_nombre_71-4" x1="283.75" y1="111.04" x2="277.32" y2="116.86" xlink:href="#Degradado_sin_nombre_71"/><clipPath id="clippath-34"><rect class="cls-1" y="0" width="338" height="442"/></clipPath><linearGradient id="Degradado_sin_nombre_71-5" x1="270.37" y1="111.34" x2="276.34" y2="116.54" xlink:href="#Degradado_sin_nombre_71"/><clipPath id="clippath-35"><rect class="cls-1" y="0" width="338" height="442"/></clipPath><linearGradient id="Degradado_sin_nombre_70-2" x1="246.1" y1="6.97" x2="235.11" y2="43.07" xlink:href="#Degradado_sin_nombre_70"/><clipPath id="clippath-36"><rect class="cls-1" y="0" width="338" height="442"/></clipPath><linearGradient id="Degradado_sin_nombre_33" x1="254.65" y1="26.34" x2="257.79" y2="26.34" gradientTransform="translate(0 441.89) scale(1 -1)" gradientUnits="userSpaceOnUse"><stop offset="0" stop-color="#4e3f3f"/><stop offset=".44" stop-color="#4e3f3f" stop-opacity=".7"/><stop offset=".69" stop-color="#4e3f3f" stop-opacity="0"/></linearGradient><clipPath id="clippath-37"><rect class="cls-1" y="0" width="338" height="442"/></clipPath><linearGradient id="Degradado_sin_nombre" x1="225.31" y1="26.34" x2="229.17" y2="26.34" gradientTransform="translate(0 441.89) scale(1 -1)" gradientUnits="userSpaceOnUse"><stop offset="0" stop-color="#4e3f3f"/><stop offset=".44" stop-color="#4e3f3f" stop-opacity=".7"/><stop offset=".91" stop-color="#4e3f3f" stop-opacity="0"/></linearGradient><clipPath id="clippath-38"><rect class="cls-1" y="0" width="338" height="442"/></clipPath><linearGradient id="Degradado_sin_nombre-2" x1="240.13" x2="242.67" xlink:href="#Degradado_sin_nombre"/><clipPath id="clippath-39"><rect class="cls-1" y="0" width="338" height="442"/></clipPath><linearGradient id="Degradado_sin_nombre-3" x1="240.29" y1="43.11" x2="240.32" y2="39.78" xlink:href="#Degradado_sin_nombre"/><clipPath id="clippath-40"><rect class="cls-1" y="0" width="338" height="442"/></clipPath><linearGradient id="Degradado_sin_nombre-4" x1="240.19" y1="26.51" x2="240.22" y2="23.61" xlink:href="#Degradado_sin_nombre"/><clipPath id="clippath-41"><rect class="cls-1" y="0" width="338" height="442"/></clipPath><linearGradient id="Degradado_sin_nombre-5" x1="233.61" y1="34.57" x2="235.32" y2="35.82" xlink:href="#Degradado_sin_nombre"/><clipPath id="clippath-42"><rect class="cls-1" y="0" width="338" height="442"/></clipPath><linearGradient id="Degradado_sin_nombre-6" x1="247.73" y1="35.16" x2="249.3" y2="33.83" xlink:href="#Degradado_sin_nombre"/><clipPath id="clippath-43"><rect class="cls-1" y="0" width="338" height="442"/></clipPath><linearGradient id="Degradado_sin_nombre-7" x1="232.37" y1="18.94" x2="236.07" y2="15.84" xlink:href="#Degradado_sin_nombre"/><clipPath id="clippath-44"><rect class="cls-1" y="0" width="338" height="442"/></clipPath><linearGradient id="Degradado_sin_nombre-8" x1="246.71" y1="16.62" x2="248.42" y2="17.87" xlink:href="#Degradado_sin_nombre"/><clipPath id="clippath-45"><rect class="cls-1" y="0" width="338" height="442"/></clipPath><linearGradient id="Degradado_sin_nombre_69-3" x1="251" y1="40.9" x2="228.7" y2="12.4" xlink:href="#Degradado_sin_nombre_69"/><clipPath id="clippath-46"><rect class="cls-1" y="0" width="338" height="442"/></clipPath><linearGradient id="Degradado_sin_nombre_69-4" x1="228.65" y1="40.54" x2="252.96" y2="11.16" xlink:href="#Degradado_sin_nombre_69"/><clipPath id="clippath-47"><rect class="cls-1" y="0" width="338" height="442"/></clipPath><linearGradient id="Degradado_sin_nombre_69-5" x1="239.93" y1="41.14" x2="240.09" y2="9.38" xlink:href="#Degradado_sin_nombre_69"/><clipPath id="clippath-48"><rect class="cls-1" y="0" width="338" height="442"/></clipPath><linearGradient id="Degradado_sin_nombre_69-6" x1="239.8" y1="9.26" x2="240.1" y2="44.09" xlink:href="#Degradado_sin_nombre_69"/><clipPath id="clippath-49"><rect class="cls-1" y="0" width="338" height="442"/></clipPath><linearGradient id="Degradado_sin_nombre_69-7" x1="224.35" y1="26.79" x2="255.65" y2="26.79" xlink:href="#Degradado_sin_nombre_69"/><clipPath id="clippath-50"><rect class="cls-1" y="0" width="338" height="442"/></clipPath><linearGradient id="Degradado_sin_nombre_70-3" x1="246.83" y1="57.93" x2="233.43" y2="77.86" xlink:href="#Degradado_sin_nombre_70"/><clipPath id="clippath-51"><rect class="cls-1" y="0" width="338" height="442"/></clipPath><linearGradient id="Degradado_sin_nombre-9" x1="239.95" y1="77.15" x2="239.95" y2="73.92" xlink:href="#Degradado_sin_nombre"/><clipPath id="clippath-52"><rect class="cls-1" y="0" width="338" height="442"/></clipPath><linearGradient id="Degradado_sin_nombre-10" x1="235.21" y1="72.34" x2="259.48" y2="50.61" xlink:href="#Degradado_sin_nombre"/><clipPath id="clippath-53"><rect class="cls-1" y="0" width="338" height="442"/></clipPath><linearGradient id="Degradado_sin_nombre-11" x1="231.48" y1="67.81" x2="234.47" y2="67.75" xlink:href="#Degradado_sin_nombre"/><clipPath id="clippath-54"><rect class="cls-1" y="0" width="338" height="442"/></clipPath><linearGradient id="Degradado_sin_nombre-12" x1="240.07" y1="67.98" x2="242" y2="66.26" xlink:href="#Degradado_sin_nombre"/><clipPath id="clippath-55"><rect class="cls-1" y="0" width="338" height="442"/></clipPath><linearGradient id="Degradado_sin_nombre-13" x1="233.38" y1="67.29" x2="248.3" y2="67.29" xlink:href="#Degradado_sin_nombre"/><clipPath id="clippath-56"><rect class="cls-1" y="0" width="338" height="442"/></clipPath><linearGradient id="Degradado_sin_nombre_69-8" x1="238.17" y1="73.85" x2="242.73" y2="59.48" xlink:href="#Degradado_sin_nombre_69"/><clipPath id="clippath-57"><rect class="cls-1" y="0" width="338" height="442"/></clipPath><linearGradient id="Degradado_sin_nombre_69-9" x1="232.12" y1="78.09" x2="248.36" y2="57.62" xlink:href="#Degradado_sin_nombre_69"/><clipPath id="clippath-58"><rect class="cls-1" y="0" width="338" height="442"/></clipPath><linearGradient id="Degradado_sin_nombre-14" x1="324.95" y1="26.16" x2="311.51" y2="34.21" xlink:href="#Degradado_sin_nombre"/><clipPath id="clippath-59"><rect class="cls-1" y="0" width="338" height="442"/></clipPath><linearGradient id="Degradado_sin_nombre-15" x1="309.8" y1="37.11" x2="330.28" y2="21.74" xlink:href="#Degradado_sin_nombre"/><clipPath id="clippath-60"><rect class="cls-1" y="0" width="338" height="442"/></clipPath><linearGradient id="Degradado_sin_nombre-16" x1="322.02" y1="21.27" x2="308.58" y2="29.32" xlink:href="#Degradado_sin_nombre"/><clipPath id="clippath-61"><rect class="cls-1" y="0" width="338" height="442"/></clipPath><linearGradient id="Degradado_sin_nombre-17" x1="302.98" y1="34.01" x2="345.04" y2="14.25" xlink:href="#Degradado_sin_nombre"/><clipPath id="clippath-62"><rect class="cls-1" y="0" width="338" height="442"/></clipPath><linearGradient id="Degradado_sin_nombre-18" x1="300.15" y1="35.74" x2="319.39" y2="22.62" xlink:href="#Degradado_sin_nombre"/><clipPath id="clippath-63"><rect class="cls-1" y="0" width="338" height="442"/></clipPath><linearGradient id="Degradado_sin_nombre_69-10" x1="328.3" y1="23.8" x2="303.3" y2="32.69" xlink:href="#Degradado_sin_nombre_69"/><clipPath id="clippath-64"><rect class="cls-1" y="0" width="338" height="442"/></clipPath><linearGradient id="Degradado_sin_nombre-19" x1="311.85" y1="49.28" x2="311.97" y2="41.98" xlink:href="#Degradado_sin_nombre"/><clipPath id="clippath-65"><rect class="cls-1" y="0" width="338" height="442"/></clipPath><linearGradient id="Degradado_sin_nombre-20" x1="278.2" y1="97.79" x2="250.27" y2="66.24" xlink:href="#Degradado_sin_nombre"/><linearGradient id="Degradado_sin_nombre_111" x1="169" y1="226.89" x2="169" y2="-.11" gradientTransform="translate(0 441.89) scale(1 -1)" gradientUnits="userSpaceOnUse"><stop offset="0" stop-color="#000" stop-opacity="0"/><stop offset="1" stop-color="#000" stop-opacity=".38"/></linearGradient></defs><g id="Laag_3"><g><g class="cls-21"><rect class="cls-92" x="-16.17" y="-8.6" width="369.12" height="454.4"/></g><g class="cls-30"><g><path class="cls-106" d="M146.3,71c.5,0,.9,.2,.9,.5s-.4,.5-.9,.5-.9-.2-.9-.5c0-.2,.4-.5,.9-.5Z"/><path class="cls-26" d="M206.7,38c.5,0,.9,.2,.9,.5s-.4,.5-.9,.5-.9-.2-.9-.5c-.1-.3,.4-.5,.9-.5Z"/><path class="cls-26" d="M237.5,184c.5,0,.9,.2,.9,.5s-.4,.5-.9,.5-.9-.2-.9-.5,.4-.5,.9-.5Z"/><path class="cls-107" d="M247.1,323.1c.5,0,.9,.2,.9,.5s-.4,.5-.9,.5-.9-.2-.9-.5c-.1-.3,.4-.5,.9-.5Z"/><path class="cls-107" d="M176.2,355.3c.5,0,.9,.2,.9,.5s-.4,.5-.9,.5-.9-.2-.9-.5,.4-.5,.9-.5Z"/><path class="cls-107" d="M91,184.5c.5,0,.9,.2,.9,.5s-.4,.5-.9,.5-.9-.2-.9-.5c0-.2,.4-.5,.9-.5Z"/><path class="cls-107" d="M205.7,29.8c.5,0,.9,.2,.9,.5s-.4,.5-.9,.5-.9-.2-.9-.5c0-.2,.4-.5,.9-.5Z"/><path class="cls-107" d="M83.1,146.3c.5,0,.9,.2,.9,.5s-.4,.5-.9,.5-.9-.2-.9-.5c0-.2,.4-.5,.9-.5Z"/><ellipse class="cls-25" cx="104.8" cy="7.5" rx=".9" ry=".5"/><path class="cls-26" d="M236.9,375.5c.5,0,.9,.2,.9,.5s-.4,.5-.9,.5-.9-.2-.9-.5c-.1-.2,.3-.5,.9-.5Z"/><path class="cls-26" d="M116.8,232.6c.5,0,.9,.2,.9,.5s-.4,.5-.9,.5-.9-.2-.9-.5c-.1-.2,.3-.5,.9-.5Z"/><path class="cls-26" d="M227.6,298.5c.5,0,.9,.2,.9,.5s-.4,.5-.9,.5-.9-.2-.9-.5c0-.2,.4-.5,.9-.5Z"/><path class="cls-26" d="M92.9,286.5c.5,0,.9,.2,.9,.5s-.4,.5-.9,.5-.9-.2-.9-.5,.4-.5,.9-.5Z"/><path class="cls-26" d="M147.7,422.7c.5,0,.9,.2,.9,.5s-.4,.5-.9,.5-.9-.2-.9-.5c-.1-.3,.3-.5,.9-.5Z"/><path class="cls-26" d="M212.5,322.6c.5,0,.9,.2,.9,.5s-.4,.5-.9,.5-.9-.2-.9-.5,.4-.5,.9-.5Z"/><path class="cls-106" d="M164.4,.8c.5,0,.9,.2,.9,.5s-.4,.5-.9,.5-.9-.2-.9-.5,.4-.5,.9-.5Z"/><path class="cls-24" d="M185.8,44.1c.5,0,.9,.2,.9,.5s-.4,.5-.9,.5-.9-.2-.9-.5c-.1-.3,.4-.5,.9-.5Z"/><path class="cls-24" d="M92,211.5c.5,0,.9,.2,.9,.5s-.4,.5-.9,.5-.9-.2-.9-.5c-.1-.2,.4-.5,.9-.5Z"/><path class="cls-24" d="M127.3,76.1c.5,0,.9,.2,.9,.5s-.4,.5-.9,.5-.9-.2-.9-.5c-.1-.3,.4-.5,.9-.5Z"/><path class="cls-24" d="M145.4,132.2c.5,0,.9,.2,.9,.5s-.4,.5-.9,.5-.9-.2-.9-.5c-.1-.3,.4-.5,.9-.5Z"/><path class="cls-24" d="M202.6,260.8c.5,0,.9,.2,.9,.5s-.4,.5-.9,.5-.9-.2-.9-.5c-.1-.2,.3-.5,.9-.5Z"/><ellipse class="cls-23" cx="259.5" cy="311.8" rx=".9" ry=".5"/></g></g><g class="cls-33"><path class="cls-97" d="M258.9,399.4c-16.5-6.6-58-8.8-99.1-7.7-58.5,1.6-121.6,23.2-229.5,50.6H258.9v-42.9Z"/></g><g class="cls-32"><path class="cls-22" d="M281,404.8c-4.5-1.8-32.9-8.7-40.5-9.9,36.9,12.9-7.6,51.6-106,44.3-93.3-6.9-80.2-23.3-70.6-32-18.8,3.7-30.7,8.5-49.4,12.8l-84.2,22.2,328.6-.1,99.5-.1-77.4-37.2Z"/></g><g class="cls-31"><path class="cls-99" d="M59.2,399.4s-3.5,4.7-4.9,14.4,4.9,10.7,4.9,10.7c0,0,5.6-1.7,4.6-10.7-1.1-9.1-4.6-14.4-4.6-14.4Z"/></g><g class="cls-37"><polygon class="cls-28" points="58.9 413.2 58.3 430.2 59.9 430.2 58.9 413.2"/></g><g class="cls-36"><path class="cls-118" d="M106,427.2c.9-1.2,1.4-2.6,1.4-4.1,.2-3.6,.7,.3,0-3.3-.1-1.3-.8-2.6-4-3.1,.1-2-2.9-2.9-4.1-1.5,.5-2.8-4.6-3-4.4-1.5-.9-.7-2.2-.4-2.9,.5-.2,.2-.3,.5-.3,.8-.6-.7-1.3-1.3-2.1-1.7-.8-.4-1.8-.3-2.6,.3-.7,.6-.8,1.7-.2,2.4h0c-.8-.2-1.7,0-2.3,.5-.6,.6-.8,1.5-.3,2.2-.8-.8-2-.9-2.9-.1-.7,.6-.9,1.7-.4,2.5-.6-1-2.2-.4-2.6,.5-.9-1.4-2.6-2-4.3-2.1-.9-.1-1.8,0-2.6,.4-1.6,.9-2,3-2.3,4.8-.4-.5-.9-.9-1.4-1.2-1.3-.6-2.7,.4-3.3,1.5-1.3-1.6-3.2-2.6-5.2-2.8-2-.1-4.2,1.2-4.6,3.1-.8-.4-1.6-.6-2.5-.6s-1.7,.6-2,1.4c-1.7-.8-3.8-.2-4.6,1.6-.6,1.1,.2,2.3,.2,2.7l60.3-3.2Z"/></g><g class="cls-34"><path class="cls-101" d="M69.7,386.6s-4.9,6.6-7,20.4c-2.1,13.7,7,15.2,7,15.2,0,0,8-2.4,6.5-15.2-1.6-12.9-6.5-20.4-6.5-20.4Z"/></g><g class="cls-35"><polygon class="cls-28" points="69.3 406.1 68.4 430.2 70.6 430.2 69.3 406.1"/></g><g class="cls-38"><path class="cls-22" d="M358.4,421H104c-9.8,0-17.7,7.9-17.7,17.7v3.3H358.5v-21h-.1Z"/></g><g class="cls-88"><path class="cls-120" d="M176.7,406.1c-.6-3.8-2.7-7-7.1-6.6-2.2,.3-4.3,1.4-5.9,3l-.1,.1c-.4-1-1.6-2.4-4.7-2.7-4.8-.5-5,3.6-5,3.6,0,0-.7-2.1-4.8-2.5-2.4-.3-3.7,.5-4.5,1.2-1.1-1.8-3-3-5.7-2.7-2.2,.3-4.2,.9-5.8,2.5-1.4,1.3-1.5,2-2,3.7-1.1-.8-2.7-.6-3.5,.5-.2,.3-.6,1.3-.7,1.7-.7-.9-1-.9-2-1.4s-2,0-2.9,.6c-.9,.7-1.1,2-.4,2.9h0c-1-.3-2-.1-2.9,.5-.8,.7-1,1.8-.4,2.7-.9-1-2.4-1.1-3.5-.3-.9,.8-1.1,2-.5,3.1-.7-1.2-2.6-.6-3.2,.5-1-1.7-3.1-2.5-5.2-2.7-1.1-.2-2.2,0-3.2,.4-2,1-2.6,3.5-2.9,5.7-.4-.6-1-1.1-1.7-1.5-1.6-.8-3.2,.4-4.1,1.7-1.5-2-3.8-3.3-6.3-3.6-2.4-.2-5.1,1.3-5.7,3.7-.9-.5-2-.8-3-.8-1.1,0-2.1,.6-2.5,1.6-2-1.1-4.6-.3-5.7,1.7-.2,.4-.4,.9-.5,1.4l74.1,.1h30.6c1.2-1.4,1.8-3.1,1.9-5,.7-4.2,.5-8.7-.2-13.1Z"/></g><g class="cls-90"><path class="cls-100" d="M207.7,442c47.8-4.3,97-7.2,150.6-9.3v-11.7H98.8c-57,5-102.9,21-102.9,21H207.7Z"/></g><g class="cls-87"><path class="cls-27" d="M194.5,442c22.1-8.5,55-15.8,82-20.3l16-.7c-12.1,2.8-33.1,10.2-52.8,18.4-10.8,.8-21.5,1.7-32.1,2.7-5.4-.1-6.1-.1-13.1-.1Z"/></g><g class="cls-86"><path class="cls-22" d="M239.7,439.4l-2.8,2.6h-29.3s10.7-.9,15.4-1.3c4.8-.4,14.8-1.2,16.7-1.3Z"/></g><g class="cls-85"><path class="cls-119" d="M208.3,402.8c-.6-3.8-2.7-7-7.1-6.6-2.2,.3-4.3,1.4-5.9,3l-.1,.1c-.4-1-1.6-2.4-4.7-2.7-4.8-.5-5,3.6-5,3.6,0,0-.7-2.1-4.8-2.5-2.4-.3-3.7,.5-4.5,1.2-1.1-1.8-3-3-5.7-2.7-2.2,.3-4.2,.9-5.8,2.5-1.4,1.3-1.5,2-2,3.7-1.1-.8-2.7-.6-3.5,.5-.2,.3-.6,1.3-.7,1.7-.7-.9-1-.9-2-1.4s-2,0-2.9,.6c-.9,.7-1.1,2-.4,2.9h0c-1-.3-2-.1-2.9,.5-.8,.7-1,1.8-.4,2.7-.9-1-2.4-1.1-3.5-.3-.9,.8-1.1,2-.5,3.1-.7-1.2-2.6-.6-3.2,.5-1-1.7-3.1-2.5-5.2-2.7-1.1-.2-2.2,0-3.2,.4-2,1-2.6,3.5-2.9,5.7-.4-.6-1-1.1-1.7-1.5-1.6-.8-3.2,.4-4.1,1.7-1.5-2-3.8-3.3-6.3-3.6-2.4-.2-5.1,1.3-5.7,3.7-.9-.5-2-.8-3-.8-1.1,0-2.1,.6-2.5,1.6-2-1.1-4.6-.3-5.7,1.7-.2,.4-.4,.9-.5,1.4l74.1,.1h30.6c1.2-1.4,1.8-3.1,1.9-5,.7-4.2,.5-8.7-.2-13.1Z"/></g><g class="cls-91"><polygon class="cls-95" points="190.3 394.8 204.2 394.8 204.2 386.3 242.9 339 238.8 336.2 202.9 359.4 195.9 386.3 190.3 394.8"/></g><g class="cls-89"><polygon class="cls-127" points="190.3 394.8 197.4 387.1 204.2 387.1 204.2 394.8 190.3 394.8"/></g><g class="cls-40"><polygon class="cls-96" points="281.6 386.3 275.1 359.4 242.1 336.7 206 361.9 200 386.3 200 432.7 281.6 432.7 281.6 386.3"/></g><g class="cls-41"><rect class="cls-104" x="279.3" y="386.3" width="65.2" height="46.5"/></g><g class="cls-44"><polygon class="cls-102" points="345.4 386.3 338.8 359.4 272.7 359.4 279.3 386.3 345.4 386.3"/></g><g class="cls-43"><polygon class="cls-125" points="338.8 359.4 305 336.2 238.8 336.2 272.7 359.4 338.8 359.4"/></g><g class="cls-42"><polygon class="cls-126" points="287.5 394.8 353.6 394.8 345.4 386.3 279.3 386.3 287.5 394.8"/></g><g class="cls-45"><polygon class="cls-93" points="234.8 336.2 269.7 360.3 276.3 387.1 283.4 394.8 287.5 394.8 279.3 386.3 272.7 359.4 238.8 336.2 234.8 336.2"/></g><g class="cls-58"><polygon class="cls-109" points="238.8 336.2 204 360.3 197.4 387.1 190.3 394.8 186.2 394.8 194.4 386.3 201 359.4 234.8 336.2 238.8 336.2"/></g><g class="cls-56"><polygon class="cls-128" points="206 361.9 204 360.3 236.7 337.5 238.9 338.9 206 361.9"/></g><g class="cls-57"><polygon class="cls-98" points="269.7 331.6 271.3 331.6 271.3 330.2 269.7 331.6"/></g><g class="cls-59"><rect class="cls-117" x="282.6" y="329.3" width="13.7" height="11.5"/></g><g class="cls-67"><polygon class="cls-103" points="282.6 340.8 275.3 336.2 271.3 336.2 271.3 329.3 276.9 324.4 282.6 329.3 282.6 340.8"/></g><g class="cls-69"><polygon class="cls-124" points="299.7 330.7 292.5 324.4 276.9 324.4 284.2 330.7 299.7 330.7"/></g><g class="cls-66"><rect class="cls-123" x="284.2" y="330.7" width="15.6" height=".9"/></g><g class="cls-65"><polygon class="cls-130" points="284.2 331.6 276.9 325.2 276.9 324.4 284.2 330.7 284.2 331.6"/></g><g class="cls-60"><polygon class="cls-129" points="269.7 331.6 276.9 325.2 276.9 324.4 269.7 330.7 269.7 331.6"/></g><g class="cls-61"><rect class="cls-122" x="224.4" y="397.4" width="31.3" height="35.3"/></g><g class="cls-62"><rect class="cls-94" x="254.6" y="398.4" width="2" height="34.3"/></g><g class="cls-63"><rect class="cls-20" x="225.4" y="398.4" width="2" height="34.3"/></g><g class="cls-68"><rect class="cls-19" x="240" y="398.4" width="2" height="34.3"/></g><g class="cls-64"><rect class="cls-18" x="225.4" y="398.4" width="29.8" height="2"/></g><g class="cls-48"><rect class="cls-14" x="226.1" y="415.1" width="28.2" height="2"/></g><g class="cls-50"><polygon class="cls-13" points="227.4 398.4 242 416.1 240 416.1 225.4 398.4 227.4 398.4"/></g><g class="cls-49"><polygon class="cls-17" points="254.6 398.4 240 416.1 242 416.1 256.7 398.4 254.6 398.4"/></g><g class="cls-52"><polygon class="cls-15" points="228.2 432.7 242 416.1 240 416.1 226.2 432.7 228.2 432.7"/></g><g class="cls-46"><polygon class="cls-108" points="253.8 432.7 240 416.1 242 416.1 255.8 432.7 253.8 432.7"/></g><g class="cls-47"><polygon class="cls-116" points="253.6 397.4 239 415.1 224.4 432.7 226.4 432.7 241 415.1 255.6 397.4 253.6 397.4"/></g><g class="cls-53"><polygon class="cls-115" points="241 415.1 226.4 397.4 224.4 397.4 239 415.1 253.6 432.7 255.6 432.7 241 415.1"/></g><g class="cls-51"><rect class="cls-114" x="239" y="397.4" width="2" height="35.3"/></g><g class="cls-54"><polygon class="cls-113" points="253.6 397.4 253.6 397.4 226.4 397.4 226.4 397.4 224.4 397.4 224.4 397.4 224.3 397.4 224.3 399.4 224.4 399.4 224.4 432.7 226.4 432.7 226.4 399.4 253.6 399.4 253.6 432.7 255.6 432.7 255.6 397.4 253.6 397.4"/></g><g class="cls-55"><rect class="cls-112" x="224.4" y="414.1" width="31.3" height="2"/></g><g class="cls-72"><rect class="cls-121" x="230.6" y="363.5" width="18.8" height="20.6"/></g><g class="cls-73"><rect class="cls-16" x="233.4" y="364.3" width="13.1" height="1.9"/></g><g class="cls-74"><polygon class="cls-9" points="250.2 364.3 248.3 364.3 248.3 383 231.5 383 231.5 384.9 250.2 384.9 250.2 384.9 250.2 384.9 250.2 364.3"/></g><g class="cls-70"><rect class="cls-10" x="231.5" y="364.3" width="1.9" height="19.6"/></g><g class="cls-71"><polygon class="cls-8" points="248.3 364.3 233.4 383 233.4 384.9 248.3 366.2 248.3 364.3"/></g><g class="cls-75"><polygon class="cls-6" points="233.4 364.3 248.3 383 248.3 384.9 233.4 366.2 233.4 364.3"/></g><g class="cls-76"><polygon class="cls-111" points="247.5 363.5 240 372.9 232.5 363.5 232.5 365.5 239.2 373.8 232.5 382.2 232.5 384.1 240 374.8 247.5 384.1 247.5 382.2 240.8 373.8 247.5 365.5 247.5 363.5"/></g><g class="cls-77"><path class="cls-110" d="M247.5,363.5h-16.8v20.6h18.7v-20.6h-1.9Zm-15,18.7v-16.7h14.9v16.7h-14.9Z"/></g><g class="cls-78"><rect class="cls-5" x="315.3" y="407.2" width="12.7" height="13.1"/></g><g class="cls-82"><polygon class="cls-4" points="327.1 407.8 316 407.8 316 408.8 316 408.8 316 419.4 317.5 419.4 317.5 409.4 327.1 409.4 327.1 407.8"/></g><g class="cls-39"><rect class="cls-12" x="304.2" y="407.2" width="12.7" height="13.1"/></g><g class="cls-79"><polygon class="cls-11" points="327.2 407.8 327.2 419.4 316 419.4 316 419.4 304.8 419.4 304.8 420.9 316.9 420.9 316.9 420.9 327.2 420.9 327.2 420.9 328.7 420.9 328.7 407.8 327.2 407.8"/></g><g class="cls-81"><polygon class="cls-7" points="316.9 407.8 306.4 407.8 306.4 407.8 304.8 407.8 304.8 407.8 304.8 409.4 304.8 419.1 306.4 419.1 306.4 409.4 316.9 409.4 316.9 407.8"/></g><g class="cls-84"><path class="cls-105" d="M328,407.2h-23.8v13.1h23.8v-13.1Zm-11.1,1.5h9.7v10h-9.7v-10h0Zm-11.2,0h9.6v10h-9.6v-10Z"/></g><g class="cls-80"><polygon class="cls-2" points="344.4 394.8 344.4 398.4 283.3 398.9 280.9 394.1 279.3 390.3 283.4 394.8 344.4 394.8"/></g><g class="cls-83"><polygon class="cls-3" points="279.3 390.3 279.3 393 274.6 388 268.3 360.8 237.7 339.7 238.9 338.9 269.7 360.3 276.3 387.1 279.3 390.3"/></g></g><rect class="cls-29" y="215" width="338" height="227"/></g></svg>