<?xml version="1.0" encoding="UTF-8"?><svg id="Capa_1" xmlns="http://www.w3.org/2000/svg" xmlns:xlink="http://www.w3.org/1999/xlink" viewBox="0 0 338 442"><defs><style>.cls-1{fill:none;}.cls-2{fill:url(#Degradado_sin_nombre_61);}.cls-2,.cls-3{opacity:.35;}.cls-2,.cls-3,.cls-4,.cls-5,.cls-6,.cls-7,.cls-8,.cls-9,.cls-10,.cls-11,.cls-12,.cls-13,.cls-14,.cls-15,.cls-16,.cls-17,.cls-18,.cls-19,.cls-20{isolation:isolate;}.cls-3{fill:url(#Degradado_sin_nombre_62);}.cls-4{fill:url(#Degradado_sin_nombre_35);}.cls-4,.cls-5,.cls-6,.cls-7,.cls-8,.cls-9,.cls-10,.cls-11,.cls-12,.cls-13,.cls-14,.cls-15,.cls-16,.cls-17,.cls-18{opacity:.5;}.cls-5{fill:url(#Degradado_sin_nombre_34);}.cls-6{fill:url(#Degradado_sin_nombre_36);}.cls-7{fill:url(#Degradado_sin_nombre_37);}.cls-8{fill:url(#Degradado_sin_nombre_38);}.cls-9{fill:url(#Degradado_sin_nombre_50);}.cls-10{fill:url(#Degradado_sin_nombre_51);}.cls-11{fill:url(#Degradado_sin_nombre_52);}.cls-12{fill:url(#Degradado_sin_nombre_58);}.cls-13{fill:url(#Degradado_sin_nombre_56);}.cls-14{fill:url(#Degradado_sin_nombre_59);}.cls-15{fill:url(#Degradado_sin_nombre_40);}.cls-16{fill:url(#Degradado_sin_nombre_49);}.cls-17{fill:url(#Degradado_sin_nombre_48);}.cls-18{fill:url(#Degradado_sin_nombre_39);}.cls-21{clip-path:url(#clippath);}.cls-22{fill:#ffd039;}.cls-23{fill:#edbd05;}.cls-24{fill:#dab20e;}.cls-25{fill:#443226;}.cls-26{fill:#83831c;}.cls-19{opacity:.2;}.cls-19,.cls-20{fill:#fff8bb;}.cls-20{opacity:.15;}.cls-27{fill:url(#Degradado_sin_nombre_111);}.cls-28{clip-path:url(#clippath-1);}.cls-29{clip-path:url(#clippath-4);}.cls-30{clip-path:url(#clippath-3);}.cls-31{clip-path:url(#clippath-2);}.cls-32{clip-path:url(#clippath-7);}.cls-33{clip-path:url(#clippath-8);}.cls-34{clip-path:url(#clippath-6);}.cls-35{clip-path:url(#clippath-5);}.cls-36{clip-path:url(#clippath-9);}.cls-37{clip-path:url(#clippath-60);}.cls-38{clip-path:url(#clippath-69);}.cls-39{clip-path:url(#clippath-24);}.cls-40{clip-path:url(#clippath-23);}.cls-41{clip-path:url(#clippath-25);}.cls-42{clip-path:url(#clippath-44);}.cls-43{clip-path:url(#clippath-45);}.cls-44{clip-path:url(#clippath-40);}.cls-45{clip-path:url(#clippath-42);}.cls-46{clip-path:url(#clippath-41);}.cls-47{clip-path:url(#clippath-47);}.cls-48{clip-path:url(#clippath-43);}.cls-49{clip-path:url(#clippath-46);}.cls-50{clip-path:url(#clippath-48);}.cls-51{clip-path:url(#clippath-49);}.cls-52{clip-path:url(#clippath-27);}.cls-53{clip-path:url(#clippath-28);}.cls-54{clip-path:url(#clippath-26);}.cls-55{clip-path:url(#clippath-29);}.cls-56{clip-path:url(#clippath-34);}.cls-57{clip-path:url(#clippath-35);}.cls-58{clip-path:url(#clippath-36);}.cls-59{clip-path:url(#clippath-37);}.cls-60{clip-path:url(#clippath-39);}.cls-61{clip-path:url(#clippath-33);}.cls-62{clip-path:url(#clippath-32);}.cls-63{clip-path:url(#clippath-30);}.cls-64{clip-path:url(#clippath-38);}.cls-65{clip-path:url(#clippath-31);}.cls-66{clip-path:url(#clippath-53);}.cls-67{clip-path:url(#clippath-54);}.cls-68{clip-path:url(#clippath-50);}.cls-69{clip-path:url(#clippath-51);}.cls-70{clip-path:url(#clippath-52);}.cls-71{clip-path:url(#clippath-55);}.cls-72{clip-path:url(#clippath-56);}.cls-73{clip-path:url(#clippath-57);}.cls-74{clip-path:url(#clippath-58);}.cls-75{clip-path:url(#clippath-61);}.cls-76{clip-path:url(#clippath-64);}.cls-77{clip-path:url(#clippath-62);}.cls-78{clip-path:url(#clippath-68);}.cls-79{clip-path:url(#clippath-67);}.cls-80{clip-path:url(#clippath-73);}.cls-81{clip-path:url(#clippath-59);}.cls-82{clip-path:url(#clippath-65);}.cls-83{clip-path:url(#clippath-63);}.cls-84{clip-path:url(#clippath-66);}.cls-85{clip-path:url(#clippath-70);}.cls-86{clip-path:url(#clippath-72);}.cls-87{clip-path:url(#clippath-71);}.cls-88{clip-path:url(#clippath-14);}.cls-89{clip-path:url(#clippath-13);}.cls-90{clip-path:url(#clippath-12);}.cls-91{clip-path:url(#clippath-10);}.cls-92{clip-path:url(#clippath-15);}.cls-93{clip-path:url(#clippath-17);}.cls-94{clip-path:url(#clippath-16);}.cls-95{clip-path:url(#clippath-19);}.cls-96{clip-path:url(#clippath-11);}.cls-97{clip-path:url(#clippath-18);}.cls-98{fill:url(#Degradado_sin_nombre_41);}.cls-99{fill:url(#Degradado_sin_nombre_55);}.cls-100{fill:url(#Degradado_sin_nombre_57);}.cls-101{fill:url(#Degradado_sin_nombre_53);}.cls-102{fill:url(#Degradado_sin_nombre_54);}.cls-103{fill:url(#Degradado_sin_nombre_45);}.cls-104{fill:url(#Degradado_sin_nombre_44);}.cls-105{fill:url(#Degradado_sin_nombre_43);}.cls-106{fill:url(#Degradado_sin_nombre_42);}.cls-107{fill:url(#Degradado_sin_nombre_47);}.cls-108{fill:url(#Degradado_sin_nombre_46);}.cls-109{fill:url(#Degradado_sin_nombre_60);}.cls-110{fill:url(#Degradado_sin_nombre_63);}.cls-111{fill:url(#Degradado_sin_nombre_65);}.cls-112{fill:url(#Degradado_sin_nombre_64);}.cls-113{fill:url(#Degradado_sin_nombre_30);}.cls-114{fill:url(#Degradado_sin_nombre_32);}.cls-115{fill:url(#Degradado_sin_nombre_31);}.cls-116{fill:url(#Degradado_sin_nombre_33);}.cls-117{fill:url(#Degradado_sin_nombre_10);}.cls-118{fill:url(#Degradado_sin_nombre_19);}.cls-119{fill:url(#Degradado_sin_nombre_20);}.cls-120{fill:url(#Degradado_sin_nombre_21);}.cls-121{fill:url(#Degradado_sin_nombre_22);}.cls-122{fill:url(#Degradado_sin_nombre_23);}.cls-123{fill:url(#Degradado_sin_nombre_24);}.cls-124{fill:url(#Degradado_sin_nombre_25);}.cls-125{fill:url(#Degradado_sin_nombre_26);}.cls-126{fill:url(#Degradado_sin_nombre_27);}.cls-127{fill:url(#Degradado_sin_nombre_28);}.cls-128{fill:url(#Degradado_sin_nombre_11);}.cls-129{fill:url(#Degradado_sin_nombre_12);}.cls-130{fill:url(#Degradado_sin_nombre_18);}.cls-131{fill:url(#Degradado_sin_nombre_15);}.cls-132{fill:url(#Degradado_sin_nombre_17);}.cls-133{fill:url(#Degradado_sin_nombre_16);}.cls-134{fill:url(#Degradado_sin_nombre_29);}.cls-135{fill:url(#Degradado_sin_nombre_6);}.cls-136{fill:url(#Degradado_sin_nombre_7);}.cls-137{fill:url(#Degradado_sin_nombre_3);}.cls-138{fill:url(#Degradado_sin_nombre_8);}.cls-139{fill:url(#Degradado_sin_nombre_9);}.cls-140{fill:url(#Degradado_sin_nombre_4);}.cls-141{fill:url(#Degradado_sin_nombre_5);}</style><clipPath id="clippath"><rect class="cls-1" y="0" width="338" height="442"/></clipPath><linearGradient id="Degradado_sin_nombre_3" x1="48.16" y1="1146.21" x2="49.6" y2="451.23" gradientTransform="translate(0 -397.89)" gradientUnits="userSpaceOnUse"><stop offset="0" stop-color="#f8f4c7"/><stop offset="1" stop-color="#fcb422"/></linearGradient><clipPath id="clippath-1"><rect class="cls-1" y="0" width="338" height="442"/></clipPath><clipPath id="clippath-2"><rect class="cls-1" y="0" width="338" height="442"/></clipPath><clipPath id="clippath-3"><rect class="cls-1" y="0" width="338" height="442"/></clipPath><linearGradient id="Degradado_sin_nombre_4" x1="202.15" y1="438.37" x2="202.15" y2="380.78" gradientTransform="translate(0 441.89) scale(1 -1)" gradientUnits="userSpaceOnUse"><stop offset="0" stop-color="#f8f4c7" stop-opacity=".3"/><stop offset="1" stop-color="#f8f4c7" stop-opacity="0"/></linearGradient><clipPath id="clippath-4"><rect class="cls-1" y="0" width="338" height="442"/></clipPath><linearGradient id="Degradado_sin_nombre_5" x1="221.41" y1="435.89" x2="221.41" y2="400.19" gradientTransform="translate(0 441.89) scale(1 -1)" gradientUnits="userSpaceOnUse"><stop offset="0" stop-color="#f8f4c7" stop-opacity=".2"/><stop offset="1" stop-color="#f8f4c7" stop-opacity="0"/></linearGradient><clipPath id="clippath-5"><rect class="cls-1" y="0" width="338" height="442"/></clipPath><linearGradient id="Degradado_sin_nombre_6" x1="71.55" y1="3.76" x2="201.83" y2="25" gradientTransform="translate(0 441.89) scale(1 -1)" gradientUnits="userSpaceOnUse"><stop offset="0" stop-color="#d8b41e"/><stop offset="1" stop-color="#eec61d"/></linearGradient><clipPath id="clippath-6"><rect class="cls-1" y="0" width="338" height="442"/></clipPath><clipPath id="clippath-7"><rect class="cls-1" y="0" width="338" height="442"/></clipPath><linearGradient id="Degradado_sin_nombre_7" x1="61.52" y1="22" x2="53.95" y2="39" gradientTransform="translate(0 441.89) scale(1 -1)" gradientUnits="userSpaceOnUse"><stop offset=".3" stop-color="#726f0e"/><stop offset=".61" stop-color="#767311"/><stop offset=".95" stop-color="#81811a"/><stop offset="1" stop-color="#83831c"/></linearGradient><clipPath id="clippath-8"><rect class="cls-1" y="0" width="338" height="442"/></clipPath><clipPath id="clippath-9"><rect class="cls-1" y="0" width="338" height="442"/></clipPath><clipPath id="clippath-10"><rect class="cls-1" y="0" width="338" height="442"/></clipPath><linearGradient id="Degradado_sin_nombre_8" x1="69.67" y1="20.46" x2="68.78" y2="54.99" gradientTransform="translate(0 441.89) scale(1 -1)" gradientUnits="userSpaceOnUse"><stop offset=".3" stop-color="#726f0e"/><stop offset=".61" stop-color="#767311"/><stop offset=".95" stop-color="#81811a"/><stop offset="1" stop-color="#83831c"/></linearGradient><clipPath id="clippath-11"><rect class="cls-1" y="0" width="338" height="442"/></clipPath><clipPath id="clippath-12"><rect class="cls-1" y="0" width="338" height="442"/></clipPath><clipPath id="clippath-13"><rect class="cls-1" y="0" width="338" height="442"/></clipPath><clipPath id="clippath-14"><rect class="cls-1" y="0" width="338" height="442"/></clipPath><linearGradient id="Degradado_sin_nombre_9" x1="86.3" y1="10.39" x2="358.5" y2="10.39" gradientTransform="translate(0 441.89) scale(1 -1)" gradientUnits="userSpaceOnUse"><stop offset=".52" stop-color="#ada10c"/><stop offset="1" stop-color="#a3900a"/></linearGradient><clipPath id="clippath-15"><rect class="cls-1" y="0" width="338" height="442"/></clipPath><linearGradient id="Degradado_sin_nombre_10" x1="163.39" y1="14.48" x2="95.35" y2="39.5" gradientTransform="translate(0 441.89) scale(1 -1)" gradientUnits="userSpaceOnUse"><stop offset="0" stop-color="#726f0e"/><stop offset="1" stop-color="#83831c"/></linearGradient><clipPath id="clippath-16"><rect class="cls-1" y="0" width="338" height="442"/></clipPath><linearGradient id="Degradado_sin_nombre_11" x1="53.45" y1="-47.03" x2="171.39" y2="2.16" gradientTransform="translate(0 441.89) scale(1 -1)" gradientUnits="userSpaceOnUse"><stop offset="0" stop-color="#ada10c"/><stop offset="1" stop-color="#d2be07"/></linearGradient><clipPath id="clippath-17"><rect class="cls-1" y="0" width="338" height="442"/></clipPath><clipPath id="clippath-18"><rect class="cls-1" y="0" width="338" height="442"/></clipPath><clipPath id="clippath-19"><rect class="cls-1" y="0" width="338" height="442"/></clipPath><linearGradient id="Degradado_sin_nombre_12" x1="194.98" y1="17.78" x2="126.94" y2="42.81" gradientTransform="translate(0 441.89) scale(1 -1)" gradientUnits="userSpaceOnUse"><stop offset="0" stop-color="#726f0e"/><stop offset="1" stop-color="#83831c"/></linearGradient><clipPath id="clippath-23"><rect class="cls-1" y="0" width="338" height="442"/></clipPath><linearGradient id="Degradado_sin_nombre_15" x1="224.28" y1="88.61" x2="192.22" y2="51.78" gradientTransform="translate(0 441.89) scale(1 -1)" gradientUnits="userSpaceOnUse"><stop offset=".31" stop-color="#968e62"/><stop offset="1" stop-color="#a8a274"/></linearGradient><clipPath id="clippath-24"><rect class="cls-1" y="0" width="338" height="442"/></clipPath><linearGradient id="Degradado_sin_nombre_16" x1="201.86" y1="53.9" x2="196.06" y2="45.33" gradientTransform="translate(0 441.89) scale(1 -1)" gradientUnits="userSpaceOnUse"><stop offset="0" stop-color="#757451"/><stop offset="1" stop-color="#878752"/></linearGradient><clipPath id="clippath-25"><rect class="cls-1" y="0" width="338" height="442"/></clipPath><linearGradient id="Degradado_sin_nombre_17" x1="240.44" y1="100.19" x2="240.92" y2="9.54" gradientTransform="translate(0 441.89) scale(1 -1)" gradientUnits="userSpaceOnUse"><stop offset="0" stop-color="#cf6842"/><stop offset=".69" stop-color="#cc5632"/><stop offset=".83" stop-color="#ca5533"/><stop offset=".91" stop-color="#c25135"/><stop offset=".97" stop-color="#b44b39"/><stop offset="1" stop-color="#ab473c"/></linearGradient><clipPath id="clippath-26"><rect class="cls-1" y="0" width="338" height="442"/></clipPath><linearGradient id="Degradado_sin_nombre_18" x1="350.02" y1="59.72" x2="303.29" y2="26.15" gradientTransform="translate(0 441.89) scale(1 -1)" gradientUnits="userSpaceOnUse"><stop offset="0" stop-color="#9b2b26"/><stop offset="1" stop-color="#ab473c"/></linearGradient><clipPath id="clippath-27"><rect class="cls-1" y="0" width="338" height="442"/></clipPath><linearGradient id="Degradado_sin_nombre_19" x1="306.97" y1="82.96" x2="310.99" y2="56.07" gradientTransform="translate(0 441.89) scale(1 -1)" gradientUnits="userSpaceOnUse"><stop offset=".06" stop-color="#e5dfbe"/><stop offset="1" stop-color="#f2edce"/></linearGradient><clipPath id="clippath-28"><rect class="cls-1" y="0" width="338" height="442"/></clipPath><linearGradient id="Degradado_sin_nombre_20" x1="253.92" y1="109.93" x2="317.84" y2="80.94" gradientTransform="translate(0 441.89) scale(1 -1)" gradientUnits="userSpaceOnUse"><stop offset=".06" stop-color="#f2edce"/><stop offset="1" stop-color="#fcf9de"/></linearGradient><clipPath id="clippath-29"><rect class="cls-1" y="0" width="338" height="442"/></clipPath><linearGradient id="Degradado_sin_nombre_21" x1="316.28" y1="55.68" x2="316.6" y2="47.63" gradientTransform="translate(0 441.89) scale(1 -1)" gradientUnits="userSpaceOnUse"><stop offset=".06" stop-color="#f2edce"/><stop offset="1" stop-color="#fcf9de"/></linearGradient><clipPath id="clippath-30"><rect class="cls-1" y="0" width="338" height="442"/></clipPath><linearGradient id="Degradado_sin_nombre_22" x1="243.32" y1="107.07" x2="293.07" y2="45.16" gradientTransform="translate(0 441.89) scale(1 -1)" gradientUnits="userSpaceOnUse"><stop offset=".06" stop-color="#eae6ce"/><stop offset="1" stop-color="#fff"/></linearGradient><clipPath id="clippath-31"><rect class="cls-1" y="0" width="338" height="442"/></clipPath><linearGradient id="Degradado_sin_nombre_23" x1="227.08" y1="103.97" x2="187.07" y2="48.91" gradientTransform="translate(0 441.89) scale(1 -1)" gradientUnits="userSpaceOnUse"><stop offset=".06" stop-color="#eae6ce"/><stop offset="1" stop-color="#fff"/></linearGradient><clipPath id="clippath-32"><rect class="cls-1" y="0" width="338" height="442"/></clipPath><linearGradient id="Degradado_sin_nombre_24" x1="232.24" y1="97.17" x2="205.84" y2="85.1" gradientTransform="translate(0 441.89) scale(1 -1)" gradientUnits="userSpaceOnUse"><stop offset="0" stop-color="#757451"/><stop offset="1" stop-color="#878752"/></linearGradient><clipPath id="clippath-33"><rect class="cls-1" y="0" width="338" height="442"/></clipPath><linearGradient id="Degradado_sin_nombre_25" x1="272.17" y1="111.18" x2="268.84" y2="110.44" gradientTransform="translate(0 441.89) scale(1 -1)" gradientUnits="userSpaceOnUse"><stop offset="0" stop-color="#757451"/><stop offset="1" stop-color="#878752"/></linearGradient><clipPath id="clippath-34"><rect class="cls-1" y="0" width="338" height="442"/></clipPath><linearGradient id="Degradado_sin_nombre_26" x1="287.2" y1="112.63" x2="291.47" y2="101.64" gradientTransform="translate(0 441.89) scale(1 -1)" gradientUnits="userSpaceOnUse"><stop offset="0" stop-color="#9b2b26"/><stop offset="1" stop-color="#ab473c"/></linearGradient><clipPath id="clippath-35"><rect class="cls-1" y="0" width="338" height="442"/></clipPath><linearGradient id="Degradado_sin_nombre_27" x1="277.24" y1="94.8" x2="276.82" y2="115.45" gradientTransform="translate(0 441.89) scale(1 -1)" gradientUnits="userSpaceOnUse"><stop offset="0" stop-color="#cf6842"/><stop offset=".69" stop-color="#cc5632"/><stop offset=".83" stop-color="#ca5533"/><stop offset=".91" stop-color="#c25135"/><stop offset=".97" stop-color="#b44b39"/><stop offset="1" stop-color="#ab473c"/></linearGradient><clipPath id="clippath-36"><rect class="cls-1" y="0" width="338" height="442"/></clipPath><linearGradient id="Degradado_sin_nombre_28" x1="278.33" y1="118.38" x2="295.23" y2="111.56" gradientTransform="translate(0 441.89) scale(1 -1)" gradientUnits="userSpaceOnUse"><stop offset=".06" stop-color="#f2edce"/><stop offset="1" stop-color="#fcf9de"/></linearGradient><clipPath id="clippath-37"><rect class="cls-1" y="0" width="338" height="442"/></clipPath><linearGradient id="Degradado_sin_nombre_29" x1="284.8" y1="111.4" x2="311.61" y2="108.95" gradientTransform="translate(0 441.89) scale(1 -1)" gradientUnits="userSpaceOnUse"><stop offset=".06" stop-color="#e5dfbe"/><stop offset="1" stop-color="#f2edce"/></linearGradient><clipPath id="clippath-38"><rect class="cls-1" y="0" width="338" height="442"/></clipPath><linearGradient id="Degradado_sin_nombre_30" x1="283.75" y1="111.04" x2="277.32" y2="116.86" gradientTransform="translate(0 441.89) scale(1 -1)" gradientUnits="userSpaceOnUse"><stop offset="0" stop-color="#a8a274"/><stop offset=".75" stop-color="#878752"/><stop offset="1" stop-color="#a8a274"/></linearGradient><clipPath id="clippath-39"><rect class="cls-1" y="0" width="338" height="442"/></clipPath><linearGradient id="Degradado_sin_nombre_31" x1="270.37" y1="111.34" x2="276.34" y2="116.54" gradientTransform="translate(0 441.89) scale(1 -1)" gradientUnits="userSpaceOnUse"><stop offset="0" stop-color="#a8a274"/><stop offset=".75" stop-color="#878752"/><stop offset="1" stop-color="#a8a274"/></linearGradient><clipPath id="clippath-40"><rect class="cls-1" y="0" width="338" height="442"/></clipPath><linearGradient id="Degradado_sin_nombre_32" x1="246.1" y1="6.97" x2="235.11" y2="43.07" gradientTransform="translate(0 441.89) scale(1 -1)" gradientUnits="userSpaceOnUse"><stop offset="0" stop-color="#9b2b26"/><stop offset="1" stop-color="#ab473c"/></linearGradient><clipPath id="clippath-41"><rect class="cls-1" y="0" width="338" height="442"/></clipPath><linearGradient id="Degradado_sin_nombre_33" x1="254.65" y1="26.34" x2="257.79" y2="26.34" gradientTransform="translate(0 441.89) scale(1 -1)" gradientUnits="userSpaceOnUse"><stop offset="0" stop-color="#4e3f3f"/><stop offset=".44" stop-color="#4e3f3f" stop-opacity=".7"/><stop offset=".69" stop-color="#4e3f3f" stop-opacity="0"/></linearGradient><clipPath id="clippath-42"><rect class="cls-1" y="0" width="338" height="442"/></clipPath><linearGradient id="Degradado_sin_nombre_34" x1="225.31" y1="26.34" x2="229.17" y2="26.34" gradientTransform="translate(0 441.89) scale(1 -1)" gradientUnits="userSpaceOnUse"><stop offset="0" stop-color="#4e3f3f"/><stop offset=".44" stop-color="#4e3f3f" stop-opacity=".7"/><stop offset=".91" stop-color="#4e3f3f" stop-opacity="0"/></linearGradient><clipPath id="clippath-43"><rect class="cls-1" y="0" width="338" height="442"/></clipPath><linearGradient id="Degradado_sin_nombre_35" x1="240.13" y1="26.34" x2="242.67" y2="26.34" gradientTransform="translate(0 441.89) scale(1 -1)" gradientUnits="userSpaceOnUse"><stop offset="0" stop-color="#4e3f3f"/><stop offset=".44" stop-color="#4e3f3f" stop-opacity=".7"/><stop offset=".91" stop-color="#4e3f3f" stop-opacity="0"/></linearGradient><clipPath id="clippath-44"><rect class="cls-1" y="0" width="338" height="442"/></clipPath><linearGradient id="Degradado_sin_nombre_36" x1="240.29" y1="43.11" x2="240.32" y2="39.78" gradientTransform="translate(0 441.89) scale(1 -1)" gradientUnits="userSpaceOnUse"><stop offset="0" stop-color="#4e3f3f"/><stop offset=".44" stop-color="#4e3f3f" stop-opacity=".7"/><stop offset=".91" stop-color="#4e3f3f" stop-opacity="0"/></linearGradient><clipPath id="clippath-45"><rect class="cls-1" y="0" width="338" height="442"/></clipPath><linearGradient id="Degradado_sin_nombre_37" x1="240.19" y1="26.51" x2="240.22" y2="23.61" gradientTransform="translate(0 441.89) scale(1 -1)" gradientUnits="userSpaceOnUse"><stop offset="0" stop-color="#4e3f3f"/><stop offset=".44" stop-color="#4e3f3f" stop-opacity=".7"/><stop offset=".91" stop-color="#4e3f3f" stop-opacity="0"/></linearGradient><clipPath id="clippath-46"><rect class="cls-1" y="0" width="338" height="442"/></clipPath><linearGradient id="Degradado_sin_nombre_38" x1="233.61" y1="34.57" x2="235.32" y2="35.82" gradientTransform="translate(0 441.89) scale(1 -1)" gradientUnits="userSpaceOnUse"><stop offset="0" stop-color="#4e3f3f"/><stop offset=".44" stop-color="#4e3f3f" stop-opacity=".7"/><stop offset=".91" stop-color="#4e3f3f" stop-opacity="0"/></linearGradient><clipPath id="clippath-47"><rect class="cls-1" y="0" width="338" height="442"/></clipPath><linearGradient id="Degradado_sin_nombre_39" x1="247.73" y1="35.16" x2="249.3" y2="33.83" gradientTransform="translate(0 441.89) scale(1 -1)" gradientUnits="userSpaceOnUse"><stop offset="0" stop-color="#4e3f3f"/><stop offset=".44" stop-color="#4e3f3f" stop-opacity=".7"/><stop offset=".91" stop-color="#4e3f3f" stop-opacity="0"/></linearGradient><clipPath id="clippath-48"><rect class="cls-1" y="0" width="338" height="442"/></clipPath><linearGradient id="Degradado_sin_nombre_40" x1="232.37" y1="18.94" x2="236.07" y2="15.84" gradientTransform="translate(0 441.89) scale(1 -1)" gradientUnits="userSpaceOnUse"><stop offset="0" stop-color="#4e3f3f"/><stop offset=".44" stop-color="#4e3f3f" stop-opacity=".7"/><stop offset=".91" stop-color="#4e3f3f" stop-opacity="0"/></linearGradient><clipPath id="clippath-49"><rect class="cls-1" y="0" width="338" height="442"/></clipPath><linearGradient id="Degradado_sin_nombre_41" x1="246.71" y1="16.62" x2="248.42" y2="17.87" gradientTransform="translate(0 441.89) scale(1 -1)" gradientUnits="userSpaceOnUse"><stop offset="0" stop-color="#4e3f3f"/><stop offset=".44" stop-color="#4e3f3f" stop-opacity=".7"/><stop offset=".91" stop-color="#4e3f3f" stop-opacity="0"/></linearGradient><clipPath id="clippath-50"><rect class="cls-1" y="0" width="338" height="442"/></clipPath><linearGradient id="Degradado_sin_nombre_42" x1="251" y1="40.9" x2="228.7" y2="12.4" gradientTransform="translate(0 441.89) scale(1 -1)" gradientUnits="userSpaceOnUse"><stop offset=".12" stop-color="#f2edce"/><stop offset="1" stop-color="#fcf9de"/></linearGradient><clipPath id="clippath-51"><rect class="cls-1" y="0" width="338" height="442"/></clipPath><linearGradient id="Degradado_sin_nombre_43" x1="228.65" y1="40.54" x2="252.96" y2="11.16" gradientTransform="translate(0 441.89) scale(1 -1)" gradientUnits="userSpaceOnUse"><stop offset=".12" stop-color="#f2edce"/><stop offset="1" stop-color="#fcf9de"/></linearGradient><clipPath id="clippath-52"><rect class="cls-1" y="0" width="338" height="442"/></clipPath><linearGradient id="Degradado_sin_nombre_44" x1="239.93" y1="41.14" x2="240.09" y2="9.38" gradientTransform="translate(0 441.89) scale(1 -1)" gradientUnits="userSpaceOnUse"><stop offset=".12" stop-color="#f2edce"/><stop offset="1" stop-color="#fcf9de"/></linearGradient><clipPath id="clippath-53"><rect class="cls-1" y="0" width="338" height="442"/></clipPath><linearGradient id="Degradado_sin_nombre_45" x1="239.8" y1="9.26" x2="240.1" y2="44.09" gradientTransform="translate(0 441.89) scale(1 -1)" gradientUnits="userSpaceOnUse"><stop offset=".06" stop-color="#f2edce"/><stop offset="1" stop-color="#fcf9de"/></linearGradient><clipPath id="clippath-54"><rect class="cls-1" y="0" width="338" height="442"/></clipPath><linearGradient id="Degradado_sin_nombre_46" x1="224.35" y1="26.79" x2="255.65" y2="26.79" gradientTransform="translate(0 441.89) scale(1 -1)" gradientUnits="userSpaceOnUse"><stop offset=".12" stop-color="#f2edce"/><stop offset="1" stop-color="#fcf9de"/></linearGradient><clipPath id="clippath-55"><rect class="cls-1" y="0" width="338" height="442"/></clipPath><linearGradient id="Degradado_sin_nombre_47" x1="246.83" y1="57.93" x2="233.43" y2="77.86" gradientTransform="translate(0 441.89) scale(1 -1)" gradientUnits="userSpaceOnUse"><stop offset="0" stop-color="#9b2b26"/><stop offset="1" stop-color="#ab473c"/></linearGradient><clipPath id="clippath-56"><rect class="cls-1" y="0" width="338" height="442"/></clipPath><linearGradient id="Degradado_sin_nombre_48" x1="239.95" y1="77.15" x2="239.95" y2="73.92" gradientTransform="translate(0 441.89) scale(1 -1)" gradientUnits="userSpaceOnUse"><stop offset="0" stop-color="#4e3f3f"/><stop offset=".44" stop-color="#4e3f3f" stop-opacity=".7"/><stop offset=".91" stop-color="#4e3f3f" stop-opacity="0"/></linearGradient><clipPath id="clippath-57"><rect class="cls-1" y="0" width="338" height="442"/></clipPath><linearGradient id="Degradado_sin_nombre_49" x1="235.21" y1="72.34" x2="259.48" y2="50.61" gradientTransform="translate(0 441.89) scale(1 -1)" gradientUnits="userSpaceOnUse"><stop offset="0" stop-color="#4e3f3f"/><stop offset=".44" stop-color="#4e3f3f" stop-opacity=".7"/><stop offset=".91" stop-color="#4e3f3f" stop-opacity="0"/></linearGradient><clipPath id="clippath-58"><rect class="cls-1" y="0" width="338" height="442"/></clipPath><linearGradient id="Degradado_sin_nombre_50" x1="231.48" y1="67.81" x2="234.47" y2="67.75" gradientTransform="translate(0 441.89) scale(1 -1)" gradientUnits="userSpaceOnUse"><stop offset="0" stop-color="#4e3f3f"/><stop offset=".44" stop-color="#4e3f3f" stop-opacity=".7"/><stop offset=".91" stop-color="#4e3f3f" stop-opacity="0"/></linearGradient><clipPath id="clippath-59"><rect class="cls-1" y="0" width="338" height="442"/></clipPath><linearGradient id="Degradado_sin_nombre_51" x1="240.07" y1="67.98" x2="242" y2="66.26" gradientTransform="translate(0 441.89) scale(1 -1)" gradientUnits="userSpaceOnUse"><stop offset="0" stop-color="#4e3f3f"/><stop offset=".44" stop-color="#4e3f3f" stop-opacity=".7"/><stop offset=".91" stop-color="#4e3f3f" stop-opacity="0"/></linearGradient><clipPath id="clippath-60"><rect class="cls-1" y="0" width="338" height="442"/></clipPath><linearGradient id="Degradado_sin_nombre_52" x1="233.38" y1="67.29" x2="248.3" y2="67.29" gradientTransform="translate(0 441.89) scale(1 -1)" gradientUnits="userSpaceOnUse"><stop offset="0" stop-color="#4e3f3f"/><stop offset=".44" stop-color="#4e3f3f" stop-opacity=".7"/><stop offset=".91" stop-color="#4e3f3f" stop-opacity="0"/></linearGradient><clipPath id="clippath-61"><rect class="cls-1" y="0" width="338" height="442"/></clipPath><linearGradient id="Degradado_sin_nombre_53" x1="238.17" y1="73.85" x2="242.73" y2="59.48" gradientTransform="translate(0 441.89) scale(1 -1)" gradientUnits="userSpaceOnUse"><stop offset="0" stop-color="#f2edce"/><stop offset="1" stop-color="#fcf9de"/></linearGradient><clipPath id="clippath-62"><rect class="cls-1" y="0" width="338" height="442"/></clipPath><linearGradient id="Degradado_sin_nombre_54" x1="232.12" y1="78.09" x2="248.36" y2="57.62" gradientTransform="translate(0 441.89) scale(1 -1)" gradientUnits="userSpaceOnUse"><stop offset=".06" stop-color="#f2edce"/><stop offset="1" stop-color="#fcf9de"/></linearGradient><clipPath id="clippath-63"><rect class="cls-1" y="0" width="338" height="442"/></clipPath><linearGradient id="Degradado_sin_nombre_55" x1="324.95" y1="26.16" x2="311.51" y2="34.21" gradientTransform="translate(0 441.89) scale(1 -1)" gradientUnits="userSpaceOnUse"><stop offset="0" stop-color="#9b2b26"/><stop offset="1" stop-color="#ab473c"/></linearGradient><clipPath id="clippath-64"><rect class="cls-1" y="0" width="338" height="442"/></clipPath><linearGradient id="Degradado_sin_nombre_56" x1="309.8" y1="37.11" x2="330.28" y2="21.74" gradientTransform="translate(0 441.89) scale(1 -1)" gradientUnits="userSpaceOnUse"><stop offset="0" stop-color="#4e3f3f"/><stop offset=".44" stop-color="#4e3f3f" stop-opacity=".7"/><stop offset=".91" stop-color="#4e3f3f" stop-opacity="0"/></linearGradient><clipPath id="clippath-65"><rect class="cls-1" y="0" width="338" height="442"/></clipPath><linearGradient id="Degradado_sin_nombre_57" x1="322.02" y1="21.27" x2="308.58" y2="29.32" gradientTransform="translate(0 441.89) scale(1 -1)" gradientUnits="userSpaceOnUse"><stop offset="0" stop-color="#9b2b26"/><stop offset="1" stop-color="#ab473c"/></linearGradient><clipPath id="clippath-66"><rect class="cls-1" y="0" width="338" height="442"/></clipPath><linearGradient id="Degradado_sin_nombre_58" x1="302.98" y1="34.01" x2="345.04" y2="14.25" gradientTransform="translate(0 441.89) scale(1 -1)" gradientUnits="userSpaceOnUse"><stop offset="0" stop-color="#4e3f3f"/><stop offset=".44" stop-color="#4e3f3f" stop-opacity=".7"/><stop offset=".91" stop-color="#4e3f3f" stop-opacity="0"/></linearGradient><clipPath id="clippath-67"><rect class="cls-1" y="0" width="338" height="442"/></clipPath><linearGradient id="Degradado_sin_nombre_59" x1="300.15" y1="35.74" x2="319.39" y2="22.62" gradientTransform="translate(0 441.89) scale(1 -1)" gradientUnits="userSpaceOnUse"><stop offset="0" stop-color="#4e3f3f"/><stop offset=".44" stop-color="#4e3f3f" stop-opacity=".7"/><stop offset=".91" stop-color="#4e3f3f" stop-opacity="0"/></linearGradient><clipPath id="clippath-68"><rect class="cls-1" y="0" width="338" height="442"/></clipPath><linearGradient id="Degradado_sin_nombre_60" x1="328.3" y1="23.8" x2="303.3" y2="32.69" gradientTransform="translate(0 441.89) scale(1 -1)" gradientUnits="userSpaceOnUse"><stop offset=".06" stop-color="#e5dfbe"/><stop offset="1" stop-color="#f2edce"/></linearGradient><clipPath id="clippath-69"><rect class="cls-1" y="0" width="338" height="442"/></clipPath><linearGradient id="Degradado_sin_nombre_61" x1="311.85" y1="49.28" x2="311.97" y2="41.98" gradientTransform="translate(0 441.89) scale(1 -1)" gradientUnits="userSpaceOnUse"><stop offset="0" stop-color="#4e3f3f"/><stop offset=".44" stop-color="#4e3f3f" stop-opacity=".7"/><stop offset=".91" stop-color="#4e3f3f" stop-opacity="0"/></linearGradient><clipPath id="clippath-70"><rect class="cls-1" y="0" width="338" height="442"/></clipPath><linearGradient id="Degradado_sin_nombre_62" x1="278.2" y1="97.79" x2="250.27" y2="66.24" gradientTransform="translate(0 441.89) scale(1 -1)" gradientUnits="userSpaceOnUse"><stop offset="0" stop-color="#4e3f3f"/><stop offset=".44" stop-color="#4e3f3f" stop-opacity=".7"/><stop offset=".91" stop-color="#4e3f3f" stop-opacity="0"/></linearGradient><clipPath id="clippath-71"><rect class="cls-1" y="0" width="338" height="442"/></clipPath><linearGradient id="Degradado_sin_nombre_63" x1="326.3" y1="643" x2="326.3" y2="528.05" gradientTransform="translate(0 -397.89)" gradientUnits="userSpaceOnUse"><stop offset="0" stop-color="#f8f4c7" stop-opacity=".3"/><stop offset="1" stop-color="#f8f4c7" stop-opacity="0"/></linearGradient><clipPath id="clippath-72"><rect class="cls-1" y="0" width="338" height="442"/></clipPath><linearGradient id="Degradado_sin_nombre_64" x1="3364.65" y1="515.37" x2="3364.65" y2="456.97" gradientTransform="translate(3449.45 -397.89) rotate(-180) scale(1 -1)" gradientUnits="userSpaceOnUse"><stop offset="0" stop-color="#f8f4c7" stop-opacity=".3"/><stop offset="1" stop-color="#f8f4c7" stop-opacity="0"/></linearGradient><clipPath id="clippath-73"><rect class="cls-1" y="0" width="338" height="442"/></clipPath><linearGradient id="Degradado_sin_nombre_65" x1="51.23" y1="598.17" x2="51.23" y2="513.95" gradientTransform="translate(0 -397.89)" gradientUnits="userSpaceOnUse"><stop offset="0" stop-color="#f8f4c7" stop-opacity=".3"/><stop offset="1" stop-color="#f8f4c7" stop-opacity="0"/></linearGradient><linearGradient id="Degradado_sin_nombre_111" x1="169" y1="226.89" x2="169" y2="-.11" gradientTransform="translate(0 441.89) scale(1 -1)" gradientUnits="userSpaceOnUse"><stop offset="0" stop-color="#000" stop-opacity="0"/><stop offset="1" stop-color="#000" stop-opacity=".38"/></linearGradient></defs><g id="Laag_3"><g><g class="cls-21"><rect class="cls-137" x="-259.9" y="-.8" width="618.3" height="442.8"/></g><g class="cls-28"><polygon class="cls-20" points="116.1 1.7 30.8 443.3 -32.8 443.3 81 1.7 116.1 1.7"/></g><g class="cls-31"><polygon class="cls-19" points="22 1.7 -90.3 443.3 -109.6 443.3 11.3 1.7 22 1.7"/></g><g class="cls-30"><path class="cls-140" d="M357.2,2.8c-.6-1.4-1.4-2.6-2.3-3.6h-17.4c-.2,.2-.4,.5-.6,.7,0-.2,.1-.5,.1-.7H137.2c-.1,1.5,.2,3.1,.8,4.6-2-1.9-6-.1-5.9,2.7-2-6.6-11.3-8.6-17.2-5-5.9,3.6-8.5,10.9-8.8,17.7-2.1-1.9-5.2-1.8-7.1,.3-1.9,2.1-1.8,5.2,.3,7.1,.1,.1,.2,.2,.3,.3-3.9-1.1-8-2.2-11.8-1.2-3.9,1-7.3,5.1-6.1,8.9-3.6-2-8.9,1.6-8.3,5.7-4.6-4.7-14-2.8-16.3,3.4-3.9-.6-7.8-.1-11.4,1.3,7.5,2.7,15.5,3.1,23.2,1.1,2.3,3.6,8.3,3.8,11,.4,4,4.8,13.1,3.3,15.3-2.6,9.5,8,26.5,3.2,30.4-8.5,4.4,5.8,14.3,6.1,19,.5,.6,5,5.1,8.5,10.1,7.9,3.5-.4,6.4-2.8,7.5-6.1,10.5,11.9,32.1,11.2,41.7-1.4,6.3,9.5,19.1,12,28.6,5.7,2.6-1.7,4.7-4,6.3-6.7,3.6,5.2,11.7,6.4,16.8,2.6,6.6,6.7,19.3,5.8,24.9-1.8,2.8,8.9,12.3,13.8,21.2,10.9,4.9-1.6,8.9-5.4,10.7-10.2,1.9,3.9,7.9,4.8,10.9,1.7,4.8,8.2,18.3,9.1,24.2,1.6,2.9,3.4,6.8,5.8,11.1,7V.4c-1.2,.7-1.8,1.5-1.4,2.4Z"/></g><g class="cls-29"><path class="cls-141" d="M192.9,1.7c-2.6,3.7-4.7,7.6-5.8,11.1-3.7-4.8-8.3-9.5-14.3-10.4-6-.9-12.9,4.2-11.7,10.1-4.3-2.1-8.8-4.2-13.5-3.8-5.7,.4-8.3,4.5-10.2,9.2-2.5-3.5-7.1-4.9-11.1-3.3-4,1.7-6.6,5.5-6.9,9.8-1.1-3.1-5.2-4.4-8.3-3.1-3.1,1.3-5,4.5-5.6,7.8-2.7-2-6.1-2.7-9-.6-1,.9-2.1,1.7-3.3,2.4-1.5,.6-3.1,.8-4.7,.7l-9.2-.1c-.7,1.3,.8,2.6,2.1,3.2,6.9,2.9,14.6,2.9,21.5,0,4.2,3.9,12.1,2.4,14.7-2.7,4.1,2,8.9,1.7,12.7-.8,6.7,10.1,22.1,15.5,31.3,4.8,1.7,7.4,10.8,11.4,18,9.2s12.2-9.2,13.8-16.7c-.9,4.4,13.9,9.3,16.7,9.8,8.1,1.3,14.1-1.9,21.3-4.9,.2,3.2,2.9,5.6,6.1,5.4,1.8-.1,3.5-1.1,4.5-2.6,2.7,3.6,6.8,5.8,11.3,6.2,4.4,.3,8.9-.3,13-1.9,7.1-2.5,15.1-6.8,20.6-12,3.9,10.1,15.2,15.1,25.3,11.2,5.1-1.9,9.1-5.9,11.1-11,.3,8.3,7.2,14.7,15.5,14.4,5.6-.2,10.6-3.5,13-8.5,2.9,4.3,7.1,7.5,11.9,9.3V1.7H192.9Z"/></g><g class="cls-35"><path class="cls-135" d="M258.9,399.4c-16.5-6.6-58-8.8-99.1-7.7-58.5,1.6-121.6,23.2-229.5,50.6H258.9v-42.9Z"/></g><g class="cls-34"><path class="cls-24" d="M281,404.8c-4.5-1.8-32.9-8.7-40.5-9.9,36.9,12.9-7.6,51.6-106,44.3-93.3-6.9-80.2-23.3-70.6-32-18.8,3.7-30.7,8.5-49.4,12.8l-84.2,22.2,328.6-.1,99.5-.1-77.4-37.2Z"/></g><g class="cls-32"><path class="cls-136" d="M59.2,399.4s-3.5,4.7-4.9,14.4,4.9,10.7,4.9,10.7c0,0,5.6-1.7,4.6-10.7-1.1-9.1-4.6-14.4-4.6-14.4Z"/></g><g class="cls-33"><polygon class="cls-25" points="58.9 413.2 58.3 430.2 59.9 430.2 58.9 413.2"/></g><g class="cls-36"><path class="cls-26" d="M106,427.2c.9-1.2,1.4-2.6,1.4-4.1,.2-3.6,.7,.3,0-3.3-.1-1.3-.8-2.6-4-3.1,.1-2-2.9-2.9-4.1-1.5,.5-2.8-4.6-3-4.4-1.5-.9-.7-2.2-.4-2.9,.5-.2,.2-.3,.5-.3,.8-.6-.7-1.3-1.3-2.1-1.7-.8-.4-1.8-.3-2.6,.3-.7,.6-.8,1.7-.2,2.4h0c-.8-.2-1.7,0-2.3,.5-.6,.6-.8,1.5-.3,2.2-.8-.8-2-.9-2.9-.1-.7,.6-.9,1.7-.4,2.5-.6-1-2.2-.4-2.6,.5-.9-1.4-2.6-2-4.3-2.1-.9-.1-1.8,0-2.6,.4-1.6,.9-2,3-2.3,4.8-.4-.5-.9-.9-1.4-1.2-1.3-.6-2.7,.4-3.3,1.5-1.3-1.6-3.2-2.6-5.2-2.8-2-.1-4.2,1.2-4.6,3.1-.8-.4-1.6-.6-2.5-.6s-1.7,.6-2,1.4c-1.7-.8-3.8-.2-4.6,1.6-.6,1.1,.2,2.3,.2,2.7l60.3-3.2Z"/></g><g class="cls-91"><path class="cls-138" d="M69.7,386.6s-4.9,6.6-7,20.4c-2.1,13.7,7,15.2,7,15.2,0,0,8-2.4,6.5-15.2-1.6-12.9-6.5-20.4-6.5-20.4Z"/></g><g class="cls-96"><polygon class="cls-25" points="69.3 406.1 68.4 430.2 70.6 430.2 69.3 406.1"/></g><g class="cls-90"><polygon class="cls-20" points="358.1 1.7 259.1 443.3 130.8 443.3 249.9 1.7 358.1 1.7"/></g><g class="cls-89"><polygon class="cls-19" points="335.1 1.7 237.3 443.3 198.4 443.3 314 1.7 335.1 1.7"/></g><g class="cls-88"><path class="cls-139" d="M358.4,421H104c-9.8,0-17.7,7.9-17.7,17.7v3.3H358.5v-21h-.1Z"/></g><g class="cls-92"><path class="cls-117" d="M176.7,406.1c-.6-3.8-2.7-7-7.1-6.6-2.2,.3-4.3,1.4-5.9,3l-.1,.1c-.4-1-1.6-2.4-4.7-2.7-4.8-.5-5,3.6-5,3.6,0,0-.7-2.1-4.8-2.5-2.4-.3-3.7,.5-4.5,1.2-1.1-1.8-3-3-5.7-2.7-2.2,.3-4.2,.9-5.8,2.5-1.4,1.3-1.5,2-2,3.7-1.1-.8-2.7-.6-3.5,.5-.2,.3-.6,1.3-.7,1.7-.7-.9-1-.9-2-1.4s-2,0-2.9,.6c-.9,.7-1.1,2-.4,2.9h0c-1-.3-2-.1-2.9,.5-.8,.7-1,1.8-.4,2.7-.9-1-2.4-1.1-3.5-.3-.9,.8-1.1,2-.5,3.1-.7-1.2-2.6-.6-3.2,.5-1-1.7-3.1-2.5-5.2-2.7-1.1-.2-2.2,0-3.2,.4-2,1-2.6,3.5-2.9,5.7-.4-.6-1-1.1-1.7-1.5-1.6-.8-3.2,.4-4.1,1.7-1.5-2-3.8-3.3-6.3-3.6-2.4-.2-5.1,1.3-5.7,3.7-.9-.5-2-.8-3-.8-1.1,0-2.1,.6-2.5,1.6-2-1.1-4.6-.3-5.7,1.7-.2,.4-.4,.9-.5,1.4l74.1,.1h30.6c1.2-1.4,1.8-3.1,1.9-5,.7-4.2,.5-8.7-.2-13.1Z"/></g><g class="cls-94"><path class="cls-128" d="M207.7,442c47.8-4.3,97-7.2,150.6-9.3v-11.7H98.8c-57,5-102.9,21-102.9,21H207.7Z"/></g><g class="cls-93"><path class="cls-22" d="M194.5,442c22.1-8.5,55-15.8,82-20.3l16-.7c-12.1,2.8-33.1,10.2-52.8,18.4-10.8,.8-21.5,1.7-32.1,2.7-5.4-.1-6.1-.1-13.1-.1Z"/></g><g class="cls-97"><path class="cls-23" d="M239.7,439.4l-2.8,2.6h-29.3s10.7-.9,15.4-1.3c4.8-.4,14.8-1.2,16.7-1.3Z"/></g><g class="cls-95"><path class="cls-129" d="M208.3,402.8c-.6-3.8-2.7-7-7.1-6.6-2.2,.3-4.3,1.4-5.9,3l-.1,.1c-.4-1-1.6-2.4-4.7-2.7-4.8-.5-5,3.6-5,3.6,0,0-.7-2.1-4.8-2.5-2.4-.3-3.7,.5-4.5,1.2-1.1-1.8-3-3-5.7-2.7-2.2,.3-4.2,.9-5.8,2.5-1.4,1.3-1.5,2-2,3.7-1.1-.8-2.7-.6-3.5,.5-.2,.3-.6,1.3-.7,1.7-.7-.9-1-.9-2-1.4s-2,0-2.9,.6c-.9,.7-1.1,2-.4,2.9h0c-1-.3-2-.1-2.9,.5-.8,.7-1,1.8-.4,2.7-.9-1-2.4-1.1-3.5-.3-.9,.8-1.1,2-.5,3.1-.7-1.2-2.6-.6-3.2,.5-1-1.7-3.1-2.5-5.2-2.7-1.1-.2-2.2,0-3.2,.4-2,1-2.6,3.5-2.9,5.7-.4-.6-1-1.1-1.7-1.5-1.6-.8-3.2,.4-4.1,1.7-1.5-2-3.8-3.3-6.3-3.6-2.4-.2-5.1,1.3-5.7,3.7-.9-.5-2-.8-3-.8-1.1,0-2.1,.6-2.5,1.6-2-1.1-4.6-.3-5.7,1.7-.2,.4-.4,.9-.5,1.4l74.1,.1h30.6c1.2-1.4,1.8-3.1,1.9-5,.7-4.2,.5-8.7-.2-13.1Z"/></g><g class="cls-40"><polygon class="cls-131" points="190.3 394.8 204.2 394.8 204.2 386.3 242.9 339 238.8 336.2 202.9 359.4 195.9 386.3 190.3 394.8"/></g><g class="cls-39"><polygon class="cls-133" points="190.3 394.8 197.4 387.1 204.2 387.1 204.2 394.8 190.3 394.8"/></g><g class="cls-41"><polygon class="cls-132" points="281.6 386.3 275.1 359.4 242.1 336.7 206 361.9 200 386.3 200 432.7 281.6 432.7 281.6 386.3"/></g><g class="cls-54"><rect class="cls-130" x="279.3" y="386.3" width="65.2" height="46.5"/></g><g class="cls-52"><polygon class="cls-118" points="345.4 386.3 338.8 359.4 272.7 359.4 279.3 386.3 345.4 386.3"/></g><g class="cls-53"><polygon class="cls-119" points="338.8 359.4 305 336.2 238.8 336.2 272.7 359.4 338.8 359.4"/></g><g class="cls-55"><polygon class="cls-120" points="287.5 394.8 353.6 394.8 345.4 386.3 279.3 386.3 287.5 394.8"/></g><g class="cls-63"><polygon class="cls-121" points="234.8 336.2 269.7 360.3 276.3 387.1 283.4 394.8 287.5 394.8 279.3 386.3 272.7 359.4 238.8 336.2 234.8 336.2"/></g><g class="cls-65"><polygon class="cls-122" points="238.8 336.2 204 360.3 197.4 387.1 190.3 394.8 186.2 394.8 194.4 386.3 201 359.4 234.8 336.2 238.8 336.2"/></g><g class="cls-62"><polygon class="cls-123" points="206 361.9 204 360.3 236.7 337.5 238.9 338.9 206 361.9"/></g><g class="cls-61"><polygon class="cls-124" points="269.7 331.6 271.3 331.6 271.3 330.2 269.7 331.6"/></g><g class="cls-56"><rect class="cls-125" x="282.6" y="329.3" width="13.7" height="11.5"/></g><g class="cls-57"><polygon class="cls-126" points="282.6 340.8 275.3 336.2 271.3 336.2 271.3 329.3 276.9 324.4 282.6 329.3 282.6 340.8"/></g><g class="cls-58"><polygon class="cls-127" points="299.7 330.7 292.5 324.4 276.9 324.4 284.2 330.7 299.7 330.7"/></g><g class="cls-59"><rect class="cls-134" x="284.2" y="330.7" width="15.6" height=".9"/></g><g class="cls-64"><polygon class="cls-113" points="284.2 331.6 276.9 325.2 276.9 324.4 284.2 330.7 284.2 331.6"/></g><g class="cls-60"><polygon class="cls-115" points="269.7 331.6 276.9 325.2 276.9 324.4 269.7 330.7 269.7 331.6"/></g><g class="cls-44"><rect class="cls-114" x="224.4" y="397.4" width="31.3" height="35.3"/></g><g class="cls-46"><rect class="cls-116" x="254.6" y="398.4" width="2" height="34.3"/></g><g class="cls-45"><rect class="cls-5" x="225.4" y="398.4" width="2" height="34.3"/></g><g class="cls-48"><rect class="cls-4" x="240" y="398.4" width="2" height="34.3"/></g><g class="cls-42"><rect class="cls-6" x="225.4" y="398.4" width="29.8" height="2"/></g><g class="cls-43"><rect class="cls-7" x="226.1" y="415.1" width="28.2" height="2"/></g><g class="cls-49"><polygon class="cls-8" points="227.4 398.4 242 416.1 240 416.1 225.4 398.4 227.4 398.4"/></g><g class="cls-47"><polygon class="cls-18" points="254.6 398.4 240 416.1 242 416.1 256.7 398.4 254.6 398.4"/></g><g class="cls-50"><polygon class="cls-15" points="228.2 432.7 242 416.1 240 416.1 226.2 432.7 228.2 432.7"/></g><g class="cls-51"><polygon class="cls-98" points="253.8 432.7 240 416.1 242 416.1 255.8 432.7 253.8 432.7"/></g><g class="cls-68"><polygon class="cls-106" points="253.6 397.4 239 415.1 224.4 432.7 226.4 432.7 241 415.1 255.6 397.4 253.6 397.4"/></g><g class="cls-69"><polygon class="cls-105" points="241 415.1 226.4 397.4 224.4 397.4 239 415.1 253.6 432.7 255.6 432.7 241 415.1"/></g><g class="cls-70"><rect class="cls-104" x="239" y="397.4" width="2" height="35.3"/></g><g class="cls-66"><polygon class="cls-103" points="253.6 397.4 253.6 397.4 226.4 397.4 226.4 397.4 224.4 397.4 224.4 397.4 224.3 397.4 224.3 399.4 224.4 399.4 224.4 432.7 226.4 432.7 226.4 399.4 253.6 399.4 253.6 432.7 255.6 432.7 255.6 397.4 253.6 397.4"/></g><g class="cls-67"><rect class="cls-108" x="224.4" y="414.1" width="31.3" height="2"/></g><g class="cls-71"><rect class="cls-107" x="230.6" y="363.5" width="18.8" height="20.6"/></g><g class="cls-72"><rect class="cls-17" x="233.4" y="364.3" width="13.1" height="1.9"/></g><g class="cls-73"><polygon class="cls-16" points="250.2 364.3 248.3 364.3 248.3 383 231.5 383 231.5 384.9 250.2 384.9 250.2 384.9 250.2 384.9 250.2 364.3"/></g><g class="cls-74"><rect class="cls-9" x="231.5" y="364.3" width="1.9" height="19.6"/></g><g class="cls-81"><polygon class="cls-10" points="248.3 364.3 233.4 383 233.4 384.9 248.3 366.2 248.3 364.3"/></g><g class="cls-37"><polygon class="cls-11" points="233.4 364.3 248.3 383 248.3 384.9 233.4 366.2 233.4 364.3"/></g><g class="cls-75"><polygon class="cls-101" points="247.5 363.5 240 372.9 232.5 363.5 232.5 365.5 239.2 373.8 232.5 382.2 232.5 384.1 240 374.8 247.5 384.1 247.5 382.2 240.8 373.8 247.5 365.5 247.5 363.5"/></g><g class="cls-77"><path class="cls-102" d="M247.5,363.5h-16.8v20.6h18.7v-20.6h-1.9Zm-15,18.7v-16.7h14.9v16.7h-14.9Z"/></g><g class="cls-83"><rect class="cls-99" x="315.3" y="407.2" width="12.7" height="13.1"/></g><g class="cls-76"><polygon class="cls-13" points="327.1 407.8 316 407.8 316 408.8 316 408.8 316 419.4 317.5 419.4 317.5 409.4 327.1 409.4 327.1 407.8"/></g><g class="cls-82"><rect class="cls-100" x="304.2" y="407.2" width="12.7" height="13.1"/></g><g class="cls-84"><polygon class="cls-12" points="327.2 407.8 327.2 419.4 316 419.4 316 419.4 304.8 419.4 304.8 420.9 316.9 420.9 316.9 420.9 327.2 420.9 327.2 420.9 328.7 420.9 328.7 407.8 327.2 407.8"/></g><g class="cls-79"><polygon class="cls-14" points="316.9 407.8 306.4 407.8 306.4 407.8 304.8 407.8 304.8 407.8 304.8 409.4 304.8 419.1 306.4 419.1 306.4 409.4 316.9 409.4 316.9 407.8"/></g><g class="cls-78"><path class="cls-109" d="M328,407.2h-23.8v13.1h23.8v-13.1Zm-11.1,1.5h9.7v10h-9.7v-10h0Zm-11.2,0h9.6v10h-9.6v-10Z"/></g><g class="cls-38"><polygon class="cls-2" points="344.4 394.8 344.4 398.4 283.3 398.9 280.9 394.1 279.3 390.3 283.4 394.8 344.4 394.8"/></g><g class="cls-85"><polygon class="cls-3" points="279.3 390.3 279.3 393 274.6 388 268.3 360.8 237.7 339.7 238.9 338.9 269.7 360.3 276.3 387.1 279.3 390.3"/></g><g class="cls-87"><path class="cls-110" d="M488.7,202.9c-1.1,.7-1.6,1.5-1.2,2.5-2.6-6.3-9.8-9.4-16.1-6.8-2,.8-3.7,2.1-5,3.8,.8-5.4-3.3-11.2-8.7-12.1-5.4-.9-11.2,3.1-12.3,8.5-.2-5-7.7-7.8-11.1-4.1-.1-7.4-6.2-13.4-13.6-13.4-3.2,0-6.3,1.2-8.8,3.3,1.3-7-4.5-13.8-11.3-15.8-6.3-1.9-12.6,.5-18.3,3.4-.8-7.6-7.7-13.2-14.9-15.9-10.8-4.2-23.6-3.8-33.6,2s-16.9,17.1-16.4,28.7c-7.4-3.9-17.9,.4-20.3,8.5-1-6.8-7.8-12.3-14.6-11.9-6.9,.4-12.9,6.7-13.1,13.6-1.7-2.9-6.3-2.8-8.6-.3-2.2,2.5-2.3,6.3-1,9.4-2.1-1.9-6.2-.1-6.1,2.8-2.1-6.8-11.8-8.9-17.8-5.2s-8.8,11.3-9.1,18.4c-2.1-2-5.4-1.8-7.4,.3s-1.8,5.4,.3,7.4c.1,.1,.2,.2,.4,.3-4-1.2-8.3-2.3-12.3-1.3s-7.6,5.3-6.3,9.3c-3.8-2.1-9.2,1.6-8.7,5.9-4.8-4.9-14.5-2.9-17,3.5-4-.6-8.1-.1-11.9,1.4,7.7,2.8,16.2,3.2,24.1,1.2,2.4,3.7,8.7,4,11.4,.5,4.2,5,13.6,3.4,15.9-2.7,9.9,8.3,27.5,3.4,31.6-8.9,4.5,6.1,14.9,6.3,19.7,.5,.6,5.1,5.3,8.8,10.4,8.2,3.6-.4,6.6-2.9,7.8-6.3,10.9,12.4,33.3,11.7,43.3-1.5,6.6,9.8,19.8,12.5,29.7,6,2.7-1.8,4.9-4.2,6.6-6.9,3.8,5.4,12.2,6.7,17.4,2.7,6.9,7,20,6.1,25.8-1.8,3,9.2,12.8,14.3,22,11.3,5.1-1.6,9.2-5.6,11.1-10.6,2,4,8.2,5,11.4,1.8,5,8.5,19,9.5,25.1,1.7,3,3.5,7.1,6,11.5,7.2v-48.6h0Z"/></g><g class="cls-86"><path class="cls-112" d="M157,118.8c-1.4-3.3-7.1-4.3-9.9-1.8,.3-2.2-2.8-4.1-5-3,.7-2-1.3-4.2-3.7-4.7s-4.8,.1-7.2,.6c1.4-.9,1.6-2.5,.6-3.7s-2.9-1.4-4.3-.6c-.1,.1-.2,.1-.3,.2-.2-3.6-1.8-7.5-5.3-9.4s-9.2-.8-10.4,2.6c0-1.4-2.4-2.4-3.6-1.4,.7-1.6,.7-3.5-.6-4.8-1.3-1.3-4-1.3-5,.2-.1-3.9-3.8-7-8.3-6.9-4,.1-7.3,2.6-7.9,6.1-1.4-4.1-7.5-6.3-11.9-4.3,.3-5.9-3.7-11.7-9.6-14.6s-13.3-3.1-19.6-1c-4.2,1.3-8.2,4.2-8.7,8.1-3.3-1.5-7-2.7-10.7-1.7-3.9,1-7.3,4.5-6.6,8-2.3-1.7-5.6-2.1-8.4-1.1-2.3,.9-3.9,2.7-4.5,4.9v29c1.7,1,3.8,1.6,5.8,1.5,4.3-.1,8.1-2.6,9.5-6.2,3.4,4,11.1,4.5,15.1,.9,3.1,2,8,1.3,10.2-1.4,3.5,5.2,11.2,6.9,17.1,3.8,1.6-.8,3-2,4-3.3,5.9,6.7,18.9,7,25.2,.7,1,2.5,4.1,3.8,6.9,3,2-.6,3.4-2.1,3.7-3.9,2.8,2.9,8.9,2.8,11.5-.3,2.4,6.2,12.7,8.7,18.4,4.5,1.4,3.1,6.8,3.9,9.3,1.3,1.6,1.8,5.2,1.7,6.6-.2,4.7,1,9.6,.8,14.1-.6-1.8-.5-4.2-.8-6.5-.5Z"/></g><g class="cls-80"><path class="cls-111" d="M109.7,193.9c-1.2,0-2.4,.4-3.5,1-.4-1.2-1.6-1.9-2.8-1.5-.1,0-.1,.1-.2,.1-.3,.2-.7,.4-1.1,.5-.9,.2-1.7-.6-2.2-1.3-1.6-2.1-3.8-3.6-6.3-4.4-2.5-.7-5.4-.1-7.2,1.8,.8-.9-4.5-3.8-5.1-4-2.4-.7-4.7-.6-6.5,1.2-1.3-7.1-8.1-11.8-15.3-10.5-3.2,.6-6,2.3-8,4.8,0-3.4-4.8-5.5-7.3-3.4,.4-4-5.8-6.7-8.4-3.6,1.9-5.9-.7-12.3-6.1-15.3-5.6-2.7-12.3-1-16,3.9-.1-4-.2-8.4-2.2-11.9s-6.7-5.9-10.3-3.9c1.9-3.3-1.8-8.1-5.5-7.2,2.4-.7,1-7.3,.5-8.6-1.1-2.6-3-4.7-5.5-5.9v76c.6,.5,1.3,.9,2,1.2,1.5,.6,3.1,.9,4.7,.8,4-.1,7.6-2,10-5.2,.5,2.7,3.8,4.1,6.4,3.6s4.8-2.5,6.8-4.4c9.3,8.2,23.4,7.3,31.6-2,.3-.3,.5-.6,.7-.9,1.4,3,5.3,4.3,8.6,3.8s6.2-2.4,9-4.3c1.3,3.6,6.8,4.7,9.4,1.8,4,3,9.5,2.7,13.1-.7,1.9,1.9,4.9,2.1,7,.4,.7,1.3,2.7,1.3,4.2,1.1l6.3-.9c.3,0,.6-.1,.9-.3,1.1-.6-.5-1.8-1.7-1.8Z"/></g></g><rect class="cls-27" y="215" width="338" height="227"/></g></svg>