<svg width="136" height="62" viewBox="0 0 136 62" fill="none" xmlns="http://www.w3.org/2000/svg">
    <g opacity="0.5">
        <path d="M101.69 60.9398L101.546 60.4536L101.464 60.1455C101.45 60.1044 101.443 60.0702 101.43 60.0291C100.786 57.5026 100.676 54.8529 100.574 52.2853C100.457 49.3959 100.341 46.4038 99.4645 43.487L99.4371 43.2748C99.3138 42.8297 99.1769 42.3847 99.0263 41.9396C98.8893 41.5014 98.7387 41.0701 98.5744 40.6387C94.9113 30.8134 86.5649 22.3644 77.0409 19.0094L76.8903 14.1618L70.8376 17.7427C70.4336 17.6811 70.0639 17.6605 69.6873 17.6537C69.5504 16.9964 69.345 16.0447 69.1601 15.2367C69.03 14.6411 68.9205 14.1344 68.8726 13.9016L68.763 13.3812L68.2358 13.3538C63.6484 13.1074 59.999 17.3319 59.2253 19.0915C49.4548 22.4328 41.1837 30.7039 37.459 40.6661C37.2947 41.0975 37.144 41.5288 37.0071 41.967C36.8428 42.4395 36.699 42.9187 36.5621 43.4049C35.7541 46.2806 35.6514 49.2316 35.5487 52.0936C35.4597 54.7159 35.3638 57.4273 34.6997 60.0291C34.6929 60.0702 34.6792 60.1044 34.6723 60.1455C34.6449 60.2551 34.6107 60.3578 34.5833 60.4673C34.5217 60.7001 34.4601 60.9329 34.3984 61.1726H35.8157C35.8431 61.0562 35.8774 60.9466 35.9048 60.8302C35.9664 60.6043 36.028 60.3715 36.0828 60.1455C36.0965 60.1044 36.1033 60.0634 36.1102 60.0291C36.7401 57.3999 36.8291 54.7296 36.9181 52.1415C37.0139 49.3617 37.1167 46.4928 37.8835 43.7746C40.8824 33.0866 49.7629 23.6516 59.9784 20.2829L60.355 20.1186L60.4372 19.742C60.5741 19.1463 63.4977 14.8396 67.647 14.7164C67.6949 14.9492 67.7565 15.2299 67.825 15.5312C68.0509 16.5582 68.3659 17.9618 68.448 18.4479L68.5439 19.0162H69.1259C69.7695 19.0162 70.2419 19.0162 70.8376 19.1326L71.0909 19.1874L75.5894 16.5171L75.7058 20.0022L76.1577 20.1528C86.2705 23.5283 95.0756 32.9223 98.0951 43.5555L98.1225 43.7883C98.9783 46.5681 99.0947 49.5055 99.2111 52.3401C99.307 54.8666 99.4165 57.4684 100.026 60.0291C100.033 60.0702 100.04 60.1044 100.053 60.1455C100.108 60.3715 100.17 60.6043 100.231 60.8302L100.334 61.1726H101.758C101.738 61.0972 101.71 61.0151 101.69 60.9398Z" fill="#4D4040"/>
        <path d="M38.2329 41.0839C38.1781 41.0291 38.0617 40.9607 37.9179 40.9538L37.8837 41.0154V42.3232C37.6509 42.3232 37.4866 42.2342 37.3839 42.152L37.2949 42.1109C37.199 42.063 37.1032 42.0082 37.0073 41.9671C35.3504 41.1661 33.5565 41.1387 31.6736 41.885C29.4894 42.7135 27.8188 44.7607 27.0862 47.5063C26.0865 51.2036 26.9424 55.3254 29.3182 58.2559C29.8455 58.9269 30.3864 59.5157 30.9478 60.0293C30.9957 60.0703 31.0368 60.1114 31.0779 60.1457C31.5092 60.5359 31.9474 60.8714 32.3993 61.1727H30.1809C29.8249 60.8577 29.4689 60.5154 29.1402 60.1457C29.0991 60.1114 29.0649 60.0703 29.0307 60.0293C28.7636 59.7417 28.5035 59.4336 28.2501 59.1118C25.6072 55.8526 24.6555 51.2652 25.7579 47.1503C26.6137 43.9801 28.5856 41.5974 31.1806 40.6046C33.8303 39.557 35.994 39.9952 37.4592 40.6662C37.5961 40.721 37.7262 40.7895 37.8495 40.8511C38.0549 40.9127 38.185 41.036 38.2329 41.0839V41.0839Z" fill="#4D4040"/>
        <path d="M107.749 59.1188C107.496 59.4406 107.236 59.7487 106.969 60.0294C106.935 60.0705 106.9 60.1116 106.866 60.1458C106.51 60.5224 106.154 60.8647 105.798 61.1728H103.532C103.977 60.8853 104.435 60.5498 104.894 60.1458C104.942 60.1047 104.983 60.0705 105.024 60.0294C105.579 59.5364 106.14 58.9544 106.681 58.2629C109.057 55.3256 109.92 51.2037 108.92 47.5064C108.188 44.7608 106.51 42.7136 104.333 41.8851C102.409 41.1594 100.663 41.1799 99.0264 41.9399C98.8347 42.0221 98.6498 42.1179 98.465 42.2275L97.7803 41.043C98.0405 40.8923 98.3075 40.7554 98.5745 40.639C100.512 39.7831 102.607 39.7694 104.819 40.6048C107.414 41.5976 109.393 43.9803 110.242 47.1504C111.351 51.2654 110.392 55.8528 107.749 59.1188V59.1188Z" fill="#4D4040"/>
        <path d="M79.1431 37.6948C76.4797 37.6948 73.9737 38.3384 71.68 39.612C69.3726 40.9334 66.5037 40.9334 64.1826 39.6051C61.9026 38.3384 59.3967 37.6948 56.7332 37.6948C48.7223 37.6948 42.2041 43.8433 42.2041 51.4023C42.2041 53.3811 42.6423 55.2913 43.4639 56.9141C43.7378 57.455 44.0185 58.0096 44.4225 58.5368C44.7238 59.0092 44.9702 59.509 45.162 60.0294C45.1757 60.0636 45.1893 60.1047 45.1962 60.1458C45.3194 60.4813 45.4153 60.8236 45.4838 61.1728H46.8737C46.8121 60.8305 46.7367 60.4813 46.634 60.1458C46.6203 60.1047 46.6135 60.0636 46.593 60.0294C46.3533 59.242 46.0041 58.4751 45.5454 57.7562C45.1893 57.2838 44.9429 56.8045 44.6895 56.2978C43.9638 54.86 43.5735 53.1688 43.5735 51.4023C43.5735 44.5965 49.4755 39.0642 56.7332 39.0642C59.157 39.0642 61.4439 39.653 63.5116 40.7965C66.2436 42.3576 69.6328 42.3576 72.3578 40.8033C74.4324 39.653 76.7125 39.0642 79.1431 39.0642C86.394 39.0642 92.296 44.5965 92.296 51.4023C92.296 53.1688 91.9126 54.86 91.1868 56.2978L91.132 56.4348C91.0362 56.825 90.6733 57.2975 90.2967 57.8042C89.8516 58.5025 89.5093 59.2557 89.2765 60.0294C89.256 60.0636 89.2491 60.1047 89.2354 60.1458C89.1327 60.4813 89.0574 60.8236 89.0026 61.1728H90.3857C90.4542 60.8236 90.55 60.4813 90.6664 60.1458C90.6801 60.1047 90.6938 60.0636 90.7075 60.0294C90.8924 59.5227 91.132 59.0434 91.4196 58.5847C91.8304 58.0369 92.2549 57.4755 92.4398 56.8524C93.2409 55.2366 93.6654 53.3537 93.6654 51.4023C93.6654 43.8433 87.1471 37.6948 79.1431 37.6948V37.6948Z" fill="#4D4040"/>
        <path d="M56.0755 47.0679C53.5559 47.0679 51.4333 49.1151 51.4333 51.532V52.833C51.4333 55.3321 53.4737 57.2903 56.0755 57.2903C58.6774 57.2903 60.7109 55.3321 60.7109 52.833V51.532C60.7109 49.0261 58.6705 47.0679 56.0755 47.0679ZM59.3415 52.833C59.3415 54.5652 57.9037 55.9209 56.0755 55.9209C54.2474 55.9209 52.8027 54.5652 52.8027 52.833V51.532C52.8027 49.8546 54.3022 48.4373 56.0755 48.4373C57.8489 48.4373 59.3415 49.7998 59.3415 51.532V52.833Z" fill="#4D4040"/>
        <path d="M79.9308 47.0679C77.418 47.0679 75.2886 49.1151 75.2886 51.532V52.833C75.2886 55.3321 77.3289 57.2903 79.9308 57.2903C82.5326 57.2903 84.573 55.3321 84.573 52.833V51.532C84.573 49.0261 82.5326 47.0679 79.9308 47.0679ZM83.2036 52.833C83.2036 54.5652 81.7657 55.9209 79.9308 55.9209C78.0958 55.9209 76.658 54.5652 76.658 52.833V51.532C76.658 49.8546 78.1574 48.4373 79.9308 48.4373C81.7041 48.4373 83.2036 49.7998 83.2036 51.532V52.833Z" fill="#4D4040"/>
        <path d="M136 60.0286H0V61.172H136V60.0286Z" fill="#4D4040"/>
        <g opacity="0.5">
            <path d="M108.791 44.5615C108.517 44.5615 108.256 44.3972 108.154 44.1301C108.017 43.7809 108.188 43.3838 108.544 43.24C109.085 43.0278 109.605 42.8087 110.091 42.5896C110.434 42.4321 110.845 42.5896 110.995 42.9319C111.153 43.2743 110.995 43.6851 110.653 43.8357C110.139 44.0685 109.605 44.2945 109.037 44.5136C108.955 44.5478 108.873 44.5615 108.784 44.5615H108.791Z" fill="#4D4040"/>
            <path d="M113.234 42.3778C113.008 42.3778 112.782 42.2614 112.652 42.056C112.454 41.7342 112.549 41.3097 112.871 41.1111C113.823 40.5155 114.651 39.8855 115.329 39.2351C115.603 38.9749 116.035 38.9818 116.295 39.2556C116.555 39.5295 116.548 39.9609 116.274 40.221C115.528 40.94 114.624 41.6315 113.59 42.2751C113.474 42.3436 113.351 42.3778 113.227 42.3778H113.234ZM117.739 37.8315C117.637 37.8315 117.541 37.8109 117.438 37.763C117.096 37.5987 116.959 37.1879 117.123 36.8455C117.507 36.0513 117.705 35.2297 117.705 34.4149C117.705 34.2916 117.705 34.1752 117.691 34.052C117.664 33.6754 117.945 33.3468 118.321 33.3194C118.684 33.2851 119.027 33.5727 119.054 33.9493C119.068 34.0999 119.068 34.2574 119.068 34.408C119.068 35.4351 118.828 36.4553 118.349 37.4412C118.232 37.6877 117.986 37.8246 117.733 37.8246L117.739 37.8315ZM107.086 35.6131C107.051 35.6131 107.01 35.6131 106.976 35.6062C105.62 35.3871 104.484 34.7504 103.772 33.8055C103.546 33.5042 103.601 33.0729 103.902 32.8469C104.203 32.6141 104.634 32.6758 104.86 32.977C105.36 33.6343 106.189 34.0931 107.195 34.2506C107.565 34.3122 107.825 34.6614 107.763 35.0379C107.709 35.3734 107.421 35.6131 107.086 35.6131ZM110.276 35.2844C109.996 35.2844 109.729 35.1064 109.633 34.8257C109.509 34.4697 109.694 34.0794 110.057 33.9561C110.714 33.7302 111.365 33.3878 111.995 32.9565C112.207 32.8127 112.419 32.6484 112.618 32.4704C112.899 32.2239 113.337 32.2513 113.583 32.532C113.837 32.8196 113.802 33.2509 113.522 33.4974C113.282 33.7096 113.029 33.9082 112.769 34.0862C112.036 34.5861 111.276 34.9832 110.502 35.2502C110.427 35.2776 110.352 35.2913 110.276 35.2913V35.2844ZM117.342 31.6487C117.116 31.6487 116.89 31.5323 116.76 31.3269C116.528 30.9503 116.247 30.5875 115.932 30.2451C115.843 30.4231 115.754 30.6012 115.658 30.7655C115.473 31.0941 115.062 31.2174 114.727 31.0325C114.398 30.8476 114.275 30.43 114.46 30.1013C114.604 29.8412 114.747 29.5604 114.877 29.2729C114.829 29.2318 114.775 29.1975 114.727 29.1565C114.426 28.9305 114.357 28.4992 114.583 28.1979C114.775 27.9377 115.117 27.8556 115.405 27.9788C115.487 27.7392 115.569 27.4927 115.651 27.2393C115.761 26.8764 116.144 26.6779 116.507 26.7874C116.87 26.897 117.068 27.2804 116.959 27.6433C116.829 28.0747 116.685 28.4923 116.528 28.8894C117.068 29.4098 117.548 29.9918 117.924 30.5943C118.123 30.9161 118.034 31.3338 117.712 31.5392C117.596 31.6077 117.472 31.6419 117.349 31.6419L117.342 31.6487ZM103.97 31.0051C103.881 31.0051 103.792 30.9846 103.703 30.9503C103.354 30.8066 103.19 30.4026 103.34 30.0534C103.751 29.0743 104.532 28.1568 105.655 27.3352C105.963 27.1092 106.387 27.1777 106.613 27.479C106.839 27.7871 106.771 28.2116 106.469 28.4375C105.545 29.1154 104.922 29.8343 104.607 30.5806C104.498 30.8408 104.244 30.9983 103.977 30.9983L103.97 31.0051ZM112.262 27.8213C112.193 27.8213 112.125 27.8076 112.056 27.7871C111.064 27.4721 110.078 27.3489 109.126 27.4447C108.743 27.479 108.414 27.2051 108.38 26.8285C108.345 26.4519 108.619 26.1164 108.996 26.0822C110.133 25.9727 111.296 26.1164 112.467 26.4862C112.83 26.6026 113.029 26.986 112.912 27.3489C112.816 27.6433 112.549 27.8282 112.262 27.8282V27.8213ZM117.034 24.973C117 24.973 116.959 24.973 116.918 24.9662C116.548 24.9045 116.295 24.5485 116.356 24.1788C116.521 23.186 116.644 22.1247 116.726 21.0155C116.753 20.6389 117.089 20.3582 117.459 20.3787C117.835 20.4061 118.123 20.7348 118.095 21.1114C118.013 22.2616 117.883 23.364 117.712 24.3979C117.657 24.7334 117.37 24.973 117.034 24.973V24.973Z" fill="#4D4040"/>
            <path d="M117.506 18.4682C117.13 18.4682 116.828 18.1669 116.822 17.7903C116.808 16.7702 116.76 16.1334 116.76 16.1266C116.733 15.75 117.013 15.4213 117.39 15.3939C117.76 15.3665 118.095 15.6473 118.122 16.0238C118.122 16.0512 118.177 16.7085 118.184 17.7767C118.184 18.1532 117.883 18.4613 117.506 18.4682H117.499H117.506Z" fill="#4D4040"/>
        </g>
        <g opacity="0.5">
            <path d="M20.0139 58.6248C19.8565 58.6248 19.7058 58.57 19.5757 58.4673C19.5552 58.4468 19.0212 58.0017 18.2817 57.2349C18.0215 56.961 18.0284 56.5297 18.3022 56.2695C18.5761 56.0093 19.0075 56.0161 19.2676 56.29C19.9455 56.9952 20.4453 57.4129 20.4522 57.4198C20.7397 57.6594 20.7808 58.0908 20.5412 58.3852C20.4042 58.5495 20.2125 58.6317 20.0139 58.6317V58.6248Z" fill="#4D4040"/>
            <path d="M16.6383 54.8178C16.4192 54.8178 16.2001 54.715 16.07 54.5165C15.3511 53.4484 14.8034 52.3803 14.4405 51.3464C14.372 51.1478 14.3994 50.9424 14.4952 50.7712C14.2145 50.7439 13.9406 50.7028 13.6736 50.6548C13.3039 50.5864 13.0505 50.2303 13.119 49.8606C13.1875 49.4909 13.5435 49.2375 13.9133 49.306C14.4473 49.4019 15.0019 49.4498 15.5702 49.4498C16.07 49.4498 16.5699 49.4087 17.0628 49.3334C17.4394 49.2718 17.7886 49.5319 17.8434 49.9085C17.8982 50.2851 17.6448 50.6343 17.2682 50.6891C16.7479 50.7712 16.2207 50.8123 15.6935 50.8192C15.7071 50.8397 15.714 50.8671 15.7208 50.8945C16.0426 51.8188 16.5356 52.7774 17.1861 53.7428C17.3983 54.0577 17.3162 54.4823 17.0012 54.6945C16.8848 54.7767 16.7479 54.8109 16.6178 54.8109L16.6383 54.8178ZM20.3699 49.621C20.1371 49.621 19.9043 49.4977 19.7742 49.2786C19.5825 48.95 19.692 48.5323 20.0207 48.3406C20.8286 47.8682 21.4312 47.293 21.8077 46.6289C21.883 46.4988 21.9515 46.3618 21.9994 46.2317C22.1432 45.8826 22.5403 45.7182 22.8895 45.8552C23.2387 45.999 23.4099 46.3961 23.2661 46.7453C23.1908 46.9233 23.1018 47.1081 22.9922 47.2999C22.4924 48.1763 21.7187 48.9226 20.6985 49.5183C20.589 49.5799 20.4726 49.6141 20.3562 49.6141L20.3699 49.621ZM10.6815 49.4156C10.5446 49.4156 10.4008 49.3745 10.2844 49.2855C9.20259 48.5118 8.44944 47.4984 8.03862 46.2797C7.91538 45.9236 8.10709 45.5334 8.46998 45.4101C8.82602 45.2869 9.21629 45.4786 9.33953 45.8415C9.66134 46.7863 10.2502 47.5669 11.0923 48.1763C11.4004 48.3954 11.4689 48.8267 11.2498 49.1348C11.1129 49.3197 10.9075 49.4224 10.6952 49.4224L10.6815 49.4156ZM14.6527 48.4775C14.6527 48.4775 14.6048 48.4775 14.5843 48.4775C14.2077 48.4364 13.9338 48.1009 13.9749 47.7244C14.0365 47.115 14.1803 46.5125 14.3994 45.9373C14.639 45.3074 14.9471 44.746 15.31 44.253C15.536 43.9517 15.9673 43.8901 16.2686 44.1161C16.5699 44.342 16.6315 44.7734 16.4055 45.0746C16.118 45.4649 15.8715 45.9168 15.6798 46.4235C15.5017 46.889 15.3922 47.3683 15.3374 47.8613C15.3032 48.2105 15.0019 48.4775 14.6596 48.4775H14.6527ZM21.8625 44.1571C21.7187 44.1571 21.5749 44.1092 21.4517 44.0202C20.7807 43.5135 19.7331 43.315 18.7746 43.5204C18.4048 43.6025 18.0419 43.3629 17.9598 42.9932C17.8845 42.6234 18.1173 42.2605 18.487 42.1784C19.829 41.8908 21.2805 42.1784 22.2733 42.9315C22.5746 43.1575 22.6362 43.5888 22.4034 43.8901C22.2665 44.0681 22.0611 44.164 21.8557 44.164L21.8625 44.1571ZM8.67538 43.4177C8.60691 43.4177 8.5316 43.404 8.45628 43.3834C8.10024 43.267 7.90168 42.8768 8.02493 42.5207C8.39466 41.4115 9.07935 40.3708 10.0516 39.4396C10.3255 39.1794 10.7568 39.1863 11.017 39.4602C11.2772 39.734 11.2704 40.1654 10.9965 40.4256C10.1817 41.1993 9.62026 42.0483 9.31899 42.9452C9.22314 43.2328 8.95611 43.4177 8.66854 43.4177H8.67538ZM13.3244 38.7207C13.0711 38.7207 12.8246 38.5769 12.7082 38.3304C12.5439 37.9881 12.6877 37.5773 13.03 37.4129C14.057 36.92 15.1799 36.5297 16.3781 36.2627C16.7479 36.1805 17.1108 36.4133 17.1929 36.783C17.2751 37.1528 17.0423 37.5156 16.6726 37.5978C15.5771 37.8443 14.55 38.1935 13.6188 38.6454C13.523 38.6933 13.4203 38.7139 13.3244 38.7139V38.7207ZM29.9281 38.6728C29.8597 38.6728 29.7844 38.6591 29.7159 38.6385C28.6889 38.303 27.7371 38.1661 26.7306 38.0155L26.5115 37.9812C26.135 37.9265 25.8816 37.5773 25.9364 37.2007C25.9912 36.8241 26.3404 36.5708 26.717 36.6256L26.9361 36.6598C27.9562 36.8104 29.0038 36.9679 30.1472 37.3308C30.5101 37.4472 30.7018 37.8306 30.5854 38.1935C30.4896 38.4811 30.2226 38.6659 29.935 38.6659L29.9281 38.6728ZM23.273 37.4061C23.273 37.4061 23.2113 37.4061 23.1771 37.4061C22.0748 37.2555 20.9724 37.1938 19.9111 37.2212C19.5483 37.2418 19.2196 36.9337 19.2059 36.5571C19.1922 36.1805 19.4935 35.8655 19.8701 35.8519C20.9998 35.8176 22.1912 35.8861 23.3688 36.0504C23.7454 36.1052 24.0056 36.4475 23.9508 36.8241C23.9029 37.1665 23.6085 37.4129 23.273 37.4129V37.4061Z" fill="#4D4040"/>
            <path d="M34.3993 41.1991C34.2487 41.1991 34.0981 41.1512 33.9748 41.0485C33.5229 40.6856 33.0779 40.357 32.6465 40.0763C32.3316 39.8709 32.2425 39.4463 32.4548 39.1245C32.6602 38.8096 33.0916 38.7206 33.4065 38.9328C33.8721 39.2409 34.3582 39.597 34.8375 39.9804C35.1319 40.22 35.1799 40.6446 34.9471 40.9458C34.8101 41.117 34.6116 41.206 34.413 41.206L34.3993 41.1991Z" fill="#4D4040"/>
        </g>
        <path d="M117.363 12.0931C116.322 12.0931 115.473 11.2441 115.473 10.2034V3.7125C115.473 2.67177 116.322 1.82275 117.363 1.82275C118.404 1.82275 119.253 2.67177 119.253 3.7125V10.2034C119.253 11.2441 118.404 12.0931 117.363 12.0931ZM117.363 3.18529C117.075 3.18529 116.843 3.41808 116.843 3.70565V10.2034C116.843 10.4909 117.075 10.7237 117.363 10.7237C117.65 10.7237 117.883 10.4909 117.883 10.2034V3.7125C117.883 3.42493 117.65 3.19213 117.363 3.19213V3.18529Z" fill="#4D4040"/>
        <path d="M122.231 11.6077C119.834 11.6077 117.883 9.6563 117.883 7.25989C117.883 4.86347 119.834 2.91211 122.231 2.91211C124.627 2.91211 126.578 4.86347 126.578 7.25989C126.578 9.6563 124.627 11.6077 122.231 11.6077ZM122.231 4.28149C120.587 4.28149 119.252 5.61663 119.252 7.25989C119.252 8.90314 120.587 10.2383 122.231 10.2383C123.874 10.2383 125.209 8.90314 125.209 7.25989C125.209 5.61663 123.874 4.28149 122.231 4.28149Z" fill="#4D4040"/>
        <path d="M112.495 11.6077C110.098 11.6077 108.147 9.6563 108.147 7.25989C108.147 4.86347 110.098 2.91211 112.495 2.91211C114.891 2.91211 116.842 4.86347 116.842 7.25989C116.842 9.6563 114.891 11.6077 112.495 11.6077ZM112.495 4.28149C110.851 4.28149 109.516 5.61663 109.516 7.25989C109.516 8.90314 110.851 10.2383 112.495 10.2383C114.138 10.2383 115.473 8.90314 115.473 7.25989C115.473 5.61663 114.138 4.28149 112.495 4.28149Z" fill="#4D4040"/>
        <path d="M116.589 3.46624C116.411 3.46624 116.24 3.39777 116.103 3.26768L114.001 1.16568C113.734 0.898655 113.734 0.467301 114.001 0.200272C114.268 -0.0667572 114.699 -0.0667572 114.966 0.200272L117.068 2.30227C117.335 2.5693 117.335 3.00065 117.068 3.26768C116.932 3.40462 116.76 3.46624 116.582 3.46624H116.589Z" fill="#4D4040"/>
        <path d="M118.123 3.46624C117.945 3.46624 117.773 3.39777 117.637 3.26768C117.37 3.00065 117.37 2.5693 117.637 2.30227L119.739 0.200272C120.006 -0.0667572 120.437 -0.0667572 120.704 0.200272C120.971 0.467301 120.971 0.898655 120.704 1.16568L118.602 3.26768C118.465 3.40462 118.294 3.46624 118.116 3.46624H118.123Z" fill="#4D4040"/>
        <path d="M33.0769 25.8199C32.7483 25.8199 32.4607 25.5871 32.4059 25.2516C32.3443 24.8818 32.5908 24.5258 32.9674 24.4642L36.2402 23.9027C36.6168 23.8411 36.9659 24.0876 37.0276 24.4642C37.0892 24.8339 36.8427 25.19 36.4661 25.2516L33.1933 25.813C33.1522 25.813 33.118 25.8199 33.0769 25.8199Z" fill="#4D4040"/>
        <path d="M40.7111 17.7613C40.5331 17.7613 40.3619 17.6928 40.225 17.5627L36.0689 13.4067C35.8019 13.1396 35.8019 12.7083 36.0689 12.4412C36.336 12.1742 36.7673 12.1742 37.0343 12.4412L41.1904 16.5973C41.4574 16.8643 41.4574 17.2957 41.1904 17.5627C41.0535 17.6997 40.8823 17.7613 40.7043 17.7613H40.7111Z" fill="#4D4040"/>
        <path d="M47.798 13.6048C47.4214 13.6048 47.1133 13.2967 47.1133 12.9201V8.901C47.1133 8.52442 47.4214 8.21631 47.798 8.21631C48.1746 8.21631 48.4827 8.52442 48.4827 8.901V12.9201C48.4827 13.2967 48.1746 13.6048 47.798 13.6048Z" fill="#4D4040"/>
        <path d="M57.9726 53.914C59.4852 53.914 60.7114 52.6879 60.7114 51.1753C60.7114 49.6627 59.4852 48.4365 57.9726 48.4365C56.4601 48.4365 55.2339 49.6627 55.2339 51.1753C55.2339 52.6879 56.4601 53.914 57.9726 53.914Z" fill="#4D4040"/>
        <path d="M81.6833 53.3188C83.1959 53.3188 84.4221 52.0926 84.4221 50.5801C84.4221 49.0675 83.1959 47.8413 81.6833 47.8413C80.1708 47.8413 78.9446 49.0675 78.9446 50.5801C78.9446 52.0926 80.1708 53.3188 81.6833 53.3188Z" fill="#4D4040"/>
    </g>
</svg>
